<?xml version="1.0" encoding="UTF-8"?>
<svg xmlns="http://www.w3.org/2000/svg" xmlns:xlink="http://www.w3.org/1999/xlink" width="75pt" height="74.999997pt" viewBox="0 0 75 74.999997" version="1.2">
<defs>
<clipPath id="clip1">
  <path d="M 31.125 7.5 L 43.875 7.5 L 43.875 20.25 L 31.125 20.25 Z M 31.125 7.5 "/>
</clipPath>
<clipPath id="clip2">
  <path d="M 31.125 54.75 L 43.875 54.75 L 43.875 67.5 L 31.125 67.5 Z M 31.125 54.75 "/>
</clipPath>
<clipPath id="clip3">
  <path d="M 31.125 31.125 L 43.875 31.125 L 43.875 43.875 L 31.125 43.875 Z M 31.125 31.125 "/>
</clipPath>
</defs>
<g id="surface1">
<g clip-path="url(#clip1)" clip-rule="nonzero">
<path style=" stroke:none;fill-rule:nonzero;fill:rgb(14.118958%,14.118958%,14.118958%);fill-opacity:1;" d="M 37.5 7.5 C 33.984375 7.5 31.125 10.359375 31.125 13.875 C 31.125 17.390625 33.984375 20.25 37.5 20.25 C 41.015625 20.25 43.875 17.390625 43.875 13.875 C 43.875 10.359375 41.015625 7.5 37.5 7.5 Z M 37.5 7.5 "/>
</g>
<g clip-path="url(#clip2)" clip-rule="nonzero">
<path style=" stroke:none;fill-rule:nonzero;fill:rgb(14.118958%,14.118958%,14.118958%);fill-opacity:1;" d="M 37.5 54.75 C 33.984375 54.75 31.125 57.609375 31.125 61.125 C 31.125 64.640625 33.984375 67.5 37.5 67.5 C 41.015625 67.5 43.875 64.640625 43.875 61.125 C 43.875 57.609375 41.015625 54.75 37.5 54.75 Z M 37.5 54.75 "/>
</g>
<g clip-path="url(#clip3)" clip-rule="nonzero">
<path style=" stroke:none;fill-rule:nonzero;fill:rgb(14.118958%,14.118958%,14.118958%);fill-opacity:1;" d="M 37.5 31.125 C 33.984375 31.125 31.125 33.984375 31.125 37.5 C 31.125 41.015625 33.984375 43.875 37.5 43.875 C 41.015625 43.875 43.875 41.015625 43.875 37.5 C 43.875 33.984375 41.015625 31.125 37.5 31.125 Z M 37.5 31.125 "/>
</g>
</g>
</svg>
