<?xml version="1.0" encoding="UTF-8"?>
<svg xmlns="http://www.w3.org/2000/svg" xmlns:xlink="http://www.w3.org/1999/xlink" width="384pt" height="383.999986pt" viewBox="0 0 384 383.999986" version="1.2">
<defs>
<clipPath id="clip1">
  <path d="M 44.707031 44.707031 L 339.457031 44.707031 L 339.457031 339.457031 L 44.707031 339.457031 Z M 44.707031 44.707031 "/>
</clipPath>
</defs>
<g id="surface1">
<g clip-path="url(#clip1)" clip-rule="nonzero">
<path style=" stroke:none;fill-rule:nonzero;fill:rgb(11.759949%,45.878601%,85.099792%);fill-opacity:1;" d="M 339.457031 192.082031 C 339.457031 192.773438 339.390625 193.457031 339.257812 194.136719 C 339.121094 194.816406 338.921875 195.472656 338.65625 196.113281 C 338.390625 196.75 338.066406 197.355469 337.683594 197.929688 C 337.300781 198.507812 336.863281 199.039062 336.375 199.527344 C 335.886719 200.015625 335.355469 200.453125 334.78125 200.835938 C 334.203125 201.21875 333.597656 201.542969 332.960938 201.808594 C 332.320312 202.074219 331.664062 202.273438 330.984375 202.40625 C 330.308594 202.542969 329.621094 202.609375 328.929688 202.609375 L 202.609375 202.609375 L 202.609375 328.929688 C 202.609375 329.621094 202.542969 330.308594 202.40625 330.984375 C 202.273438 331.664062 202.074219 332.320312 201.808594 332.960938 C 201.542969 333.597656 201.21875 334.203125 200.835938 334.78125 C 200.453125 335.355469 200.015625 335.886719 199.527344 336.375 C 199.039062 336.863281 198.507812 337.300781 197.929688 337.683594 C 197.355469 338.066406 196.75 338.390625 196.113281 338.65625 C 195.472656 338.921875 194.816406 339.121094 194.136719 339.257812 C 193.457031 339.390625 192.773438 339.457031 192.082031 339.457031 C 191.390625 339.457031 190.707031 339.390625 190.03125 339.257812 C 189.351562 339.121094 188.691406 338.921875 188.054688 338.65625 C 187.417969 338.390625 186.808594 338.066406 186.234375 337.683594 C 185.660156 337.300781 185.128906 336.863281 184.640625 336.375 C 184.152344 335.886719 183.714844 335.355469 183.332031 334.78125 C 182.945312 334.203125 182.621094 333.597656 182.359375 332.960938 C 182.09375 332.320312 181.894531 331.664062 181.757812 330.984375 C 181.625 330.308594 181.554688 329.621094 181.554688 328.929688 L 181.554688 202.609375 L 55.234375 202.609375 C 54.542969 202.609375 53.859375 202.542969 53.179688 202.40625 C 52.503906 202.273438 51.84375 202.074219 51.207031 201.808594 C 50.566406 201.542969 49.960938 201.21875 49.386719 200.835938 C 48.8125 200.453125 48.28125 200.015625 47.792969 199.527344 C 47.300781 199.039062 46.867188 198.507812 46.480469 197.929688 C 46.097656 197.355469 45.773438 196.75 45.507812 196.113281 C 45.246094 195.472656 45.046875 194.816406 44.910156 194.136719 C 44.777344 193.457031 44.707031 192.773438 44.707031 192.082031 C 44.707031 191.390625 44.777344 190.707031 44.910156 190.03125 C 45.046875 189.351562 45.246094 188.691406 45.507812 188.054688 C 45.773438 187.417969 46.097656 186.808594 46.480469 186.234375 C 46.867188 185.660156 47.300781 185.128906 47.792969 184.640625 C 48.28125 184.152344 48.8125 183.714844 49.386719 183.332031 C 49.960938 182.945312 50.566406 182.621094 51.207031 182.359375 C 51.84375 182.09375 52.503906 181.894531 53.179688 181.757812 C 53.859375 181.625 54.542969 181.554688 55.234375 181.554688 L 181.554688 181.554688 L 181.554688 55.234375 C 181.554688 54.542969 181.625 53.859375 181.757812 53.179688 C 181.894531 52.503906 182.09375 51.84375 182.359375 51.207031 C 182.621094 50.566406 182.945312 49.960938 183.332031 49.386719 C 183.714844 48.8125 184.152344 48.28125 184.640625 47.792969 C 185.128906 47.300781 185.660156 46.867188 186.234375 46.480469 C 186.808594 46.097656 187.417969 45.773438 188.054688 45.507812 C 188.691406 45.246094 189.351562 45.046875 190.03125 44.910156 C 190.707031 44.777344 191.390625 44.707031 192.082031 44.707031 C 192.773438 44.707031 193.457031 44.777344 194.136719 44.910156 C 194.816406 45.046875 195.472656 45.246094 196.113281 45.507812 C 196.75 45.773438 197.355469 46.097656 197.929688 46.480469 C 198.507812 46.867188 199.039062 47.300781 199.527344 47.792969 C 200.015625 48.28125 200.453125 48.8125 200.835938 49.386719 C 201.21875 49.960938 201.542969 50.566406 201.808594 51.207031 C 202.074219 51.84375 202.273438 52.503906 202.40625 53.179688 C 202.542969 53.859375 202.609375 54.542969 202.609375 55.234375 L 202.609375 181.554688 L 328.929688 181.554688 C 329.621094 181.554688 330.308594 181.625 330.984375 181.757812 C 331.664062 181.894531 332.320312 182.09375 332.960938 182.359375 C 333.597656 182.621094 334.203125 182.945312 334.78125 183.332031 C 335.355469 183.714844 335.886719 184.152344 336.375 184.640625 C 336.863281 185.128906 337.300781 185.660156 337.683594 186.234375 C 338.066406 186.808594 338.390625 187.417969 338.65625 188.054688 C 338.921875 188.691406 339.121094 189.351562 339.257812 190.03125 C 339.390625 190.707031 339.457031 191.390625 339.457031 192.082031 Z M 339.457031 192.082031 "/>
</g>
</g>
</svg>
