<?xml version="1.0" encoding="UTF-8"?>
<svg xmlns="http://www.w3.org/2000/svg" xmlns:xlink="http://www.w3.org/1999/xlink" width="384pt" height="383.999986pt" viewBox="0 0 384 383.999986" version="1.2">
<g id="surface1">
<path style=" stroke:none;fill-rule:nonzero;fill:rgb(8.628845%,40.388489%,76.858521%);fill-opacity:1;" d="M 191.941406 5.957031 C 89.386719 5.957031 5.957031 89.386719 5.957031 191.941406 C 5.957031 254.566406 37.1875 312.617188 89.507812 347.191406 C 119.90625 367.296875 155.332031 377.925781 191.941406 377.925781 C 228.546875 377.925781 263.960938 367.296875 294.359375 347.191406 C 346.683594 312.617188 377.921875 254.578125 377.921875 191.941406 C 377.921875 89.386719 294.492188 5.957031 191.941406 5.957031 Z M 191.941406 383.941406 C 154.140625 383.941406 117.570312 372.964844 86.1875 352.21875 C 32.183594 316.515625 -0.0585938 256.597656 -0.0585938 191.941406 C -0.0585938 86.066406 86.066406 -0.0585938 191.941406 -0.0585938 C 297.804688 -0.0585938 383.941406 86.066406 383.941406 191.941406 C 383.941406 256.597656 351.691406 316.515625 297.683594 352.21875 C 266.296875 372.964844 229.726562 383.941406 191.941406 383.941406 "/>
<path style=" stroke:none;fill-rule:nonzero;fill:rgb(8.628845%,40.388489%,76.858521%);fill-opacity:1;" d="M 271.617188 181.195312 C 271.617188 181.195312 280.738281 123.023438 275.574219 105.367188 C 275.574219 105.367188 263.601562 82.117188 246.34375 74.488281 L 254.527344 91.335938 C 254.527344 91.335938 228.703125 60.84375 171.335938 68.0625 L 181.363281 76.488281 C 181.363281 76.488281 141.335938 77.484375 118.4375 66.96875 C 118.4375 66.96875 124.007812 82.914062 128.414062 85.320312 C 132.828125 87.726562 117.992188 78.90625 115.585938 71.289062 C 115.585938 71.289062 105.453125 95.367188 111.578125 136.65625 L 107.160156 127.027344 C 107.160156 127.027344 107.160156 164.707031 113.972656 177.957031 C 120.796875 191.21875 144.863281 202.515625 144.863281 202.515625 L 271.617188 181.195312 "/>
<path style=" stroke:none;fill-rule:nonzero;fill:rgb(8.628845%,40.388489%,76.858521%);fill-opacity:1;" d="M 110.53125 139.484375 C 111.109375 151.433594 112.636719 168.785156 116.65625 176.585938 C 122.25 187.464844 141.132812 197.308594 145.320312 199.390625 L 268.96875 178.582031 C 270.519531 168.066406 276.984375 121.746094 272.769531 106.511719 C 271.699219 104.515625 264.300781 91.191406 253.601562 82.539062 L 257.234375 90.023438 C 257.898438 91.386719 257.441406 93.035156 256.164062 93.851562 C 254.902344 94.683594 253.214844 94.441406 252.230469 93.285156 C 252.035156 93.058594 231.796875 69.976562 188.511719 69.976562 C 185.308594 69.976562 182.046875 70.097656 178.726562 70.351562 L 183.300781 74.1875 C 184.261719 74.996094 184.625 76.304688 184.214844 77.484375 C 183.792969 78.664062 182.6875 79.472656 181.445312 79.496094 C 181.445312 79.496094 180.398438 79.53125 178.558594 79.53125 C 170.160156 79.53125 143.492188 78.953125 123.757812 72.289062 C 125.222656 75.679688 127.042969 79.398438 128.703125 81.515625 C 129.230469 81.925781 129.699219 82.261719 130.074219 82.550781 C 131.277344 83.453125 132.78125 84.574219 132.082031 86.667969 C 131.675781 87.894531 130.519531 88.738281 129.21875 88.738281 C 128.390625 88.738281 127.859375 88.4375 126.980469 87.96875 C 126.140625 87.511719 125.332031 86.824219 124.503906 85.875 C 121.097656 83.226562 118.4375 80.757812 116.464844 78.449219 C 113.972656 87.871094 110.375 107.992188 114.550781 136.222656 C 114.765625 137.703125 113.863281 139.125 112.433594 139.542969 C 111.78125 139.738281 111.121094 139.699219 110.53125 139.484375 Z M 144.863281 205.527344 C 144.429688 205.527344 143.984375 205.429688 143.585938 205.238281 C 142.566406 204.753906 118.507812 193.347656 111.300781 179.339844 C 104.226562 165.597656 104.152344 128.605469 104.152344 127.027344 C 104.152344 125.621094 105.128906 124.394531 106.511719 124.09375 C 106.714844 124.058594 106.921875 124.03125 107.113281 124.019531 C 104.5 90.398438 112.433594 71.023438 112.804688 70.109375 C 113.296875 68.953125 114.441406 68.21875 115.707031 68.28125 C 115.644531 68.113281 115.609375 68.003906 115.597656 67.957031 C 115.1875 66.8125 115.511719 65.546875 116.402344 64.742188 C 117.292969 63.921875 118.59375 63.730469 119.6875 64.238281 C 135.597656 71.542969 160.375 73.128906 173.058594 73.441406 L 169.414062 70.375 C 168.484375 69.605469 168.113281 68.363281 168.449219 67.222656 C 168.785156 66.078125 169.773438 65.234375 170.964844 65.089844 C 176.921875 64.332031 182.816406 63.960938 188.511719 63.960938 C 216.199219 63.960938 234.914062 72.707031 245.660156 79.953125 L 243.648438 75.800781 C 243.09375 74.671875 243.3125 73.308594 244.191406 72.40625 C 245.058594 71.492188 246.417969 71.226562 247.558594 71.734375 C 265.585938 79.699219 277.742188 103.007812 278.246094 103.996094 C 278.34375 104.164062 278.414062 104.34375 278.464844 104.527344 C 283.746094 122.625 274.972656 179.257812 274.601562 181.652344 C 274.394531 182.9375 273.398438 183.9375 272.121094 184.152344 L 145.355469 205.488281 C 145.199219 205.515625 145.03125 205.527344 144.863281 205.527344 "/>
<path style=" stroke:none;fill-rule:nonzero;fill:rgb(8.628845%,40.388489%,76.858521%);fill-opacity:1;" d="M 296.019531 349.703125 C 266.175781 369.4375 230.398438 380.929688 191.941406 380.929688 C 153.46875 380.929688 117.691406 369.4375 87.847656 349.703125 C 95.957031 326.753906 111.457031 307.285156 131.480469 294.15625 C 141.636719 287.488281 152.960938 282.457031 165.082031 279.4375 C 173.671875 277.273438 182.671875 276.140625 191.941406 276.140625 C 195.34375 276.140625 198.714844 276.285156 202.035156 276.597656 C 202.613281 276.644531 203.191406 276.707031 203.757812 276.765625 C 204.117188 276.800781 204.480469 276.839844 204.828125 276.886719 C 205.226562 276.933594 205.609375 276.984375 206.007812 277.03125 C 206.246094 277.054688 206.5 277.089844 206.742188 277.128906 C 207.089844 277.164062 207.453125 277.222656 207.8125 277.273438 C 208.089844 277.308594 208.367188 277.355469 208.65625 277.390625 L 208.90625 277.429688 C 209.472656 277.523438 210.027344 277.609375 210.59375 277.703125 L 210.605469 277.703125 C 211.484375 277.863281 212.347656 278.019531 213.214844 278.1875 C 214.082031 278.355469 214.949219 278.535156 215.816406 278.726562 C 215.972656 278.765625 216.140625 278.800781 216.296875 278.835938 C 216.632812 278.910156 216.957031 278.980469 217.296875 279.066406 C 217.402344 279.089844 217.523438 279.113281 217.632812 279.148438 C 217.847656 279.199219 218.066406 279.246094 218.269531 279.304688 C 218.449219 279.339844 218.632812 279.390625 218.8125 279.425781 C 218.859375 279.4375 218.90625 279.449219 218.945312 279.460938 C 218.980469 279.472656 219.015625 279.472656 219.039062 279.484375 C 219.0625 279.5 219.101562 279.5 219.125 279.511719 C 219.617188 279.628906 220.097656 279.761719 220.582031 279.894531 C 220.855469 279.957031 221.132812 280.027344 221.398438 280.113281 C 221.675781 280.183594 221.941406 280.269531 222.203125 280.339844 C 222.820312 280.507812 223.421875 280.691406 224.035156 280.871094 C 224.503906 281.015625 224.972656 281.160156 225.441406 281.316406 C 225.742188 281.410156 226.054688 281.507812 226.34375 281.605469 C 226.839844 281.761719 227.332031 281.929688 227.8125 282.097656 C 228.089844 282.195312 228.367188 282.289062 228.632812 282.386719 C 229.605469 282.722656 230.570312 283.085938 231.53125 283.445312 C 231.976562 283.625 232.433594 283.792969 232.890625 283.988281 C 233.636719 284.277344 234.371094 284.589844 235.105469 284.902344 C 236.054688 285.296875 236.984375 285.707031 237.921875 286.140625 C 238.738281 286.515625 239.558594 286.898438 240.363281 287.296875 C 240.425781 287.320312 240.472656 287.355469 240.53125 287.378906 C 240.882812 287.546875 241.230469 287.71875 241.566406 287.898438 C 241.601562 287.910156 241.628906 287.933594 241.664062 287.945312 C 242.410156 288.320312 243.132812 288.691406 243.867188 289.089844 L 243.878906 289.089844 C 244.539062 289.449219 245.214844 289.8125 245.863281 290.183594 C 246.042969 290.28125 246.210938 290.375 246.382812 290.472656 C 246.609375 290.605469 246.824219 290.726562 247.042969 290.847656 C 247.597656 291.171875 248.148438 291.496094 248.691406 291.832031 L 249.234375 292.15625 C 249.367188 292.230469 249.496094 292.3125 249.628906 292.398438 C 250.570312 292.964844 251.484375 293.554688 252.398438 294.15625 C 265.636719 302.832031 276.886719 314.277344 285.335938 327.667969 C 289.679688 334.539062 293.277344 341.929688 296.019531 349.703125 "/>
<path style=" stroke:none;fill-rule:nonzero;fill:rgb(8.628845%,40.388489%,76.858521%);fill-opacity:1;" d="M 91.492188 348.488281 C 121.445312 367.753906 156.128906 377.921875 191.941406 377.921875 C 227.753906 377.921875 262.421875 367.753906 292.375 348.488281 C 289.835938 341.785156 286.621094 335.335938 282.796875 329.28125 C 274.625 316.332031 263.554688 305.058594 250.75 296.671875 C 249.859375 296.082031 248.980469 295.515625 248.078125 294.972656 C 247.933594 294.890625 247.875 294.839844 247.800781 294.804688 L 247.691406 294.734375 L 247.152344 294.421875 C 246.585938 294.058594 246.054688 293.746094 245.515625 293.445312 C 245.285156 293.3125 245.082031 293.191406 244.875 293.070312 C 244.746094 293 244.601562 292.914062 244.445312 292.84375 C 243.867188 292.507812 243.347656 292.21875 242.832031 291.941406 L 242.589844 291.808594 C 242.53125 291.785156 242.480469 291.761719 242.433594 291.738281 C 241.734375 291.351562 241.039062 290.992188 240.316406 290.640625 C 240.304688 290.628906 240.28125 290.617188 240.253906 290.605469 C 240.21875 290.582031 240.183594 290.570312 240.148438 290.546875 C 239.847656 290.390625 239.535156 290.246094 239.222656 290.085938 C 239.171875 290.0625 239.113281 290.027344 239.0625 290.003906 C 239.050781 290.003906 239.039062 290.003906 239.027344 289.992188 C 238.257812 289.605469 237.464844 289.234375 236.667969 288.871094 C 235.753906 288.453125 234.863281 288.054688 233.949219 287.679688 C 233.203125 287.355469 232.519531 287.066406 231.808594 286.789062 C 231.484375 286.660156 231.242188 286.5625 231 286.464844 L 230.398438 286.226562 C 229.535156 285.910156 228.59375 285.550781 227.644531 285.226562 L 226.824219 284.9375 C 226.367188 284.78125 225.898438 284.613281 225.441406 284.46875 L 224.527344 284.179688 C 224.046875 284.023438 223.601562 283.878906 223.15625 283.746094 L 222.902344 283.675781 C 222.398438 283.53125 221.902344 283.386719 221.410156 283.242188 L 220.640625 283.023438 C 220.59375 283.011719 220.53125 283 220.484375 282.976562 C 220.304688 282.914062 220.125 282.867188 219.929688 282.832031 L 219.785156 282.796875 C 219.269531 282.652344 218.847656 282.542969 218.414062 282.433594 C 218.367188 282.421875 218.316406 282.410156 218.257812 282.398438 C 218.257812 282.386719 218.246094 282.386719 218.246094 282.386719 C 218.199219 282.375 218.148438 282.363281 218.089844 282.351562 L 217.691406 282.253906 C 217.597656 282.242188 217.5 282.21875 217.414062 282.183594 C 217.28125 282.144531 217.152344 282.121094 217.03125 282.097656 C 216.921875 282.074219 216.777344 282.039062 216.679688 282 C 216.261719 281.90625 215.960938 281.84375 215.660156 281.773438 L 215.128906 281.652344 C 214.324219 281.472656 213.480469 281.304688 212.636719 281.136719 C 211.820312 280.976562 211 280.832031 210.171875 280.675781 C 210.148438 280.675781 210.109375 280.675781 210.085938 280.664062 L 208.292969 280.375 C 208.101562 280.351562 207.921875 280.328125 207.753906 280.304688 L 207.007812 280.195312 C 206.8125 280.160156 206.621094 280.136719 206.429688 280.125 C 206.390625 280.113281 206.34375 280.113281 206.308594 280.101562 C 206.105469 280.074219 205.898438 280.039062 205.707031 280.027344 L 204.46875 279.871094 C 204.128906 279.824219 203.828125 279.800781 203.527344 279.761719 C 202.890625 279.703125 202.335938 279.644531 201.785156 279.59375 C 198.628906 279.292969 195.332031 279.148438 191.941406 279.148438 C 183.046875 279.148438 174.25 280.21875 165.8125 282.351562 C 154.175781 285.25 143.191406 290.0625 133.128906 296.671875 C 114.1875 309.089844 99.484375 327.429688 91.492188 348.488281 Z M 191.941406 383.941406 C 154.140625 383.941406 117.570312 372.964844 86.1875 352.21875 C 85.042969 351.449219 84.550781 350.003906 85.007812 348.703125 C 93.226562 325.46875 109.136719 305.203125 129.832031 291.640625 C 140.445312 284.671875 152.058594 279.582031 164.359375 276.511719 C 173.261719 274.273438 182.542969 273.132812 191.941406 273.132812 C 195.527344 273.132812 199.015625 273.289062 202.324219 273.601562 C 202.890625 273.648438 203.492188 273.710938 204.070312 273.769531 C 204.515625 273.816406 204.875 273.855469 205.238281 273.902344 L 206.367188 274.046875 C 206.585938 274.058594 206.851562 274.105469 207.113281 274.144531 C 207.367188 274.167969 207.609375 274.203125 207.871094 274.238281 L 210.988281 274.71875 C 211.039062 274.71875 211.085938 274.734375 211.132812 274.746094 C 212.023438 274.902344 212.902344 275.058594 213.792969 275.226562 C 214.683594 275.40625 215.574219 275.585938 216.464844 275.792969 L 216.957031 275.898438 C 217.308594 275.972656 217.65625 276.054688 218.027344 276.140625 C 218.125 276.164062 218.257812 276.199219 218.390625 276.238281 C 218.605469 276.285156 218.8125 276.332031 218.992188 276.382812 C 219.0625 276.40625 219.148438 276.417969 219.234375 276.441406 L 219.414062 276.476562 C 219.449219 276.488281 219.484375 276.488281 219.519531 276.5 C 219.582031 276.511719 219.652344 276.539062 219.714844 276.550781 C 219.761719 276.5625 219.820312 276.574219 219.871094 276.597656 L 219.882812 276.597656 C 220.351562 276.71875 220.820312 276.839844 221.277344 276.957031 C 221.566406 277.03125 221.902344 277.113281 222.230469 277.222656 C 222.386719 277.257812 222.542969 277.308594 222.699219 277.34375 L 222.988281 277.429688 C 223.539062 277.585938 224.070312 277.742188 224.613281 277.910156 L 224.886719 277.980469 C 225.40625 278.136719 225.898438 278.292969 226.394531 278.464844 L 227.296875 278.75 C 227.777344 278.894531 228.292969 279.078125 228.800781 279.257812 C 229.089844 279.351562 229.378906 279.449219 229.664062 279.558594 C 230.617188 279.882812 231.601562 280.257812 232.589844 280.628906 L 233.191406 280.859375 C 233.46875 280.976562 233.769531 281.085938 234.058594 281.21875 C 234.757812 281.484375 235.503906 281.796875 236.261719 282.121094 C 237.246094 282.53125 238.210938 282.953125 239.183594 283.410156 C 240.015625 283.792969 240.855469 284.179688 241.699219 284.601562 C 241.734375 284.625 241.796875 284.648438 241.84375 284.671875 C 242.21875 284.851562 242.589844 285.035156 242.953125 285.226562 C 242.964844 285.226562 242.976562 285.238281 242.988281 285.238281 C 242.988281 285.25 243 285.25 243.011719 285.25 C 243.734375 285.609375 244.429688 285.972656 245.140625 286.355469 C 245.203125 286.394531 245.261719 286.417969 245.320312 286.441406 L 245.707031 286.65625 C 246.261719 286.957031 246.8125 287.261719 247.367188 287.574219 C 247.488281 287.632812 247.679688 287.753906 247.875 287.863281 L 248.402344 288.164062 C 248.425781 288.175781 248.546875 288.234375 248.558594 288.246094 C 249.136719 288.582031 249.714844 288.933594 250.28125 289.28125 L 250.738281 289.546875 C 250.90625 289.640625 251.085938 289.75 251.253906 289.859375 C 252.15625 290.414062 253.109375 291.015625 254.046875 291.640625 C 267.558594 300.496094 279.257812 312.398438 287.875 326.058594 C 292.363281 333.167969 296.054688 340.785156 298.859375 348.703125 C 299.316406 350.003906 298.835938 351.449219 297.679688 352.21875 C 266.296875 372.964844 229.726562 383.941406 191.941406 383.941406 "/>
<path style=" stroke:none;fill-rule:nonzero;fill:rgb(100%,100%,100%);fill-opacity:1;" d="M 252.398438 294.15625 C 250.714844 306.898438 245.09375 318.414062 236.777344 327.417969 C 225.632812 339.488281 209.675781 347.054688 191.941406 347.054688 C 163.527344 347.054688 139.652344 327.621094 132.878906 301.316406 C 132.277344 298.980469 131.808594 296.585938 131.480469 294.15625 C 148.847656 282.757812 169.617188 276.140625 191.941406 276.140625 C 195.34375 276.140625 198.714844 276.285156 202.035156 276.597656 C 202.613281 276.644531 203.191406 276.707031 203.757812 276.765625 C 204.117188 276.800781 204.480469 276.839844 204.828125 276.886719 C 205.226562 276.921875 205.621094 276.984375 206.007812 277.03125 C 206.246094 277.054688 206.5 277.089844 206.742188 277.128906 C 207.089844 277.164062 207.453125 277.222656 207.8125 277.273438 C 208.089844 277.308594 208.367188 277.355469 208.65625 277.390625 C 208.894531 277.429688 209.136719 277.464844 209.375 277.511719 C 209.785156 277.574219 210.183594 277.644531 210.59375 277.703125 C 212.347656 278.007812 214.09375 278.34375 215.816406 278.726562 L 216.96875 278.980469 C 217.1875 279.039062 217.414062 279.089844 217.632812 279.148438 C 218.042969 279.246094 218.460938 279.339844 218.859375 279.449219 C 218.933594 279.460938 218.992188 279.472656 219.039062 279.484375 C 219.558594 279.617188 220.074219 279.75 220.582031 279.894531 C 221.132812 280.027344 221.675781 280.183594 222.203125 280.339844 C 222.820312 280.507812 223.421875 280.6875 224.035156 280.871094 C 224.503906 281.015625 224.972656 281.160156 225.441406 281.316406 C 225.742188 281.410156 226.054688 281.507812 226.34375 281.605469 C 226.839844 281.761719 227.332031 281.929688 227.8125 282.097656 C 228.414062 282.300781 229.003906 282.507812 229.59375 282.722656 C 229.640625 282.746094 229.679688 282.757812 229.714844 282.769531 C 230.328125 282.988281 230.929688 283.214844 231.53125 283.445312 C 231.976562 283.625 232.433594 283.792969 232.890625 283.988281 C 234.082031 284.457031 235.25 284.949219 236.40625 285.453125 L 237.921875 286.140625 C 238.378906 286.34375 238.835938 286.5625 239.292969 286.777344 C 239.714844 286.984375 240.125 287.175781 240.53125 287.378906 C 240.917969 287.5625 241.289062 287.753906 241.664062 287.945312 C 241.90625 288.066406 242.15625 288.1875 242.398438 288.320312 C 243.398438 288.824219 244.371094 289.355469 245.332031 289.882812 C 245.683594 290.074219 246.042969 290.28125 246.382812 290.472656 C 246.609375 290.605469 246.824219 290.726562 247.042969 290.847656 L 247.859375 291.328125 L 248.691406 291.832031 L 249.234375 292.15625 C 249.75 292.457031 250.253906 292.769531 250.761719 293.097656 C 251.316406 293.445312 251.855469 293.792969 252.398438 294.15625 "/>
<path style=" stroke:none;fill-rule:nonzero;fill:rgb(8.628845%,40.388489%,76.858521%);fill-opacity:1;" d="M 134.742188 295.636719 C 135.019531 297.285156 135.367188 298.945312 135.789062 300.570312 C 142.382812 326.164062 165.476562 344.046875 191.941406 344.046875 C 208.078125 344.046875 223.613281 337.238281 234.5625 325.371094 C 242.277344 317.019531 247.296875 306.765625 249.136719 295.636719 C 248.65625 295.324219 248.199219 295.035156 247.714844 294.757812 L 244.875 293.085938 C 244.550781 292.902344 244.214844 292.699219 243.878906 292.519531 C 242.953125 292 242 291.496094 241.039062 291.003906 C 240.808594 290.882812 240.664062 290.808594 240.507812 290.738281 L 240.316406 290.640625 C 239.941406 290.449219 239.59375 290.269531 239.246094 290.101562 C 238.933594 289.945312 238.679688 289.824219 238.425781 289.703125 L 237.980469 289.484375 C 237.5 289.257812 237.089844 289.066406 236.695312 288.882812 L 235.164062 288.199219 C 234.070312 287.71875 232.9375 287.246094 231.785156 286.777344 C 231.472656 286.644531 231.21875 286.5625 230.976562 286.453125 L 230.398438 286.238281 C 229.882812 286.03125 229.304688 285.816406 228.714844 285.609375 C 228.65625 285.585938 228.558594 285.550781 228.4375 285.503906 C 227.910156 285.308594 227.378906 285.128906 226.851562 284.949219 C 226.367188 284.78125 225.898438 284.625 225.429688 284.46875 L 224.527344 284.179688 C 224.046875 284.023438 223.601562 283.878906 223.15625 283.746094 L 222.9375 283.6875 C 222.433594 283.53125 221.929688 283.386719 221.410156 283.242188 C 220.871094 283.085938 220.375 282.941406 219.882812 282.820312 C 219.835938 282.808594 219.796875 282.808594 219.75 282.785156 C 219.28125 282.652344 218.800781 282.53125 218.316406 282.410156 C 218.222656 282.398438 218.160156 282.375 218.066406 282.351562 C 217.765625 282.265625 217.441406 282.195312 217.125 282.121094 L 216.945312 282.074219 C 216.898438 282.074219 216.851562 282.050781 216.8125 282.050781 L 216.585938 281.988281 C 216.476562 281.964844 216.355469 281.929688 216.25 281.90625 L 215.175781 281.664062 C 213.550781 281.304688 211.902344 280.976562 210.085938 280.675781 L 208.945312 280.484375 C 208.882812 280.484375 208.835938 280.472656 208.773438 280.460938 C 208.617188 280.425781 208.460938 280.402344 208.304688 280.375 C 208.101562 280.351562 207.921875 280.328125 207.726562 280.304688 L 206.980469 280.195312 C 206.800781 280.160156 206.621094 280.136719 206.441406 280.125 C 206.378906 280.125 206.332031 280.113281 206.273438 280.101562 C 206.089844 280.074219 205.898438 280.039062 205.71875 280.027344 L 205.296875 279.96875 C 205.042969 279.945312 204.792969 279.90625 204.539062 279.882812 C 204.105469 279.824219 203.78125 279.800781 203.457031 279.761719 C 202.890625 279.703125 202.335938 279.644531 201.785156 279.59375 C 198.628906 279.304688 195.332031 279.148438 191.941406 279.148438 C 171.578125 279.148438 151.84375 284.839844 134.742188 295.636719 Z M 191.941406 350.066406 C 162.722656 350.066406 137.234375 330.328125 129.964844 302.0625 C 129.328125 299.59375 128.835938 297.066406 128.496094 294.550781 C 128.339844 293.410156 128.859375 292.277344 129.832031 291.640625 C 148.28125 279.535156 169.75 273.132812 191.941406 273.132812 C 195.515625 273.132812 199.015625 273.289062 202.3125 273.601562 C 202.890625 273.648438 203.480469 273.710938 204.070312 273.78125 C 204.453125 273.816406 204.839844 273.855469 205.226562 273.902344 C 205.441406 273.925781 205.765625 273.960938 206.089844 274.011719 L 206.390625 274.046875 C 206.574219 274.058594 206.851562 274.105469 207.125 274.144531 C 207.355469 274.167969 207.597656 274.203125 207.847656 274.238281 L 209.015625 274.40625 C 209.050781 274.40625 209.195312 274.433594 209.21875 274.433594 C 209.4375 274.46875 209.664062 274.503906 209.882812 274.550781 C 210.085938 274.574219 210.28125 274.613281 210.472656 274.636719 L 211.027344 274.71875 C 213.011719 275.070312 214.769531 275.40625 216.464844 275.792969 L 217.609375 276.042969 L 217.789062 276.082031 L 218.003906 276.140625 C 218.125 276.164062 218.257812 276.199219 218.378906 276.238281 L 218.5 276.261719 C 218.835938 276.34375 219.183594 276.417969 219.519531 276.511719 C 219.605469 276.527344 219.679688 276.550781 219.75 276.5625 C 220.328125 276.707031 220.84375 276.839844 221.339844 276.984375 C 221.929688 277.128906 222.503906 277.296875 223.058594 277.453125 C 223.554688 277.585938 224.09375 277.753906 224.648438 277.910156 L 224.886719 277.980469 C 225.40625 278.148438 225.898438 278.292969 226.394531 278.464844 L 227.296875 278.75 C 227.777344 278.894531 228.292969 279.078125 228.800781 279.257812 C 229.402344 279.460938 230.015625 279.679688 230.628906 279.90625 C 230.675781 279.917969 230.738281 279.941406 230.785156 279.957031 C 231.433594 280.195312 232.011719 280.414062 232.601562 280.628906 L 233.15625 280.847656 C 233.457031 280.964844 233.757812 281.085938 234.058594 281.21875 C 235.214844 281.664062 236.417969 282.179688 237.609375 282.699219 L 239.171875 283.410156 C 239.582031 283.589844 240.027344 283.792969 240.472656 284.011719 C 240.484375 284.011719 240.59375 284.070312 240.605469 284.070312 L 241.027344 284.277344 C 241.316406 284.417969 241.589844 284.550781 241.878906 284.695312 C 242.230469 284.851562 242.636719 285.058594 243.046875 285.273438 L 243.167969 285.335938 C 243.398438 285.441406 243.625 285.550781 243.84375 285.683594 C 244.78125 286.152344 245.792969 286.707031 246.777344 287.246094 C 247.152344 287.453125 247.523438 287.65625 247.875 287.863281 L 248.4375 288.175781 C 248.460938 288.1875 248.546875 288.234375 248.570312 288.257812 L 250.796875 289.59375 C 251.304688 289.882812 251.84375 290.21875 252.386719 290.558594 C 252.941406 290.917969 253.503906 291.277344 254.070312 291.652344 C 255.019531 292.289062 255.527344 293.410156 255.382812 294.550781 C 253.648438 307.65625 247.980469 319.726562 238.992188 329.460938 C 226.898438 342.554688 209.75 350.066406 191.941406 350.066406 "/>
<path style=" stroke:none;fill-rule:nonzero;fill:rgb(100%,100%,100%);fill-opacity:1;" d="M 165.082031 298.738281 L 165.082031 245.875 C 165.082031 232.507812 176.007812 221.578125 189.375 221.578125 L 194.503906 221.578125 C 207.871094 221.578125 218.8125 232.507812 218.8125 245.875 L 218.8125 298.738281 C 218.8125 312.109375 207.871094 323.0625 194.503906 323.0625 "/>
<path style=" stroke:none;fill-rule:nonzero;fill:rgb(8.628845%,40.388489%,76.858521%);fill-opacity:1;" d="M 194.503906 326.070312 C 192.84375 326.070312 191.496094 324.722656 191.496094 323.0625 C 191.496094 321.398438 192.84375 320.050781 194.503906 320.050781 C 206.246094 320.050781 215.804688 310.484375 215.804688 298.738281 L 215.804688 245.875 C 215.804688 234.128906 206.246094 224.585938 194.503906 224.585938 L 189.375 224.585938 C 177.632812 224.585938 168.089844 234.128906 168.089844 245.875 L 168.089844 298.738281 C 168.089844 300.402344 166.742188 301.75 165.082031 301.75 C 163.417969 301.75 162.070312 300.402344 162.070312 298.738281 L 162.070312 245.875 C 162.070312 230.820312 174.320312 218.570312 189.375 218.570312 L 194.503906 218.570312 C 209.570312 218.570312 221.820312 230.820312 221.820312 245.875 L 221.820312 298.738281 C 221.820312 313.804688 209.570312 326.070312 194.503906 326.070312 "/>
<path style=" stroke:none;fill-rule:nonzero;fill:rgb(100%,100%,100%);fill-opacity:1;" d="M 257.464844 225.488281 C 257.464844 225.488281 270.050781 221.207031 278.089844 207.175781 C 286.828125 191.941406 281.339844 182.445312 279.605469 180.386719 C 274.878906 174.78125 267.574219 178.378906 266.371094 180.386719 C 265.164062 182.398438 247.742188 214.046875 257.464844 225.488281 "/>
<path style=" stroke:none;fill-rule:nonzero;fill:rgb(8.628845%,40.388489%,76.858521%);fill-opacity:1;" d="M 273.300781 180.386719 C 271.171875 180.386719 269.269531 181.566406 268.910156 182.011719 C 266.105469 186.679688 253.757812 211.300781 258.59375 221.722656 C 262.289062 219.894531 270.039062 215.164062 275.480469 205.683594 C 284.09375 190.664062 277.597656 182.660156 277.308594 182.324219 C 276.210938 181.023438 274.902344 180.386719 273.300781 180.386719 Z M 257.464844 228.5 C 256.585938 228.5 255.742188 228.125 255.164062 227.441406 C 243.46875 213.660156 263.589844 179.183594 263.792969 178.835938 C 265.117188 176.644531 269.027344 174.371094 273.300781 174.371094 C 276.695312 174.371094 279.667969 175.789062 281.917969 178.449219 C 285.480469 182.671875 289.234375 193.792969 280.703125 208.679688 C 272.195312 223.515625 258.992188 228.148438 258.425781 228.34375 C 258.113281 228.449219 257.789062 228.5 257.464844 228.5 "/>
<path style=" stroke:none;fill-rule:nonzero;fill:rgb(100%,100%,100%);fill-opacity:1;" d="M 129.6875 225.488281 C 129.6875 225.488281 117.101562 221.207031 109.0625 207.175781 C 100.3125 191.941406 105.800781 182.445312 107.535156 180.386719 C 112.265625 174.78125 119.566406 178.378906 120.773438 180.386719 C 121.976562 182.398438 139.410156 214.046875 129.6875 225.488281 "/>
<path style=" stroke:none;fill-rule:nonzero;fill:rgb(8.628845%,40.388489%,76.858521%);fill-opacity:1;" d="M 113.839844 180.386719 C 112.25 180.386719 110.941406 181.023438 109.84375 182.324219 C 109.554688 182.660156 103.046875 190.664062 111.660156 205.683594 C 117.148438 215.238281 124.863281 219.929688 128.558594 221.734375 C 133.394531 211.3125 121.046875 186.679688 118.195312 181.941406 C 117.882812 181.566406 115.980469 180.386719 113.839844 180.386719 Z M 129.6875 228.5 C 129.363281 228.5 129.039062 228.449219 128.714844 228.34375 C 128.160156 228.148438 114.960938 223.515625 106.4375 208.679688 C 97.917969 193.792969 101.675781 182.671875 105.234375 178.449219 C 107.484375 175.789062 110.457031 174.371094 113.839844 174.371094 C 118.125 174.371094 122.035156 176.644531 123.359375 178.835938 C 123.5625 179.183594 143.683594 213.660156 131.988281 227.441406 C 131.398438 228.125 130.554688 228.5 129.6875 228.5 "/>
<path style=" stroke:none;fill-rule:nonzero;fill:rgb(100%,100%,100%);fill-opacity:1;" d="M 269.796875 177.957031 C 269.796875 131.84375 235.753906 94.441406 193.746094 94.441406 C 151.746094 94.441406 117.679688 131.84375 117.679688 177.957031 C 117.679688 224.09375 151.746094 272.3125 193.746094 272.3125 C 233.214844 272.3125 269.796875 223.710938 269.796875 177.957031 "/>
<path style=" stroke:none;fill-rule:nonzero;fill:rgb(8.628845%,40.388489%,76.858521%);fill-opacity:1;" d="M 193.746094 97.449219 C 153.46875 97.449219 120.6875 133.574219 120.6875 177.957031 C 120.6875 199.953125 128.582031 222.78125 142.347656 240.605469 C 156.644531 259.113281 174.898438 269.304688 193.746094 269.304688 C 211.363281 269.304688 229.75 258.777344 244.214844 240.425781 C 258.558594 222.21875 266.789062 199.449219 266.789062 177.957031 C 266.789062 133.574219 234.023438 97.449219 193.746094 97.449219 Z M 193.746094 275.324219 C 148.496094 275.324219 114.671875 223.925781 114.671875 177.957031 C 114.671875 130.253906 150.144531 91.433594 193.746094 91.433594 C 237.34375 91.433594 272.808594 130.253906 272.808594 177.957031 C 272.808594 227.101562 233.648438 275.324219 193.746094 275.324219 "/>
<path style=" stroke:none;fill-rule:nonzero;fill:rgb(8.628845%,40.388489%,76.858521%);fill-opacity:1;" d="M 268.714844 107.582031 L 202.203125 85.320312 L 185.128906 85.320312 L 118.617188 107.582031 L 117.535156 177.957031 C 119.121094 162.300781 132.78125 121.421875 146.019531 128.039062 C 156.765625 133.40625 182.601562 135.609375 191.953125 136.246094 L 191.953125 136.464844 C 191.953125 136.464844 192.566406 136.425781 193.671875 136.367188 C 194.769531 136.425781 195.394531 136.464844 195.394531 136.464844 L 195.394531 136.246094 C 204.730469 135.609375 230.570312 133.40625 241.316406 128.039062 C 254.550781 121.421875 268.210938 162.300781 269.796875 177.957031 L 268.714844 107.582031 "/>
<path style=" stroke:none;fill-rule:nonzero;fill:rgb(8.628845%,40.388489%,76.858521%);fill-opacity:1;" d="M 244.25 124.308594 C 253.554688 124.308594 261.316406 138.328125 266.40625 152.433594 L 265.742188 109.761719 L 201.710938 88.328125 L 185.621094 88.328125 L 121.589844 109.761719 L 120.929688 152.433594 C 126.019531 138.328125 133.78125 124.308594 143.082031 124.308594 C 144.550781 124.308594 145.996094 124.660156 147.367188 125.355469 C 157.777344 130.554688 184.273438 132.710938 192.144531 133.25 C 192.410156 133.261719 192.660156 133.324219 192.890625 133.394531 C 193.070312 133.382812 193.261719 133.371094 193.480469 133.359375 C 193.601562 133.347656 193.734375 133.347656 193.851562 133.359375 C 194.070312 133.371094 194.261719 133.382812 194.441406 133.394531 C 194.683594 133.324219 194.925781 133.261719 195.1875 133.25 C 203.058594 132.710938 229.558594 130.554688 239.96875 125.355469 C 241.339844 124.660156 242.78125 124.308594 244.25 124.308594 Z M 269.796875 180.964844 C 268.269531 180.964844 266.972656 179.808594 266.8125 178.269531 C 265.105469 161.507812 252.84375 130.328125 244.25 130.328125 C 243.710938 130.328125 243.203125 130.457031 242.664062 130.722656 C 231.929688 136.089844 207.726562 138.390625 196.691406 139.171875 C 196.246094 139.386719 195.742188 139.496094 195.238281 139.472656 C 195.238281 139.472656 194.671875 139.4375 193.671875 139.375 C 192.660156 139.4375 192.097656 139.472656 192.097656 139.472656 C 191.589844 139.496094 191.085938 139.386719 190.640625 139.171875 C 179.605469 138.390625 155.40625 136.089844 144.671875 130.722656 C 144.140625 130.457031 143.625 130.328125 143.082031 130.328125 C 134.488281 130.328125 122.226562 161.507812 120.519531 178.269531 C 120.363281 179.871094 118.992188 181.0625 117.355469 180.964844 C 115.742188 180.867188 114.503906 179.53125 114.527344 177.921875 L 115.609375 107.535156 C 115.632812 106.257812 116.453125 105.128906 117.667969 104.730469 L 184.179688 82.46875 C 184.492188 82.359375 184.804688 82.3125 185.128906 82.3125 L 202.203125 82.3125 C 202.53125 82.3125 202.84375 82.359375 203.15625 82.46875 L 269.679688 104.730469 C 270.882812 105.128906 271.710938 106.257812 271.722656 107.535156 L 272.808594 177.921875 C 272.832031 179.53125 271.589844 180.867188 269.980469 180.964844 L 269.796875 180.964844 "/>
<path style=" stroke:none;fill-rule:nonzero;fill:rgb(8.628845%,40.388489%,76.858521%);fill-opacity:1;" d="M 253.46875 176.546875 C 252.914062 176.546875 252.363281 176.390625 251.855469 176.078125 C 230.386719 162.398438 211.542969 173.734375 210.761719 174.226562 C 209.339844 175.09375 207.488281 174.660156 206.621094 173.25 C 205.742188 171.84375 206.175781 169.988281 207.570312 169.113281 C 208.5 168.546875 230.339844 155.238281 255.09375 171 C 256.488281 171.890625 256.898438 173.757812 256.007812 175.152344 C 255.429688 176.054688 254.46875 176.546875 253.46875 176.546875 "/>
<path style=" stroke:none;fill-rule:nonzero;fill:rgb(8.628845%,40.388489%,76.858521%);fill-opacity:1;" d="M 244.285156 189.882812 C 243.746094 189.882812 243.203125 189.738281 242.710938 189.4375 C 229.894531 181.542969 219.941406 189.171875 219.847656 189.246094 C 218.535156 190.265625 216.644531 190.039062 215.609375 188.738281 C 214.585938 187.4375 214.816406 185.539062 216.128906 184.515625 C 216.65625 184.09375 229.523438 174.238281 245.863281 184.324219 C 247.285156 185.1875 247.714844 187.042969 246.851562 188.460938 C 246.273438 189.375 245.296875 189.882812 244.285156 189.882812 "/>
<path style=" stroke:none;fill-rule:nonzero;fill:rgb(8.628845%,40.388489%,76.858521%);fill-opacity:1;" d="M 139.785156 189.882812 C 138.773438 189.882812 137.789062 189.375 137.222656 188.460938 C 136.34375 187.042969 136.789062 185.1875 138.207031 184.324219 C 154.539062 174.238281 167.402344 184.082031 167.945312 184.515625 C 169.257812 185.539062 169.472656 187.4375 168.449219 188.738281 C 167.425781 190.039062 165.539062 190.265625 164.238281 189.257812 C 163.816406 188.929688 154.035156 181.625 141.363281 189.4375 C 140.867188 189.738281 140.328125 189.882812 139.785156 189.882812 "/>
<path style=" stroke:none;fill-rule:nonzero;fill:rgb(8.628845%,40.388489%,76.858521%);fill-opacity:1;" d="M 174.492188 175.984375 C 173.863281 175.984375 173.226562 175.789062 172.699219 175.394531 C 171.941406 174.839844 154.105469 161.988281 131.589844 173.828125 C 130.121094 174.609375 128.292969 174.046875 127.523438 172.578125 C 126.753906 171.109375 127.304688 169.28125 128.785156 168.511719 C 154.753906 154.851562 175.429688 169.917969 176.296875 170.566406 C 177.621094 171.566406 177.894531 173.445312 176.898438 174.78125 C 176.308594 175.574219 175.40625 175.984375 174.492188 175.984375 "/>
<path style=" stroke:none;fill-rule:nonzero;fill:rgb(8.628845%,40.388489%,76.858521%);fill-opacity:1;" d="M 193.105469 224.671875 C 189.847656 224.671875 187.390625 223.515625 187.246094 223.445312 C 185.753906 222.722656 185.128906 220.917969 185.851562 219.425781 C 186.574219 217.933594 188.355469 217.308594 189.847656 218.015625 C 189.953125 218.066406 193.058594 219.4375 195.972656 218.027344 C 197.464844 217.308594 199.257812 217.933594 199.992188 219.425781 C 200.710938 220.917969 200.085938 222.722656 198.582031 223.445312 C 196.679688 224.371094 194.78125 224.671875 193.105469 224.671875 "/>
<path style=" stroke:none;fill-rule:nonzero;fill:rgb(8.628845%,40.388489%,76.858521%);fill-opacity:1;" d="M 191.84375 238.582031 C 183.550781 238.582031 178.003906 236.105469 177.667969 235.949219 C 176.152344 235.261719 175.488281 233.46875 176.1875 231.964844 C 176.875 230.460938 178.65625 229.785156 180.160156 230.472656 C 180.351562 230.554688 190.941406 235.152344 204.203125 230.386719 C 205.765625 229.824219 207.488281 230.640625 208.054688 232.191406 C 208.617188 233.769531 207.800781 235.492188 206.234375 236.042969 C 200.953125 237.945312 196.042969 238.582031 191.84375 238.582031 "/>
<path style=" stroke:none;fill-rule:nonzero;fill:rgb(8.628845%,40.388489%,76.858521%);fill-opacity:1;" d="M 234.636719 194.058594 C 234.636719 199.652344 231.398438 204.203125 227.390625 204.203125 C 223.382812 204.203125 220.148438 199.652344 220.148438 194.058594 C 220.148438 188.4375 223.382812 183.890625 227.390625 183.890625 C 231.398438 183.890625 234.636719 188.4375 234.636719 194.058594 "/>
<path style=" stroke:none;fill-rule:nonzero;fill:rgb(8.628845%,40.388489%,76.858521%);fill-opacity:1;" d="M 164.273438 194.058594 C 164.273438 199.652344 161.023438 204.203125 157.03125 204.203125 C 153.023438 204.203125 149.773438 199.652344 149.773438 194.058594 C 149.773438 188.4375 153.023438 183.890625 157.03125 183.890625 C 161.023438 183.890625 164.273438 188.4375 164.273438 194.058594 "/>
</g>
</svg>
