<?xml version="1.0" encoding="UTF-8"?>
<svg xmlns="http://www.w3.org/2000/svg" xmlns:xlink="http://www.w3.org/1999/xlink" width="384pt" height="383.999986pt" viewBox="0 0 384 383.999986" version="1.2">
<defs>
<clipPath id="clip1">
  <path d="M 68 65.59375 L 321 65.59375 L 321 318.25 L 68 318.25 Z M 68 65.59375 "/>
</clipPath>
</defs>
<g id="surface1">
<g clip-path="url(#clip1)" clip-rule="nonzero">
<path style=" stroke:none;fill-rule:nonzero;fill:rgb(0%,0%,0%);fill-opacity:1;" d="M 247.074219 318.296875 C 241.957031 318.300781 236.929688 317.636719 231.988281 316.308594 C 227.046875 314.984375 222.363281 313.039062 217.933594 310.472656 C 203.167969 302.140625 189.039062 292.839844 175.550781 282.566406 C 162.0625 272.292969 149.339844 261.144531 137.382812 249.125 C 125.363281 237.164062 114.21875 224.4375 103.945312 210.949219 C 93.675781 197.457031 84.375 183.328125 76.042969 168.5625 C 75.246094 167.183594 74.507812 165.773438 73.828125 164.332031 C 73.148438 162.894531 72.527344 161.429688 71.964844 159.9375 C 71.40625 158.449219 70.90625 156.9375 70.46875 155.40625 C 70.03125 153.878906 69.660156 152.332031 69.347656 150.769531 C 69.039062 149.207031 68.792969 147.636719 68.609375 146.054688 C 68.425781 144.472656 68.308594 142.886719 68.257812 141.296875 C 68.207031 139.703125 68.21875 138.113281 68.296875 136.523438 C 68.375 134.933594 68.515625 133.347656 68.726562 131.769531 C 68.933594 130.191406 69.203125 128.625 69.539062 127.066406 C 69.875 125.511719 70.273438 123.972656 70.734375 122.449219 C 71.199219 120.925781 71.71875 119.421875 72.304688 117.941406 C 72.890625 116.460938 73.535156 115.003906 74.238281 113.578125 C 74.941406 112.148438 75.703125 110.753906 76.519531 109.386719 C 77.335938 108.019531 78.210938 106.691406 79.136719 105.394531 C 80.0625 104.101562 81.039062 102.847656 82.070312 101.632812 C 83.097656 100.417969 84.175781 99.246094 85.300781 98.121094 L 113.503906 69.914062 C 113.863281 69.554688 114.238281 69.21875 114.632812 68.902344 C 115.03125 68.585938 115.441406 68.292969 115.871094 68.027344 C 116.296875 67.757812 116.742188 67.511719 117.195312 67.292969 C 117.652344 67.074219 118.121094 66.882812 118.597656 66.714844 C 119.074219 66.550781 119.5625 66.410156 120.054688 66.296875 C 120.546875 66.1875 121.046875 66.101562 121.546875 66.046875 C 122.050781 65.992188 122.554688 65.964844 123.0625 65.964844 C 123.566406 65.96875 124.070312 65.996094 124.574219 66.054688 C 125.078125 66.113281 125.574219 66.199219 126.066406 66.316406 C 126.558594 66.429688 127.046875 66.570312 127.523438 66.742188 C 128 66.910156 128.464844 67.105469 128.917969 67.328125 C 129.375 67.546875 129.816406 67.796875 130.242188 68.066406 C 130.667969 68.339844 131.078125 68.632812 131.472656 68.949219 C 131.867188 69.269531 132.242188 69.605469 132.597656 69.964844 C 132.953125 70.328125 133.285156 70.707031 133.597656 71.101562 C 133.914062 71.5 134.203125 71.914062 134.46875 72.34375 L 162.269531 117.257812 C 162.933594 118.324219 163.503906 119.441406 163.980469 120.601562 C 164.457031 121.765625 164.835938 122.960938 165.109375 124.1875 C 165.386719 125.410156 165.558594 126.652344 165.621094 127.90625 C 165.6875 129.160156 165.648438 130.414062 165.503906 131.660156 C 165.359375 132.910156 165.113281 134.136719 164.761719 135.34375 C 164.410156 136.550781 163.957031 137.71875 163.410156 138.847656 C 162.859375 139.980469 162.21875 141.054688 161.488281 142.078125 C 160.757812 143.101562 159.949219 144.054688 159.058594 144.941406 L 144.148438 159.851562 C 143.574219 160.414062 143.191406 161.085938 143 161.867188 C 142.804688 162.648438 142.828125 163.421875 143.074219 164.1875 C 145.828125 172.34375 153.691406 189.28125 175.457031 211.050781 C 197.222656 232.816406 214.148438 240.683594 222.304688 243.4375 C 223.070312 243.683594 223.847656 243.707031 224.628906 243.511719 C 225.410156 243.320312 226.082031 242.933594 226.648438 242.359375 L 241.554688 227.449219 C 242.441406 226.558594 243.394531 225.75 244.417969 225.019531 C 245.4375 224.289062 246.515625 223.648438 247.644531 223.101562 C 248.777344 222.550781 249.945312 222.101562 251.148438 221.75 C 252.355469 221.398438 253.582031 221.148438 254.832031 221.003906 C 256.078125 220.859375 257.328125 220.820312 258.585938 220.882812 C 259.839844 220.949219 261.078125 221.121094 262.304688 221.394531 C 263.53125 221.671875 264.726562 222.046875 265.886719 222.523438 C 267.050781 223 268.164062 223.570312 269.230469 224.234375 L 314.136719 252.042969 C 314.570312 252.308594 314.984375 252.597656 315.378906 252.910156 C 315.777344 253.222656 316.15625 253.558594 316.515625 253.914062 C 316.875 254.269531 317.214844 254.644531 317.53125 255.035156 C 317.851562 255.429688 318.144531 255.839844 318.417969 256.269531 C 318.6875 256.695312 318.933594 257.136719 319.15625 257.589844 C 319.378906 258.046875 319.574219 258.511719 319.742188 258.988281 C 319.910156 259.464844 320.054688 259.949219 320.167969 260.441406 C 320.28125 260.9375 320.367188 261.433594 320.425781 261.9375 C 320.484375 262.4375 320.515625 262.945312 320.515625 263.449219 C 320.515625 263.957031 320.492188 264.460938 320.433594 264.960938 C 320.378906 265.464844 320.296875 265.964844 320.183594 266.457031 C 320.074219 266.949219 319.933594 267.4375 319.765625 267.914062 C 319.601562 268.390625 319.40625 268.859375 319.1875 269.316406 C 318.96875 269.769531 318.726562 270.214844 318.457031 270.640625 C 318.1875 271.070312 317.894531 271.484375 317.582031 271.878906 C 317.265625 272.273438 316.929688 272.652344 316.570312 273.007812 L 288.367188 301.214844 C 285.65625 303.925781 282.703125 306.34375 279.515625 308.472656 C 276.328125 310.605469 272.960938 312.402344 269.421875 313.867188 C 265.878906 315.332031 262.226562 316.4375 258.464844 317.183594 C 254.707031 317.929688 250.90625 318.300781 247.074219 318.296875 Z M 123.015625 74.945312 C 121.777344 74.945312 120.722656 75.382812 119.847656 76.257812 L 91.648438 104.464844 C 90.695312 105.417969 89.785156 106.410156 88.914062 107.4375 C 88.042969 108.464844 87.214844 109.527344 86.429688 110.621094 C 85.644531 111.714844 84.910156 112.84375 84.214844 113.996094 C 83.523438 115.152344 82.878906 116.335938 82.285156 117.542969 C 81.691406 118.75 81.144531 119.984375 80.648438 121.234375 C 80.15625 122.488281 79.710938 123.757812 79.320312 125.046875 C 78.929688 126.335938 78.59375 127.640625 78.308594 128.957031 C 78.023438 130.273438 77.796875 131.601562 77.621094 132.9375 C 77.445312 134.269531 77.324219 135.613281 77.257812 136.957031 C 77.191406 138.304688 77.179688 139.648438 77.222656 140.996094 C 77.269531 142.339844 77.367188 143.683594 77.519531 145.023438 C 77.675781 146.359375 77.882812 147.691406 78.144531 149.011719 C 78.410156 150.332031 78.722656 151.640625 79.09375 152.9375 C 79.464844 154.230469 79.886719 155.507812 80.359375 156.769531 C 80.835938 158.03125 81.359375 159.269531 81.933594 160.488281 C 82.511719 161.707031 83.136719 162.898438 83.808594 164.066406 C 91.945312 178.492188 101.03125 192.296875 111.066406 205.480469 C 121.101562 218.660156 131.988281 231.09375 143.726562 242.78125 C 155.410156 254.523438 167.84375 265.410156 181.023438 275.445312 C 194.203125 285.480469 208.003906 294.570312 222.433594 302.707031 C 223.597656 303.382812 224.789062 304.007812 226.007812 304.582031 C 227.226562 305.160156 228.464844 305.683594 229.726562 306.160156 C 230.988281 306.632812 232.265625 307.054688 233.558594 307.425781 C 234.855469 307.796875 236.164062 308.113281 237.484375 308.375 C 238.804688 308.636719 240.132812 308.84375 241.472656 309 C 242.8125 309.152344 244.152344 309.253906 245.5 309.296875 C 246.84375 309.339844 248.191406 309.332031 249.535156 309.265625 C 250.882812 309.199219 252.222656 309.078125 253.558594 308.902344 C 254.894531 308.726562 256.21875 308.496094 257.535156 308.210938 C 258.851562 307.925781 260.15625 307.589844 261.445312 307.199219 C 262.734375 306.808594 264.003906 306.363281 265.257812 305.871094 C 266.507812 305.375 267.738281 304.828125 268.949219 304.234375 C 270.15625 303.640625 271.335938 302.996094 272.492188 302.300781 C 273.648438 301.609375 274.773438 300.871094 275.867188 300.085938 C 276.964844 299.304688 278.023438 298.476562 279.050781 297.605469 C 280.078125 296.730469 281.070312 295.820312 282.023438 294.867188 L 310.226562 266.660156 C 310.464844 266.421875 310.671875 266.160156 310.851562 265.871094 C 311.03125 265.585938 311.179688 265.285156 311.289062 264.964844 C 311.402344 264.644531 311.476562 264.316406 311.511719 263.980469 C 311.546875 263.644531 311.546875 263.308594 311.507812 262.972656 C 311.46875 262.636719 311.394531 262.308594 311.28125 261.988281 C 311.167969 261.671875 311.019531 261.371094 310.839844 261.082031 C 310.65625 260.796875 310.445312 260.535156 310.207031 260.300781 C 309.964844 260.0625 309.703125 259.851562 309.414062 259.675781 L 264.507812 231.867188 C 263.867188 231.46875 263.199219 231.125 262.5 230.839844 C 261.800781 230.554688 261.085938 230.328125 260.351562 230.164062 C 259.613281 229.996094 258.871094 229.894531 258.117188 229.855469 C 257.363281 229.816406 256.613281 229.839844 255.863281 229.925781 C 255.117188 230.015625 254.378906 230.164062 253.65625 230.375 C 252.933594 230.585938 252.230469 230.855469 251.554688 231.183594 C 250.875 231.515625 250.230469 231.898438 249.617188 232.335938 C 249.003906 232.773438 248.429688 233.261719 247.898438 233.796875 L 232.992188 248.707031 C 232.121094 249.578125 231.148438 250.3125 230.074219 250.914062 C 229 251.511719 227.867188 251.957031 226.667969 252.242188 C 225.472656 252.527344 224.257812 252.644531 223.03125 252.59375 C 221.800781 252.542969 220.601562 252.324219 219.433594 251.941406 C 210.539062 248.9375 192.164062 240.453125 169.113281 217.398438 C 146.058594 194.339844 137.574219 175.960938 134.570312 167.0625 C 134.1875 165.890625 133.96875 164.695312 133.917969 163.464844 C 133.867188 162.234375 133.984375 161.023438 134.269531 159.824219 C 134.554688 158.628906 135 157.492188 135.597656 156.421875 C 136.199219 155.347656 136.933594 154.375 137.804688 153.503906 L 152.710938 138.597656 C 153.246094 138.0625 153.734375 137.492188 154.171875 136.878906 C 154.609375 136.265625 154.996094 135.617188 155.324219 134.941406 C 155.652344 134.261719 155.921875 133.5625 156.132812 132.835938 C 156.347656 132.113281 156.496094 131.378906 156.582031 130.628906 C 156.667969 129.878906 156.691406 129.128906 156.652344 128.375 C 156.613281 127.621094 156.511719 126.878906 156.347656 126.140625 C 156.179688 125.40625 155.957031 124.6875 155.667969 123.992188 C 155.382812 123.292969 155.039062 122.625 154.640625 121.984375 L 126.839844 77.070312 C 126.480469 76.484375 126.011719 76.007812 125.433594 75.640625 C 124.851562 75.273438 124.222656 75.050781 123.542969 74.976562 C 123.367188 74.953125 123.191406 74.945312 123.015625 74.945312 Z M 123.015625 74.945312 "/>
</g>
</g>
</svg>
