<?xml version="1.0" encoding="UTF-8"?>
<svg xmlns="http://www.w3.org/2000/svg" xmlns:xlink="http://www.w3.org/1999/xlink" width="384pt" height="383.999986pt" viewBox="0 0 384 383.999986" version="1.2">
<defs>
<clipPath id="clip1">
  <path d="M 19.199219 49.363281 L 364.949219 49.363281 L 364.949219 334.363281 L 19.199219 334.363281 Z M 19.199219 49.363281 "/>
</clipPath>
</defs>
<g id="surface1">
<path style=" stroke:none;fill-rule:nonzero;fill:rgb(100%,100%,100%);fill-opacity:1;" d="M 317.535156 132.449219 C 314.109375 132.449219 311.378906 129.722656 311.378906 126.292969 C 311.378906 122.933594 314.109375 120.136719 317.535156 120.136719 C 320.960938 120.136719 323.6875 122.933594 323.6875 126.292969 C 323.6875 129.722656 320.960938 132.449219 317.535156 132.449219 Z M 317.535156 132.449219 "/>
<g clip-path="url(#clip1)" clip-rule="nonzero">
<path style=" stroke:none;fill-rule:nonzero;fill:rgb(99.609375%,99.609375%,99.609375%);fill-opacity:1;" d="M 31.578125 322.625 L 352.570312 322.625 L 352.570312 91.660156 L 263.757812 91.660156 C 261.027344 91.660156 258.722656 89.839844 257.882812 87.390625 L 247.742188 61.644531 L 136.410156 61.644531 L 126.128906 87.742188 C 125.148438 90.121094 122.839844 91.660156 120.394531 91.660156 L 31.578125 91.660156 Z M 358.726562 335.007812 L 25.425781 335.007812 C 21.996094 335.007812 19.199219 332.210938 19.199219 328.78125 L 19.199219 85.5 C 19.199219 82.074219 21.996094 79.273438 25.425781 79.273438 L 116.199219 79.273438 L 126.339844 53.527344 C 127.175781 51.078125 129.484375 49.257812 132.210938 49.257812 L 251.9375 49.257812 C 254.386719 49.328125 256.691406 50.796875 257.671875 53.246094 L 267.953125 79.273438 L 358.726562 79.273438 C 362.152344 79.273438 364.949219 82.074219 364.949219 85.5 L 364.949219 328.78125 C 364.949219 332.210938 362.152344 335.007812 358.726562 335.007812 Z M 358.726562 335.007812 "/>
</g>
<path style=" stroke:none;fill-rule:nonzero;fill:rgb(99.609375%,99.609375%,99.609375%);fill-opacity:1;" d="M 192.074219 131.121094 C 213.054688 131.121094 232.078125 139.585938 245.851562 153.371094 C 259.558594 167.15625 268.09375 186.117188 268.09375 207.175781 C 268.09375 228.167969 259.558594 247.128906 245.851562 260.910156 C 232.078125 274.695312 213.054688 283.230469 192.074219 283.230469 C 171.09375 283.230469 152.074219 274.695312 138.296875 260.910156 C 124.589844 247.128906 116.058594 228.167969 116.058594 207.175781 C 116.058594 186.117188 124.589844 167.15625 138.296875 153.371094 C 152.074219 139.585938 171.09375 131.121094 192.074219 131.121094 Z M 237.113281 162.117188 C 225.574219 150.570312 209.628906 143.433594 192.074219 143.433594 C 174.523438 143.433594 158.578125 150.570312 147.039062 162.117188 C 135.5 173.589844 128.367188 189.542969 128.367188 207.175781 C 128.367188 224.738281 135.5 240.691406 147.039062 252.164062 C 158.578125 263.710938 174.523438 270.847656 192.074219 270.847656 C 209.628906 270.847656 225.574219 263.710938 237.113281 252.164062 C 248.652344 240.691406 255.785156 224.738281 255.785156 207.175781 C 255.785156 189.542969 248.652344 173.589844 237.113281 162.117188 Z M 237.113281 162.117188 "/>
</g>
</svg>
