<?xml version="1.0" encoding="UTF-8"?>
<svg xmlns="http://www.w3.org/2000/svg" xmlns:xlink="http://www.w3.org/1999/xlink" width="384pt" height="383.999986pt" viewBox="0 0 384 383.999986" version="1.2">
<defs>
<clipPath id="clip1">
  <path d="M 99 10 L 285 10 L 285 374 L 99 374 Z M 99 10 "/>
</clipPath>
<clipPath id="clip2">
  <path d="M -20.5625 171.433594 L 192.097656 -41.226562 L 404.761719 171.433594 L 192.097656 384.097656 Z M -20.5625 171.433594 "/>
</clipPath>
<clipPath id="clip3">
  <path d="M -20.5625 171.433594 L 192.097656 -41.226562 L 404.761719 171.433594 L 192.097656 384.097656 Z M -20.5625 171.433594 "/>
</clipPath>
</defs>
<g id="surface1">
<g clip-path="url(#clip1)" clip-rule="nonzero">
<g clip-path="url(#clip2)" clip-rule="nonzero">
<g clip-path="url(#clip3)" clip-rule="nonzero">
<path style=" stroke:none;fill-rule:nonzero;fill:rgb(98.81897%,21.179199%,23.139954%);fill-opacity:1;" d="M 261.578125 272.828125 L 207.53125 272.777344 L 207.53125 194.164062 C 209.421875 193.847656 211.296875 193.46875 213.160156 193.035156 C 215.023438 192.597656 216.875 192.105469 218.707031 191.554688 C 220.539062 191.007812 222.355469 190.402344 224.152344 189.738281 C 225.945312 189.074219 227.71875 188.359375 229.472656 187.585938 C 231.222656 186.816406 232.949219 185.988281 234.648438 185.109375 C 236.351562 184.230469 238.023438 183.300781 239.664062 182.316406 C 241.308594 181.335938 242.917969 180.300781 244.496094 179.21875 C 246.074219 178.136719 247.617188 177.007812 249.125 175.828125 C 250.636719 174.648438 252.105469 173.425781 253.539062 172.15625 C 254.972656 170.886719 256.363281 169.574219 257.714844 168.21875 C 259.066406 166.863281 260.375 165.464844 261.640625 164.03125 C 262.902344 162.59375 264.121094 161.117188 265.296875 159.605469 C 266.46875 158.09375 267.59375 156.546875 268.671875 154.964844 C 269.75 153.382812 270.777344 151.769531 271.753906 150.121094 C 272.730469 148.476562 273.65625 146.800781 274.53125 145.097656 C 275.40625 143.394531 276.226562 141.667969 276.992188 139.914062 C 277.757812 138.160156 278.46875 136.382812 279.125 134.585938 C 279.78125 132.789062 280.382812 130.972656 280.925781 129.136719 C 281.46875 127.300781 281.957031 125.449219 282.386719 123.585938 C 282.816406 121.71875 283.1875 119.84375 283.5 117.953125 C 283.8125 116.066406 284.066406 114.167969 284.261719 112.265625 C 284.457031 110.359375 284.59375 108.453125 284.667969 106.539062 C 284.746094 104.628906 284.765625 102.714844 284.722656 100.800781 C 284.679688 98.886719 284.582031 96.976562 284.421875 95.070312 C 284.261719 93.160156 284.042969 91.261719 283.765625 89.367188 C 283.484375 87.472656 283.148438 85.589844 282.753906 83.714844 C 282.359375 81.84375 281.910156 79.984375 281.398438 78.140625 C 280.890625 76.292969 280.324219 74.464844 279.699219 72.65625 C 279.078125 70.847656 278.398438 69.058594 277.664062 67.289062 C 276.929688 65.523438 276.140625 63.777344 275.300781 62.058594 C 274.457031 60.339844 273.5625 58.648438 272.617188 56.984375 C 271.671875 55.320312 270.671875 53.6875 269.625 52.085938 C 268.578125 50.484375 267.480469 48.917969 266.335938 47.382812 C 265.191406 45.851562 263.996094 44.355469 262.761719 42.894531 C 261.523438 41.433594 260.238281 40.011719 258.914062 38.632812 C 257.589844 37.253906 256.21875 35.914062 254.8125 34.617188 C 253.402344 33.324219 251.953125 32.074219 250.46875 30.867188 C 248.980469 29.660156 247.460938 28.5 245.902344 27.390625 C 244.34375 26.277344 242.75 25.214844 241.128906 24.203125 C 239.503906 23.191406 237.847656 22.226562 236.164062 21.316406 C 234.480469 20.40625 232.773438 19.550781 231.035156 18.746094 C 229.296875 17.941406 227.539062 17.191406 225.753906 16.496094 C 223.972656 15.800781 222.167969 15.160156 220.34375 14.578125 C 218.523438 13.992188 216.683594 13.46875 214.828125 12.996094 C 212.972656 12.527344 211.101562 12.117188 209.222656 11.761719 C 207.339844 11.410156 205.449219 11.113281 203.550781 10.878906 C 201.652344 10.640625 199.746094 10.460938 197.835938 10.34375 C 195.925781 10.226562 194.011719 10.167969 192.097656 10.167969 C 190.183594 10.167969 188.273438 10.226562 186.363281 10.34375 C 184.449219 10.460938 182.546875 10.640625 180.648438 10.878906 C 178.746094 11.113281 176.855469 11.410156 174.976562 11.761719 C 173.09375 12.117188 171.226562 12.527344 169.371094 12.996094 C 167.515625 13.46875 165.675781 13.992188 163.851562 14.578125 C 162.027344 15.160156 160.226562 15.800781 158.441406 16.496094 C 156.660156 17.191406 154.898438 17.941406 153.164062 18.746094 C 151.425781 19.550781 149.714844 20.40625 148.03125 21.316406 C 146.347656 22.226562 144.695312 23.191406 143.070312 24.203125 C 141.445312 25.214844 139.855469 26.277344 138.296875 27.390625 C 136.738281 28.5 135.214844 29.660156 133.726562 30.867188 C 132.242188 32.074219 130.792969 33.324219 129.386719 34.617188 C 127.976562 35.914062 126.609375 37.253906 125.28125 38.632812 C 123.957031 40.011719 122.675781 41.433594 121.4375 42.894531 C 120.199219 44.355469 119.007812 45.851562 117.863281 47.382812 C 116.71875 48.917969 115.621094 50.484375 114.570312 52.085938 C 113.523438 53.6875 112.527344 55.320312 111.578125 56.984375 C 110.632812 58.648438 109.738281 60.339844 108.898438 62.058594 C 108.054688 63.777344 107.265625 65.523438 106.53125 67.289062 C 105.796875 69.058594 105.121094 70.847656 104.496094 72.65625 C 103.875 74.464844 103.308594 76.292969 102.796875 78.140625 C 102.289062 79.984375 101.835938 81.84375 101.441406 83.714844 C 101.046875 85.589844 100.710938 87.472656 100.433594 89.367188 C 100.15625 91.261719 99.9375 93.160156 99.777344 95.070312 C 99.617188 96.976562 99.515625 98.886719 99.472656 100.800781 C 99.433594 102.714844 99.449219 104.628906 99.527344 106.539062 C 99.605469 108.453125 99.738281 110.359375 99.933594 112.265625 C 100.128906 114.167969 100.382812 116.066406 100.699219 117.953125 C 101.011719 119.84375 101.382812 121.71875 101.808594 123.585938 C 102.238281 125.449219 102.726562 127.300781 103.269531 129.136719 C 103.8125 130.972656 104.414062 132.789062 105.070312 134.585938 C 105.726562 136.382812 106.4375 138.160156 107.203125 139.914062 C 107.972656 141.667969 108.792969 143.394531 109.664062 145.097656 C 110.539062 146.800781 111.464844 148.476562 112.441406 150.121094 C 113.417969 151.769531 114.445312 153.382812 115.523438 154.964844 C 116.601562 156.546875 117.726562 158.09375 118.902344 159.605469 C 120.074219 161.117188 121.292969 162.59375 122.558594 164.03125 C 123.824219 165.464844 125.128906 166.863281 126.480469 168.21875 C 127.832031 169.574219 129.226562 170.886719 130.65625 172.15625 C 132.089844 173.425781 133.5625 174.648438 135.070312 175.828125 C 136.578125 177.003906 138.121094 178.136719 139.699219 179.21875 C 141.28125 180.300781 142.890625 181.335938 144.53125 182.316406 C 146.175781 183.300781 147.847656 184.230469 149.546875 185.109375 C 151.246094 185.988281 152.972656 186.8125 154.726562 187.585938 C 156.476562 188.359375 158.25 189.074219 160.046875 189.738281 C 161.84375 190.402344 163.65625 191.007812 165.488281 191.554688 C 167.324219 192.105469 169.171875 192.597656 171.035156 193.035156 C 172.902344 193.46875 174.777344 193.847656 176.664062 194.164062 L 176.664062 272.777344 L 122.617188 272.828125 C 122.109375 272.824219 121.609375 272.871094 121.113281 272.96875 C 120.617188 273.066406 120.132812 273.210938 119.667969 273.402344 C 119.199219 273.59375 118.753906 273.832031 118.332031 274.109375 C 117.914062 274.390625 117.523438 274.710938 117.164062 275.066406 C 116.808594 275.425781 116.488281 275.816406 116.207031 276.234375 C 115.925781 276.65625 115.691406 277.101562 115.5 277.570312 C 115.304688 278.039062 115.160156 278.519531 115.066406 279.015625 C 114.96875 279.511719 114.921875 280.015625 114.925781 280.519531 L 114.875 295.953125 C 114.875 296.464844 114.921875 296.96875 115.019531 297.464844 C 115.117188 297.964844 115.265625 298.449219 115.457031 298.921875 C 115.652344 299.390625 115.890625 299.839844 116.171875 300.261719 C 116.457031 300.683594 116.777344 301.074219 117.136719 301.4375 C 117.496094 301.796875 117.886719 302.117188 118.3125 302.398438 C 118.734375 302.679688 119.179688 302.917969 119.652344 303.113281 C 120.121094 303.308594 120.605469 303.453125 121.105469 303.550781 C 121.605469 303.648438 122.109375 303.699219 122.617188 303.695312 L 176.664062 303.648438 L 176.664062 365.484375 C 176.660156 365.992188 176.707031 366.492188 176.804688 366.988281 C 176.902344 367.484375 177.046875 367.96875 177.238281 368.4375 C 177.429688 368.902344 177.667969 369.347656 177.945312 369.769531 C 178.226562 370.191406 178.546875 370.578125 178.902344 370.9375 C 179.261719 371.296875 179.652344 371.613281 180.074219 371.894531 C 180.492188 372.175781 180.9375 372.410156 181.40625 372.605469 C 181.875 372.796875 182.355469 372.941406 182.851562 373.039062 C 183.347656 373.132812 183.851562 373.179688 184.355469 373.179688 L 199.839844 373.179688 C 200.347656 373.179688 200.847656 373.132812 201.34375 373.039062 C 201.839844 372.941406 202.324219 372.796875 202.789062 372.605469 C 203.257812 372.410156 203.703125 372.175781 204.125 371.894531 C 204.546875 371.613281 204.933594 371.296875 205.292969 370.9375 C 205.648438 370.578125 205.96875 370.191406 206.25 369.769531 C 206.53125 369.347656 206.765625 368.902344 206.957031 368.4375 C 207.152344 367.96875 207.296875 367.484375 207.390625 366.988281 C 207.488281 366.492188 207.535156 365.992188 207.53125 365.484375 L 207.53125 303.648438 L 261.578125 303.695312 C 262.089844 303.699219 262.59375 303.648438 263.089844 303.550781 C 263.589844 303.453125 264.074219 303.308594 264.546875 303.113281 C 265.015625 302.917969 265.460938 302.679688 265.886719 302.398438 C 266.308594 302.117188 266.699219 301.796875 267.0625 301.4375 C 267.421875 301.074219 267.742188 300.683594 268.023438 300.261719 C 268.304688 299.839844 268.542969 299.390625 268.738281 298.921875 C 268.933594 298.449219 269.078125 297.964844 269.175781 297.464844 C 269.273438 296.96875 269.324219 296.464844 269.320312 295.953125 L 269.273438 280.519531 C 269.273438 280.015625 269.226562 279.511719 269.132812 279.015625 C 269.035156 278.519531 268.890625 278.039062 268.699219 277.570312 C 268.503906 277.101562 268.269531 276.65625 267.988281 276.234375 C 267.707031 275.816406 267.390625 275.425781 267.03125 275.066406 C 266.675781 274.710938 266.285156 274.390625 265.863281 274.109375 C 265.441406 273.832031 264.996094 273.59375 264.53125 273.402344 C 264.0625 273.210938 263.578125 273.066406 263.082031 272.96875 C 262.585938 272.871094 262.085938 272.824219 261.578125 272.828125 Z M 192.097656 164.734375 C 190.074219 164.734375 188.058594 164.632812 186.046875 164.433594 C 184.03125 164.234375 182.035156 163.9375 180.050781 163.542969 C 178.066406 163.148438 176.109375 162.65625 174.171875 162.070312 C 172.238281 161.480469 170.335938 160.800781 168.46875 160.023438 C 166.597656 159.25 164.773438 158.386719 162.988281 157.433594 C 161.207031 156.476562 159.472656 155.4375 157.792969 154.316406 C 156.113281 153.191406 154.488281 151.988281 152.925781 150.703125 C 151.363281 149.421875 149.867188 148.0625 148.4375 146.632812 C 147.007812 145.203125 145.652344 143.703125 144.367188 142.140625 C 143.085938 140.578125 141.882812 138.953125 140.757812 137.273438 C 139.636719 135.589844 138.597656 133.859375 137.644531 132.074219 C 136.691406 130.289062 135.828125 128.464844 135.054688 126.59375 C 134.28125 124.726562 133.601562 122.824219 133.015625 120.886719 C 132.429688 118.953125 131.9375 116.992188 131.542969 115.007812 C 131.148438 113.027344 130.851562 111.027344 130.65625 109.015625 C 130.457031 107.003906 130.359375 104.984375 130.359375 102.960938 C 130.359375 100.9375 130.457031 98.921875 130.65625 96.910156 C 130.855469 94.894531 131.152344 92.898438 131.546875 90.914062 C 131.941406 88.929688 132.433594 86.972656 133.019531 85.035156 C 133.605469 83.101562 134.289062 81.199219 135.0625 79.332031 C 135.835938 77.460938 136.699219 75.636719 137.652344 73.851562 C 138.605469 72.066406 139.644531 70.335938 140.769531 68.652344 C 141.890625 66.972656 143.097656 65.351562 144.378906 63.785156 C 145.660156 62.222656 147.019531 60.726562 148.449219 59.296875 C 149.878906 57.867188 151.375 56.507812 152.9375 55.226562 C 154.503906 53.941406 156.125 52.738281 157.808594 51.617188 C 159.488281 50.492188 161.222656 49.453125 163.003906 48.5 C 164.789062 47.546875 166.613281 46.683594 168.484375 45.910156 C 170.351562 45.136719 172.253906 44.453125 174.1875 43.867188 C 176.125 43.28125 178.082031 42.789062 180.066406 42.394531 C 182.050781 42 184.050781 41.703125 186.0625 41.503906 C 188.074219 41.304688 190.09375 41.207031 192.113281 41.207031 C 194.136719 41.207031 196.15625 41.304688 198.167969 41.503906 C 200.179688 41.699219 202.179688 41.996094 204.164062 42.390625 C 206.144531 42.785156 208.105469 43.273438 210.042969 43.863281 C 211.976562 44.449219 213.878906 45.128906 215.746094 45.902344 C 217.617188 46.675781 219.441406 47.539062 221.226562 48.492188 C 223.011719 49.445312 224.742188 50.484375 226.425781 51.605469 C 228.105469 52.730469 229.730469 53.933594 231.292969 55.214844 C 232.859375 56.5 234.355469 57.855469 235.785156 59.285156 C 237.214844 60.714844 238.574219 62.210938 239.855469 63.773438 C 241.140625 65.335938 242.34375 66.960938 243.46875 68.640625 C 244.59375 70.320312 245.632812 72.054688 246.585938 73.835938 C 247.539062 75.621094 248.402344 77.445312 249.175781 79.316406 C 249.953125 81.183594 250.632812 83.085938 251.222656 85.019531 C 251.808594 86.957031 252.300781 88.914062 252.695312 90.898438 C 253.089844 92.882812 253.386719 94.878906 253.585938 96.894531 C 253.785156 98.90625 253.886719 100.921875 253.886719 102.945312 C 253.882812 104.96875 253.78125 106.984375 253.578125 109 C 253.378906 111.011719 253.078125 113.007812 252.679688 114.992188 C 252.285156 116.976562 251.789062 118.933594 251.199219 120.867188 C 250.609375 122.804688 249.929688 124.707031 249.152344 126.574219 C 248.375 128.441406 247.511719 130.265625 246.558594 132.050781 C 245.601562 133.832031 244.5625 135.566406 243.4375 137.246094 C 242.3125 138.925781 241.109375 140.550781 239.828125 142.113281 C 238.542969 143.675781 237.1875 145.171875 235.753906 146.601562 C 234.324219 148.035156 232.828125 149.390625 231.265625 150.671875 C 229.703125 151.957031 228.082031 153.160156 226.398438 154.285156 C 224.71875 155.410156 222.984375 156.449219 221.203125 157.40625 C 219.417969 158.359375 217.59375 159.222656 215.726562 160 C 213.859375 160.777344 211.957031 161.457031 210.023438 162.046875 C 208.085938 162.636719 206.128906 163.128906 204.144531 163.527344 C 202.160156 163.925781 200.164062 164.226562 198.152344 164.425781 C 196.136719 164.628906 194.121094 164.730469 192.097656 164.734375 Z M 192.097656 164.734375 "/>
</g>
</g>
</g>
</g>
</svg>
