<?xml version="1.0" encoding="UTF-8"?>
<svg xmlns="http://www.w3.org/2000/svg" xmlns:xlink="http://www.w3.org/1999/xlink" width="384pt" height="383.999986pt" viewBox="0 0 384 383.999986" version="1.2">
<defs>
<clipPath id="clip1">
  <path d="M 251 247 L 354 247 L 354 354 L 251 354 Z M 251 247 "/>
</clipPath>
<clipPath id="clip2">
  <path d="M 305.253906 383.988281 L 223.199219 307.027344 L 301.703125 223.332031 L 383.757812 300.292969 Z M 305.253906 383.988281 "/>
</clipPath>
<clipPath id="clip3">
  <path d="M 305.273438 384.007812 L 223.21875 307.046875 L 301.722656 223.347656 L 383.777344 300.3125 Z M 305.273438 384.007812 "/>
</clipPath>
<clipPath id="clip4">
  <path d="M 262 247 L 360 247 L 360 360 L 262 360 Z M 262 247 "/>
</clipPath>
<clipPath id="clip5">
  <path d="M 305.253906 383.988281 L 223.199219 307.027344 L 301.703125 223.332031 L 383.757812 300.292969 Z M 305.253906 383.988281 "/>
</clipPath>
<clipPath id="clip6">
  <path d="M 305.273438 384.007812 L 223.21875 307.046875 L 301.722656 223.347656 L 383.777344 300.3125 Z M 305.273438 384.007812 "/>
</clipPath>
<clipPath id="clip7">
  <path d="M 257 338 L 261 338 L 261 342 L 257 342 Z M 257 338 "/>
</clipPath>
<clipPath id="clip8">
  <path d="M 305.253906 383.988281 L 223.199219 307.027344 L 301.703125 223.332031 L 383.757812 300.292969 Z M 305.253906 383.988281 "/>
</clipPath>
<clipPath id="clip9">
  <path d="M 305.273438 384.007812 L 223.21875 307.046875 L 301.722656 223.347656 L 383.777344 300.3125 Z M 305.273438 384.007812 "/>
</clipPath>
<clipPath id="clip10">
  <path d="M 299 356 L 303 356 L 303 359 L 299 359 Z M 299 356 "/>
</clipPath>
<clipPath id="clip11">
  <path d="M 305.253906 383.988281 L 223.199219 307.027344 L 301.703125 223.332031 L 383.757812 300.292969 Z M 305.253906 383.988281 "/>
</clipPath>
<clipPath id="clip12">
  <path d="M 305.273438 384.007812 L 223.21875 307.046875 L 301.722656 223.347656 L 383.777344 300.3125 Z M 305.273438 384.007812 "/>
</clipPath>
<clipPath id="clip13">
  <path d="M 274 349 L 277 349 L 277 351 L 274 351 Z M 274 349 "/>
</clipPath>
<clipPath id="clip14">
  <path d="M 305.253906 383.988281 L 223.199219 307.027344 L 301.703125 223.332031 L 383.757812 300.292969 Z M 305.253906 383.988281 "/>
</clipPath>
<clipPath id="clip15">
  <path d="M 305.273438 384.007812 L 223.21875 307.046875 L 301.722656 223.347656 L 383.777344 300.3125 Z M 305.273438 384.007812 "/>
</clipPath>
<clipPath id="clip16">
  <path d="M 299 253 L 301 253 L 301 254 L 299 254 Z M 299 253 "/>
</clipPath>
<clipPath id="clip17">
  <path d="M 305.253906 383.988281 L 223.199219 307.027344 L 301.703125 223.332031 L 383.757812 300.292969 Z M 305.253906 383.988281 "/>
</clipPath>
<clipPath id="clip18">
  <path d="M 305.273438 384.007812 L 223.21875 307.046875 L 301.722656 223.347656 L 383.777344 300.3125 Z M 305.273438 384.007812 "/>
</clipPath>
<clipPath id="clip19">
  <path d="M 279 352 L 282 352 L 282 354 L 279 354 Z M 279 352 "/>
</clipPath>
<clipPath id="clip20">
  <path d="M 305.253906 383.988281 L 223.199219 307.027344 L 301.703125 223.332031 L 383.757812 300.292969 Z M 305.253906 383.988281 "/>
</clipPath>
<clipPath id="clip21">
  <path d="M 305.273438 384.007812 L 223.21875 307.046875 L 301.722656 223.347656 L 383.777344 300.3125 Z M 305.273438 384.007812 "/>
</clipPath>
<clipPath id="clip22">
  <path d="M 294 254 L 295 254 L 295 255 L 294 255 Z M 294 254 "/>
</clipPath>
<clipPath id="clip23">
  <path d="M 305.253906 383.988281 L 223.199219 307.027344 L 301.703125 223.332031 L 383.757812 300.292969 Z M 305.253906 383.988281 "/>
</clipPath>
<clipPath id="clip24">
  <path d="M 305.273438 384.007812 L 223.21875 307.046875 L 301.722656 223.347656 L 383.777344 300.3125 Z M 305.273438 384.007812 "/>
</clipPath>
<clipPath id="clip25">
  <path d="M 307 354 L 309 354 L 309 355 L 307 355 Z M 307 354 "/>
</clipPath>
<clipPath id="clip26">
  <path d="M 305.253906 383.988281 L 223.199219 307.027344 L 301.703125 223.332031 L 383.757812 300.292969 Z M 305.253906 383.988281 "/>
</clipPath>
<clipPath id="clip27">
  <path d="M 305.273438 384.007812 L 223.21875 307.046875 L 301.722656 223.347656 L 383.777344 300.3125 Z M 305.273438 384.007812 "/>
</clipPath>
<clipPath id="clip28">
  <path d="M 304 356 L 309 356 L 309 358 L 304 358 Z M 304 356 "/>
</clipPath>
<clipPath id="clip29">
  <path d="M 305.253906 383.988281 L 223.199219 307.027344 L 301.703125 223.332031 L 383.757812 300.292969 Z M 305.253906 383.988281 "/>
</clipPath>
<clipPath id="clip30">
  <path d="M 305.273438 384.007812 L 223.21875 307.046875 L 301.722656 223.347656 L 383.777344 300.3125 Z M 305.273438 384.007812 "/>
</clipPath>
<clipPath id="clip31">
  <path d="M 275 260 L 278 260 L 278 262 L 275 262 Z M 275 260 "/>
</clipPath>
<clipPath id="clip32">
  <path d="M 305.253906 383.988281 L 223.199219 307.027344 L 301.703125 223.332031 L 383.757812 300.292969 Z M 305.253906 383.988281 "/>
</clipPath>
<clipPath id="clip33">
  <path d="M 305.273438 384.007812 L 223.21875 307.046875 L 301.722656 223.347656 L 383.777344 300.3125 Z M 305.273438 384.007812 "/>
</clipPath>
<clipPath id="clip34">
  <path d="M 30 251 L 137 251 L 137 355 L 30 355 Z M 30 251 "/>
</clipPath>
<clipPath id="clip35">
  <path d="M 0 296.4375 L 85.128906 222.886719 L 160.636719 310.285156 L 75.511719 383.832031 Z M 0 296.4375 "/>
</clipPath>
<clipPath id="clip36">
  <path d="M -0.0078125 296.429688 L 85.121094 222.878906 L 160.632812 310.277344 L 75.503906 383.824219 Z M -0.0078125 296.429688 "/>
</clipPath>
<clipPath id="clip37">
  <path d="M 24 257 L 135 257 L 135 360 L 24 360 Z M 24 257 "/>
</clipPath>
<clipPath id="clip38">
  <path d="M 0 296.4375 L 85.128906 222.886719 L 160.636719 310.285156 L 75.511719 383.832031 Z M 0 296.4375 "/>
</clipPath>
<clipPath id="clip39">
  <path d="M -0.0078125 296.429688 L 85.121094 222.878906 L 160.632812 310.277344 L 75.503906 383.824219 Z M -0.0078125 296.429688 "/>
</clipPath>
<clipPath id="clip40">
  <path d="M 46 253 L 51 253 L 51 257 L 46 257 Z M 46 253 "/>
</clipPath>
<clipPath id="clip41">
  <path d="M 0 296.4375 L 85.128906 222.886719 L 160.636719 310.285156 L 75.511719 383.832031 Z M 0 296.4375 "/>
</clipPath>
<clipPath id="clip42">
  <path d="M -0.0078125 296.429688 L 85.121094 222.878906 L 160.632812 310.277344 L 75.503906 383.824219 Z M -0.0078125 296.429688 "/>
</clipPath>
<clipPath id="clip43">
  <path d="M 26 293 L 28 293 L 28 297 L 26 297 Z M 26 293 "/>
</clipPath>
<clipPath id="clip44">
  <path d="M 0 296.4375 L 85.128906 222.886719 L 160.636719 310.285156 L 75.511719 383.832031 Z M 0 296.4375 "/>
</clipPath>
<clipPath id="clip45">
  <path d="M -0.0078125 296.429688 L 85.121094 222.878906 L 160.632812 310.277344 L 75.503906 383.824219 Z M -0.0078125 296.429688 "/>
</clipPath>
<clipPath id="clip46">
  <path d="M 35 269 L 38 269 L 38 272 L 35 272 Z M 35 269 "/>
</clipPath>
<clipPath id="clip47">
  <path d="M 0 296.4375 L 85.128906 222.886719 L 160.636719 310.285156 L 75.511719 383.832031 Z M 0 296.4375 "/>
</clipPath>
<clipPath id="clip48">
  <path d="M -0.0078125 296.429688 L 85.121094 222.878906 L 160.632812 310.277344 L 75.503906 383.824219 Z M -0.0078125 296.429688 "/>
</clipPath>
<clipPath id="clip49">
  <path d="M 130 304 L 131 304 L 131 306 L 130 306 Z M 130 304 "/>
</clipPath>
<clipPath id="clip50">
  <path d="M 0 296.4375 L 85.128906 222.886719 L 160.636719 310.285156 L 75.511719 383.832031 Z M 0 296.4375 "/>
</clipPath>
<clipPath id="clip51">
  <path d="M -0.0078125 296.429688 L 85.121094 222.878906 L 160.632812 310.277344 L 75.503906 383.824219 Z M -0.0078125 296.429688 "/>
</clipPath>
<clipPath id="clip52">
  <path d="M 33 274 L 35 274 L 35 277 L 33 277 Z M 33 274 "/>
</clipPath>
<clipPath id="clip53">
  <path d="M 0 296.4375 L 85.128906 222.886719 L 160.636719 310.285156 L 75.511719 383.832031 Z M 0 296.4375 "/>
</clipPath>
<clipPath id="clip54">
  <path d="M -0.0078125 296.429688 L 85.121094 222.878906 L 160.632812 310.277344 L 75.503906 383.824219 Z M -0.0078125 296.429688 "/>
</clipPath>
<clipPath id="clip55">
  <path d="M 130 299 L 131 299 L 131 300 L 130 300 Z M 130 299 "/>
</clipPath>
<clipPath id="clip56">
  <path d="M 0 296.4375 L 85.128906 222.886719 L 160.636719 310.285156 L 75.511719 383.832031 Z M 0 296.4375 "/>
</clipPath>
<clipPath id="clip57">
  <path d="M -0.0078125 296.429688 L 85.121094 222.878906 L 160.632812 310.277344 L 75.503906 383.824219 Z M -0.0078125 296.429688 "/>
</clipPath>
<clipPath id="clip58">
  <path d="M 28 302 L 30 302 L 30 304 L 28 304 Z M 28 302 "/>
</clipPath>
<clipPath id="clip59">
  <path d="M 0 296.4375 L 85.128906 222.886719 L 160.636719 310.285156 L 75.511719 383.832031 Z M 0 296.4375 "/>
</clipPath>
<clipPath id="clip60">
  <path d="M -0.0078125 296.429688 L 85.121094 222.878906 L 160.632812 310.277344 L 75.503906 383.824219 Z M -0.0078125 296.429688 "/>
</clipPath>
<clipPath id="clip61">
  <path d="M 26 298 L 28 298 L 28 303 L 26 303 Z M 26 298 "/>
</clipPath>
<clipPath id="clip62">
  <path d="M 0 296.4375 L 85.128906 222.886719 L 160.636719 310.285156 L 75.511719 383.832031 Z M 0 296.4375 "/>
</clipPath>
<clipPath id="clip63">
  <path d="M -0.0078125 296.429688 L 85.121094 222.878906 L 160.632812 310.277344 L 75.503906 383.824219 Z M -0.0078125 296.429688 "/>
</clipPath>
<clipPath id="clip64">
  <path d="M 125 280 L 127 280 L 127 283 L 125 283 Z M 125 280 "/>
</clipPath>
<clipPath id="clip65">
  <path d="M 0 296.4375 L 85.128906 222.886719 L 160.636719 310.285156 L 75.511719 383.832031 Z M 0 296.4375 "/>
</clipPath>
<clipPath id="clip66">
  <path d="M -0.0078125 296.429688 L 85.121094 222.878906 L 160.632812 310.277344 L 75.503906 383.824219 Z M -0.0078125 296.429688 "/>
</clipPath>
<clipPath id="clip67">
  <path d="M 255 36 L 362 36 L 362 140 L 255 140 Z M 255 36 "/>
</clipPath>
<clipPath id="clip68">
  <path d="M 225.160156 82.648438 L 308.914062 8.664062 L 384.882812 94.667969 L 301.128906 168.648438 Z M 225.160156 82.648438 "/>
</clipPath>
<clipPath id="clip69">
  <path d="M 225.140625 82.664062 L 308.894531 8.683594 L 384.863281 94.683594 L 301.109375 168.667969 Z M 225.140625 82.664062 "/>
</clipPath>
<clipPath id="clip70">
  <path d="M 249 43 L 360 43 L 360 145 L 249 145 Z M 249 43 "/>
</clipPath>
<clipPath id="clip71">
  <path d="M 225.160156 82.648438 L 308.914062 8.664062 L 384.882812 94.667969 L 301.128906 168.648438 Z M 225.160156 82.648438 "/>
</clipPath>
<clipPath id="clip72">
  <path d="M 225.140625 82.664062 L 308.894531 8.683594 L 384.863281 94.683594 L 301.109375 168.667969 Z M 225.140625 82.664062 "/>
</clipPath>
<clipPath id="clip73">
  <path d="M 271 39 L 275 39 L 275 43 L 271 43 Z M 271 39 "/>
</clipPath>
<clipPath id="clip74">
  <path d="M 225.160156 82.648438 L 308.914062 8.664062 L 384.882812 94.667969 L 301.128906 168.648438 Z M 225.160156 82.648438 "/>
</clipPath>
<clipPath id="clip75">
  <path d="M 225.140625 82.664062 L 308.894531 8.683594 L 384.863281 94.683594 L 301.109375 168.667969 Z M 225.140625 82.664062 "/>
</clipPath>
<clipPath id="clip76">
  <path d="M 251 79 L 253 79 L 253 83 L 251 83 Z M 251 79 "/>
</clipPath>
<clipPath id="clip77">
  <path d="M 225.160156 82.648438 L 308.914062 8.664062 L 384.882812 94.667969 L 301.128906 168.648438 Z M 225.160156 82.648438 "/>
</clipPath>
<clipPath id="clip78">
  <path d="M 225.140625 82.664062 L 308.894531 8.683594 L 384.863281 94.683594 L 301.109375 168.667969 Z M 225.140625 82.664062 "/>
</clipPath>
<clipPath id="clip79">
  <path d="M 260 55 L 262 55 L 262 58 L 260 58 Z M 260 55 "/>
</clipPath>
<clipPath id="clip80">
  <path d="M 225.160156 82.648438 L 308.914062 8.664062 L 384.882812 94.667969 L 301.128906 168.648438 Z M 225.160156 82.648438 "/>
</clipPath>
<clipPath id="clip81">
  <path d="M 225.140625 82.664062 L 308.894531 8.683594 L 384.863281 94.683594 L 301.109375 168.667969 Z M 225.140625 82.664062 "/>
</clipPath>
<clipPath id="clip82">
  <path d="M 354 89 L 356 89 L 356 91 L 354 91 Z M 354 89 "/>
</clipPath>
<clipPath id="clip83">
  <path d="M 225.160156 82.648438 L 308.914062 8.664062 L 384.882812 94.667969 L 301.128906 168.648438 Z M 225.160156 82.648438 "/>
</clipPath>
<clipPath id="clip84">
  <path d="M 225.140625 82.664062 L 308.894531 8.683594 L 384.863281 94.683594 L 301.109375 168.667969 Z M 225.140625 82.664062 "/>
</clipPath>
<clipPath id="clip85">
  <path d="M 257 60 L 260 60 L 260 63 L 257 63 Z M 257 60 "/>
</clipPath>
<clipPath id="clip86">
  <path d="M 225.160156 82.648438 L 308.914062 8.664062 L 384.882812 94.667969 L 301.128906 168.648438 Z M 225.160156 82.648438 "/>
</clipPath>
<clipPath id="clip87">
  <path d="M 225.140625 82.664062 L 308.894531 8.683594 L 384.863281 94.683594 L 301.109375 168.667969 Z M 225.140625 82.664062 "/>
</clipPath>
<clipPath id="clip88">
  <path d="M 354 84 L 355 84 L 355 85 L 354 85 Z M 354 84 "/>
</clipPath>
<clipPath id="clip89">
  <path d="M 225.160156 82.648438 L 308.914062 8.664062 L 384.882812 94.667969 L 301.128906 168.648438 Z M 225.160156 82.648438 "/>
</clipPath>
<clipPath id="clip90">
  <path d="M 225.140625 82.664062 L 308.894531 8.683594 L 384.863281 94.683594 L 301.109375 168.667969 Z M 225.140625 82.664062 "/>
</clipPath>
<clipPath id="clip91">
  <path d="M 253 87 L 255 87 L 255 90 L 253 90 Z M 253 87 "/>
</clipPath>
<clipPath id="clip92">
  <path d="M 225.160156 82.648438 L 308.914062 8.664062 L 384.882812 94.667969 L 301.128906 168.648438 Z M 225.160156 82.648438 "/>
</clipPath>
<clipPath id="clip93">
  <path d="M 225.140625 82.664062 L 308.894531 8.683594 L 384.863281 94.683594 L 301.109375 168.667969 Z M 225.140625 82.664062 "/>
</clipPath>
<clipPath id="clip94">
  <path d="M 251 84 L 253 84 L 253 89 L 251 89 Z M 251 84 "/>
</clipPath>
<clipPath id="clip95">
  <path d="M 225.160156 82.648438 L 308.914062 8.664062 L 384.882812 94.667969 L 301.128906 168.648438 Z M 225.160156 82.648438 "/>
</clipPath>
<clipPath id="clip96">
  <path d="M 225.140625 82.664062 L 308.894531 8.683594 L 384.863281 94.683594 L 301.109375 168.667969 Z M 225.140625 82.664062 "/>
</clipPath>
<clipPath id="clip97">
  <path d="M 349 65 L 351 65 L 351 68 L 349 68 Z M 349 65 "/>
</clipPath>
<clipPath id="clip98">
  <path d="M 225.160156 82.648438 L 308.914062 8.664062 L 384.882812 94.667969 L 301.128906 168.648438 Z M 225.160156 82.648438 "/>
</clipPath>
<clipPath id="clip99">
  <path d="M 225.140625 82.664062 L 308.894531 8.683594 L 384.863281 94.683594 L 301.109375 168.667969 Z M 225.140625 82.664062 "/>
</clipPath>
<clipPath id="clip100">
  <path d="M 31 33 L 148 33 L 148 152 L 31 152 Z M 31 33 "/>
</clipPath>
<clipPath id="clip101">
  <path d="M 104.109375 0 L 177.808594 101.269531 L 73.503906 177.175781 L -0.195312 75.902344 Z M 104.109375 0 "/>
</clipPath>
<clipPath id="clip102">
  <path d="M 104.09375 -0.0234375 L 177.789062 101.246094 L 73.488281 177.152344 L -0.210938 75.878906 Z M 104.09375 -0.0234375 "/>
</clipPath>
<clipPath id="clip103">
  <path d="M 26 26 L 143 26 L 143 147 L 26 147 Z M 26 26 "/>
</clipPath>
<clipPath id="clip104">
  <path d="M 104.109375 0 L 177.808594 101.269531 L 73.503906 177.175781 L -0.195312 75.902344 Z M 104.109375 0 "/>
</clipPath>
<clipPath id="clip105">
  <path d="M 104.09375 -0.0234375 L 177.789062 101.246094 L 73.488281 177.152344 L -0.210938 75.878906 Z M 104.09375 -0.0234375 "/>
</clipPath>
<clipPath id="clip106">
  <path d="M 143 55 L 147 55 L 147 60 L 143 60 Z M 143 55 "/>
</clipPath>
<clipPath id="clip107">
  <path d="M 104.109375 0 L 177.808594 101.269531 L 73.503906 177.175781 L -0.195312 75.902344 Z M 104.109375 0 "/>
</clipPath>
<clipPath id="clip108">
  <path d="M 104.09375 -0.0234375 L 177.789062 101.246094 L 73.488281 177.152344 L -0.210938 75.878906 Z M 104.09375 -0.0234375 "/>
</clipPath>
<clipPath id="clip109">
  <path d="M 101 29 L 105 29 L 105 31 L 101 31 Z M 101 29 "/>
</clipPath>
<clipPath id="clip110">
  <path d="M 104.109375 0 L 177.808594 101.269531 L 73.503906 177.175781 L -0.195312 75.902344 Z M 104.109375 0 "/>
</clipPath>
<clipPath id="clip111">
  <path d="M 104.09375 -0.0234375 L 177.789062 101.246094 L 73.488281 177.152344 L -0.210938 75.878906 Z M 104.09375 -0.0234375 "/>
</clipPath>
<clipPath id="clip112">
  <path d="M 128 42 L 132 42 L 132 44 L 128 44 Z M 128 42 "/>
</clipPath>
<clipPath id="clip113">
  <path d="M 104.109375 0 L 177.808594 101.269531 L 73.503906 177.175781 L -0.195312 75.902344 Z M 104.109375 0 "/>
</clipPath>
<clipPath id="clip114">
  <path d="M 104.09375 -0.0234375 L 177.789062 101.246094 L 73.488281 177.152344 L -0.210938 75.878906 Z M 104.09375 -0.0234375 "/>
</clipPath>
<clipPath id="clip115">
  <path d="M 81 143 L 83 143 L 83 145 L 81 145 Z M 81 143 "/>
</clipPath>
<clipPath id="clip116">
  <path d="M 104.109375 0 L 177.808594 101.269531 L 73.503906 177.175781 L -0.195312 75.902344 Z M 104.109375 0 "/>
</clipPath>
<clipPath id="clip117">
  <path d="M 104.09375 -0.0234375 L 177.789062 101.246094 L 73.488281 177.152344 L -0.210938 75.878906 Z M 104.09375 -0.0234375 "/>
</clipPath>
<clipPath id="clip118">
  <path d="M 123 38 L 126 38 L 126 41 L 123 41 Z M 123 38 "/>
</clipPath>
<clipPath id="clip119">
  <path d="M 104.109375 0 L 177.808594 101.269531 L 73.503906 177.175781 L -0.195312 75.902344 Z M 104.109375 0 "/>
</clipPath>
<clipPath id="clip120">
  <path d="M 104.09375 -0.0234375 L 177.789062 101.246094 L 73.488281 177.152344 L -0.210938 75.878906 Z M 104.09375 -0.0234375 "/>
</clipPath>
<clipPath id="clip121">
  <path d="M 87 144 L 89 144 L 89 145 L 87 145 Z M 87 144 "/>
</clipPath>
<clipPath id="clip122">
  <path d="M 104.109375 0 L 177.808594 101.269531 L 73.503906 177.175781 L -0.195312 75.902344 Z M 104.109375 0 "/>
</clipPath>
<clipPath id="clip123">
  <path d="M 104.09375 -0.0234375 L 177.789062 101.246094 L 73.488281 177.152344 L -0.210938 75.878906 Z M 104.09375 -0.0234375 "/>
</clipPath>
<clipPath id="clip124">
  <path d="M 93 31 L 96 31 L 96 32 L 93 32 Z M 93 31 "/>
</clipPath>
<clipPath id="clip125">
  <path d="M 104.109375 0 L 177.808594 101.269531 L 73.503906 177.175781 L -0.195312 75.902344 Z M 104.109375 0 "/>
</clipPath>
<clipPath id="clip126">
  <path d="M 104.09375 -0.0234375 L 177.789062 101.246094 L 73.488281 177.152344 L -0.210938 75.878906 Z M 104.09375 -0.0234375 "/>
</clipPath>
<clipPath id="clip127">
  <path d="M 95 29 L 100 29 L 100 31 L 95 31 Z M 95 29 "/>
</clipPath>
<clipPath id="clip128">
  <path d="M 104.109375 0 L 177.808594 101.269531 L 73.503906 177.175781 L -0.195312 75.902344 Z M 104.109375 0 "/>
</clipPath>
<clipPath id="clip129">
  <path d="M 104.09375 -0.0234375 L 177.789062 101.246094 L 73.488281 177.152344 L -0.210938 75.878906 Z M 104.09375 -0.0234375 "/>
</clipPath>
<clipPath id="clip130">
  <path d="M 108 140 L 111 140 L 111 142 L 108 142 Z M 108 140 "/>
</clipPath>
<clipPath id="clip131">
  <path d="M 104.109375 0 L 177.808594 101.269531 L 73.503906 177.175781 L -0.195312 75.902344 Z M 104.109375 0 "/>
</clipPath>
<clipPath id="clip132">
  <path d="M 104.09375 -0.0234375 L 177.789062 101.246094 L 73.488281 177.152344 L -0.210938 75.878906 Z M 104.09375 -0.0234375 "/>
</clipPath>
</defs>
<g id="surface1">
<g clip-path="url(#clip1)" clip-rule="nonzero">
<g clip-path="url(#clip2)" clip-rule="nonzero">
<g clip-path="url(#clip3)" clip-rule="nonzero">
<path style=" stroke:none;fill-rule:nonzero;fill:rgb(100%,100%,100%);fill-opacity:1;" d="M 343.714844 318.242188 C 342.925781 320.5 341.84375 322.632812 340.515625 324.621094 C 340.1875 325.121094 339.917969 325.394531 339.679688 325.542969 C 341.148438 323.207031 342.375 320.765625 343.371094 318.253906 C 343.480469 318.257812 343.59375 318.253906 343.714844 318.242188 Z M 335.765625 330.929688 C 335.648438 331.019531 335.535156 331.128906 335.425781 331.238281 C 336.207031 330.34375 336.949219 329.433594 337.648438 328.496094 C 337.308594 329.320312 336.722656 330.140625 335.765625 330.929688 Z M 312.292969 345.230469 C 312.695312 345.132812 313.101562 345.035156 313.503906 344.925781 C 313.210938 345.039062 312.894531 345.128906 312.554688 345.183594 C 312.464844 345.199219 312.378906 345.214844 312.292969 345.230469 Z M 297.023438 346.3125 C 297.023438 346.285156 297.019531 346.261719 297.015625 346.238281 C 298.84375 346.429688 300.679688 346.507812 302.511719 346.476562 C 300.683594 346.554688 298.847656 346.523438 297.023438 346.3125 Z M 288.574219 344.53125 C 290.78125 345.199219 293.027344 345.695312 295.289062 346.019531 C 295.277344 346.050781 295.265625 346.078125 295.253906 346.109375 C 292.988281 345.816406 290.648438 345.527344 288.574219 344.53125 Z M 272.023438 335.433594 C 271.703125 335.132812 271.402344 334.820312 271.09375 334.511719 C 275.550781 338.613281 280.605469 341.660156 285.953125 343.652344 C 283.757812 343.121094 281.730469 342.003906 279.714844 340.988281 C 276.878906 339.535156 274.316406 337.601562 272.023438 335.433594 Z M 272.457031 266.828125 C 271.96875 267.109375 271.289062 267.414062 271.089844 267.121094 C 270.828125 266.734375 271.320312 266.121094 271.917969 265.59375 C 272.53125 265.019531 273.441406 264.761719 273.839844 263.976562 C 274.445312 263.855469 275.050781 263.726562 275.6875 263.546875 C 276.320312 263.367188 276.941406 263.078125 277.632812 262.730469 C 277.835938 262.710938 278.03125 262.710938 278.242188 262.671875 C 278.34375 262.652344 278.449219 262.625 278.558594 262.601562 C 276.558594 263.773438 274.636719 265.117188 272.804688 266.621094 C 272.691406 266.691406 272.570312 266.757812 272.457031 266.828125 Z M 328.214844 337.847656 C 327.828125 338.230469 327.402344 338.566406 326.882812 338.785156 C 327.332031 338.484375 327.773438 338.167969 328.214844 337.847656 Z M 321.566406 341.886719 C 320.910156 342.28125 320.167969 342.585938 319.421875 342.867188 C 320.144531 342.558594 320.859375 342.234375 321.566406 341.886719 Z M 269.074219 258.703125 C 269.039062 259.144531 269.625 259.070312 270.25 258.871094 C 272.011719 258.308594 273.855469 257.851562 275.714844 256.855469 C 282.21875 253.417969 289.40625 251.484375 296.644531 250.910156 C 299.441406 250.707031 301.851562 250.898438 303.773438 251.957031 C 304.84375 251.953125 305.933594 251.984375 306.976562 252.128906 C 307.734375 252.273438 308.472656 252.457031 309.214844 252.644531 C 309.953125 252.863281 310.691406 253.089844 311.457031 253.273438 C 310.566406 253.332031 309.703125 253.226562 308.839844 253.121094 C 307.972656 253.039062 307.113281 252.855469 306.25 252.789062 C 305.617188 252.324219 304.644531 252.285156 303.742188 252.246094 C 303.222656 252.417969 301.886719 252.082031 302.183594 252.683594 C 302.332031 252.96875 302.523438 253.910156 304.089844 253.277344 C 304.726562 253.015625 305.550781 253.28125 306.265625 253.226562 C 307.050781 253.414062 307.824219 253.683594 308.59375 253.90625 C 309.402344 254.039062 310.195312 254.238281 310.996094 254.402344 C 311.472656 254.480469 311.941406 254.601562 312.417969 254.703125 C 313.523438 255.132812 314.757812 255.394531 315.953125 255.738281 C 317.128906 256.117188 318.257812 256.585938 319.011719 257.515625 C 318.296875 257.5 317.558594 257.371094 316.777344 257.234375 C 316.003906 257.078125 315.203125 256.859375 314.375 256.664062 C 313.988281 256.566406 313.546875 256.394531 313.144531 256.328125 C 312.738281 256.273438 312.378906 256.316406 312.175781 256.609375 C 315.613281 257.542969 318.726562 259.113281 322.066406 260.460938 C 322.894531 260.800781 323.578125 261.308594 324.171875 261.910156 C 324.777344 262.488281 325.3125 263.117188 325.890625 263.695312 C 326.179688 263.976562 326.535156 264.179688 326.933594 264.359375 C 327.320312 264.550781 327.75 264.714844 328.199219 264.882812 C 329.109375 265.207031 330.035156 265.644531 330.800781 266.355469 C 333.539062 269.039062 336.261719 271.742188 338.460938 274.875 C 341.789062 279.664062 344.289062 285.027344 345.699219 290.652344 C 347.957031 299.539062 347.382812 309.125 343.949219 317.542969 C 343.886719 317.457031 343.824219 317.359375 343.761719 317.257812 C 349.828125 300.796875 345.871094 281.53125 332.210938 268.71875 C 321.472656 258.648438 307.140625 254.816406 293.710938 257.089844 C 291.957031 257.199219 290.203125 257.390625 288.453125 257.671875 C 287.871094 257.769531 287.105469 257.914062 286.742188 257.800781 C 285.164062 257.320312 283.011719 257.878906 281.113281 258.195312 C 279.984375 258.726562 279.542969 259.191406 279.527344 259.554688 C 279.507812 259.917969 279.914062 260.183594 280.488281 260.402344 C 279.882812 260.777344 279.214844 260.835938 278.613281 260.984375 C 278.023438 261.140625 277.511719 261.402344 277.238281 262.113281 C 276.601562 262.488281 276.003906 262.609375 275.382812 262.753906 C 274.761719 262.894531 274.132812 263.09375 273.550781 263.734375 L 272.929688 264.140625 C 271.945312 264.785156 270.550781 266.136719 270.203125 265.402344 C 269.828125 264.566406 271.523438 263.828125 272.511719 263.257812 C 273.101562 262.902344 273.539062 262.636719 273.855469 262.417969 C 274.183594 262.21875 274.382812 262.0625 274.484375 261.914062 C 274.6875 261.617188 274.492188 261.347656 274.089844 260.8125 C 273.316406 261.429688 272.574219 261.90625 271.804688 262.296875 C 271.023438 262.671875 270.269531 263.027344 269.480469 263.382812 C 268.34375 263.886719 267.78125 264.273438 267.496094 264.652344 C 267.21875 265.042969 267.246094 265.46875 267.414062 266.207031 C 267.5 266.574219 267.695312 266.789062 267.164062 267.4375 C 266.109375 268.726562 266.769531 268.921875 267.292969 269.273438 C 267.855469 269.644531 268.589844 269.738281 269.363281 269.765625 C 269.097656 270.039062 268.820312 270.304688 268.558594 270.582031 C 266.453125 272.832031 264.621094 275.238281 263.070312 277.765625 C 264.214844 275.15625 265.535156 272.625 267.308594 270.253906 C 267.394531 270.136719 267.304688 269.949219 267.285156 269.386719 C 264.519531 272.1875 261.769531 274.488281 259.59375 277.683594 C 258.371094 279.503906 257.273438 281.4375 256.332031 283.453125 C 255.363281 285.453125 254.550781 287.53125 253.804688 289.625 C 251.484375 296.195312 250.828125 303.503906 251.835938 310.6875 C 252.5 315.554688 254.097656 320.300781 256.21875 324.769531 C 257.574219 327.628906 259.117188 330.496094 261.125 332.957031 C 264.320312 336.832031 267.785156 340.460938 271.894531 343.375 C 275.4375 345.933594 279.320312 348.035156 283.390625 349.65625 C 287.46875 351.257812 291.773438 352.296875 296.109375 352.683594 C 299.0625 352.953125 302.011719 353.128906 304.96875 353.03125 C 307.921875 352.933594 310.890625 352.535156 313.734375 351.613281 C 315.261719 351.117188 316.886719 350.902344 318.523438 350.527344 C 320.148438 350.148438 321.785156 349.605469 323.171875 348.492188 C 323.625 348.109375 324.707031 347.851562 325.441406 347.617188 C 326.25 347.363281 326.984375 347.011719 327.691406 346.542969 C 330.097656 345.046875 332.421875 343.433594 334.644531 341.691406 C 336.863281 339.941406 338.96875 338.039062 340.8125 335.890625 C 343.605469 332.710938 346.019531 329.183594 347.976562 325.410156 C 349.949219 321.644531 351.433594 317.617188 352.359375 313.464844 C 353.839844 306.929688 354.414062 300.066406 353.109375 293.410156 C 353.007812 292.859375 352.941406 292.269531 352.878906 291.71875 C 352.679688 289.125 351.976562 286.574219 351.085938 284.101562 C 350.203125 281.621094 349.070312 279.234375 347.925781 276.859375 C 345.136719 271.035156 340.757812 265.992188 336.03125 261.644531 C 333.191406 259.003906 329.984375 256.730469 326.5625 254.851562 C 323.144531 252.960938 319.53125 251.433594 315.820312 250.160156 C 310.210938 248.230469 304.167969 247.429688 298.183594 247.738281 C 295.191406 247.882812 292.207031 248.289062 289.277344 248.929688 C 286.347656 249.585938 283.476562 250.488281 280.6875 251.597656 C 277.019531 253.054688 273.375 254.773438 270.238281 257.234375 C 269.636719 257.722656 269.105469 258.300781 269.074219 258.703125 "/>
</g>
</g>
</g>
<g clip-path="url(#clip4)" clip-rule="nonzero">
<g clip-path="url(#clip5)" clip-rule="nonzero">
<g clip-path="url(#clip6)" clip-rule="nonzero">
<path style=" stroke:none;fill-rule:nonzero;fill:rgb(100%,100%,100%);fill-opacity:1;" d="M 319.691406 355.988281 C 318.617188 356.40625 317.445312 356.800781 316.269531 357.097656 C 313.796875 357.769531 313.183594 357.207031 313.421875 356.25 C 315.414062 356.390625 316.777344 354.929688 318.65625 354.738281 C 319.148438 355.964844 321.222656 354.328125 322.398438 354.230469 C 321.710938 354.96875 320.75 355.507812 319.691406 355.988281 Z M 335.652344 257.039062 C 337.425781 258.785156 339.441406 260.589844 341.582031 261.980469 C 342.339844 263.542969 343.46875 265.007812 344.796875 266.546875 C 346.660156 268.726562 348.136719 271.175781 349.484375 273.660156 C 350.949219 276.296875 351.90625 279.507812 353.957031 281.535156 C 353.707031 282.152344 353.660156 283.082031 354.027344 284.070312 C 355.082031 287.085938 355.140625 290.289062 356.34375 293.289062 C 356.757812 294.285156 356.820312 295.605469 356.769531 296.785156 C 356.667969 298.542969 356.777344 300.269531 356.847656 302.085938 C 356.972656 305.496094 356.714844 308.992188 355.632812 312.203125 C 355.375 313.03125 355.207031 313.796875 355.140625 314.542969 C 355.082031 315.289062 355.082031 316.011719 355.078125 316.734375 C 354.992188 317.300781 354.871094 318.34375 354.820312 318.378906 C 353.519531 319.136719 353.875 320.839844 353.328125 322.03125 C 352.179688 324.15625 350.4375 325.800781 350.136719 328.480469 L 349.648438 329.277344 C 348.921875 329.90625 348.472656 330.65625 348.289062 331.570312 C 347.832031 332.25 347.589844 332.84375 347.746094 333.277344 L 347.730469 333.351562 C 346.9375 334.507812 346.179688 334.71875 345.386719 335.226562 C 344.886719 335.535156 344.070312 336.242188 344.167969 336.710938 C 344.476562 338.183594 342.105469 339.152344 342.125 339.480469 C 342.089844 340.558594 341.144531 341.582031 340.28125 342.683594 C 339.535156 343.609375 338.894531 343.464844 338.070312 344.234375 C 339.03125 344.042969 339.839844 343.816406 340.679688 343.605469 L 339.347656 344.769531 C 338.894531 345.152344 338.425781 345.519531 337.964844 345.886719 C 337.046875 346.632812 336.058594 347.28125 335.050781 347.867188 C 334.066406 346.660156 334.09375 346.695312 331.351562 348.527344 C 330.480469 349.054688 329.664062 349.664062 328.796875 350.199219 L 328.652344 351.21875 C 329.28125 351.160156 329.910156 351.089844 330.53125 350.992188 C 328.953125 352.421875 327.023438 353.097656 325.132812 353.5625 C 324.554688 353.707031 324.292969 353.535156 324.792969 353.070312 C 324.738281 352.972656 324.742188 352.851562 324.800781 352.710938 C 323.925781 353.0625 323.003906 353.304688 322.316406 353.898438 C 321.320312 353.820312 320.261719 353.851562 318.929688 354.382812 C 316.925781 354.589844 315.078125 355.144531 313.230469 355.902344 C 312.148438 356.105469 311.605469 356.609375 310.875 356.960938 C 310.953125 357.347656 311.203125 357.824219 310.058594 358.078125 C 307.988281 358.550781 305.613281 359.023438 303.699219 358.84375 C 301.066406 358.542969 298.535156 358.613281 295.984375 358.238281 C 295.324219 358.324219 294.664062 358.367188 294 358.417969 C 292.613281 357.914062 290.644531 357.625 289.863281 356.730469 C 290.757812 356.875 291.753906 357.078125 292.371094 356.828125 C 292.820312 356.644531 292.375 356.304688 291.925781 356.078125 C 290.375 355.324219 288.546875 355.023438 286.894531 354.832031 C 285.035156 354.601562 286.113281 355.652344 285.964844 356.160156 C 285.25 356.070312 284.449219 356.105469 283.828125 355.84375 C 280.210938 354.4375 276.65625 352.890625 273.261719 351.003906 C 269.875 349.125 266.65625 346.902344 263.847656 344.25 C 263.265625 343.699219 262.710938 343.164062 262.355469 343.605469 C 262.851562 344.125 263.347656 344.695312 263.910156 345.207031 C 270.1875 350.8125 277.804688 355.082031 285.96875 357.367188 C 287.167969 357.734375 288.347656 358.117188 289.535156 358.5 C 290.738281 358.8125 291.957031 359.109375 293.238281 359.023438 C 296.9375 359.726562 300.734375 359.898438 304.496094 359.695312 C 308.261719 359.492188 311.996094 358.921875 315.691406 358.136719 C 318.746094 357.492188 321.769531 356.8125 324.722656 355.574219 C 327.589844 354.375 330.367188 352.957031 333.003906 351.3125 C 335.632812 349.648438 338.125 347.777344 340.445312 345.722656 C 344.167969 342.371094 347.503906 338.617188 350.308594 334.4375 C 353.089844 330.261719 355.40625 325.746094 357.019531 320.980469 C 358.078125 318.316406 358.769531 315.527344 359.238281 312.714844 C 359.714844 309.902344 359.902344 307.050781 359.941406 304.199219 C 359.714844 307.042969 359.203125 309.824219 358.53125 312.566406 C 357.871094 315.304688 357.125 318.019531 356.367188 320.796875 C 353.703125 327.320312 349.832031 333.175781 345.371094 338.523438 C 345.070312 337.785156 345.808594 336.824219 346.65625 335.855469 C 347.234375 335.152344 347.863281 334.492188 348.269531 333.660156 C 349.195312 332.421875 350.019531 331.136719 350.480469 329.734375 L 351.089844 328.855469 C 351.464844 327.828125 351.988281 326.914062 352.515625 326.003906 C 353.011719 325.074219 353.585938 324.175781 353.964844 323.179688 C 354.53125 322.21875 354.917969 321.171875 355.203125 320.101562 L 355.652344 318.496094 C 355.792969 317.960938 355.945312 317.429688 356.132812 316.90625 C 358.59375 308.035156 358.800781 298.589844 356.847656 289.589844 C 356.21875 286.746094 355.1875 283.992188 354.527344 281.171875 C 351.808594 273.847656 347.515625 267.066406 342.070312 261.429688 C 340.0625 259.339844 337.914062 257.382812 335.632812 255.566406 C 333.347656 253.75 330.84375 252.195312 328.1875 250.960938 C 327.613281 250.707031 327.066406 250.425781 326.550781 250.113281 C 326.035156 249.808594 325.53125 249.5 325.074219 249.144531 C 324.707031 248.910156 324.335938 248.710938 323.953125 248.53125 C 323.570312 248.367188 323.175781 248.226562 322.78125 248.101562 C 321.988281 247.847656 321.191406 247.628906 320.367188 247.4375 C 322.105469 248.121094 323.640625 248.992188 325.203125 249.867188 C 328.90625 251.90625 332.652344 254.097656 335.652344 257.039062 "/>
</g>
</g>
</g>
<g clip-path="url(#clip7)" clip-rule="nonzero">
<g clip-path="url(#clip8)" clip-rule="nonzero">
<g clip-path="url(#clip9)" clip-rule="nonzero">
<path style=" stroke:none;fill-rule:nonzero;fill:rgb(100%,100%,100%);fill-opacity:1;" d="M 257.558594 338.320312 C 258.019531 339.011719 258.484375 339.621094 258.992188 340.175781 C 259.503906 340.722656 260.042969 341.234375 260.757812 341.625 C 259.996094 340.714844 259.667969 340.210938 259.257812 339.808594 C 258.863281 339.394531 258.402344 339.066406 257.558594 338.320312 "/>
</g>
</g>
</g>
<g clip-path="url(#clip10)" clip-rule="nonzero">
<g clip-path="url(#clip11)" clip-rule="nonzero">
<g clip-path="url(#clip12)" clip-rule="nonzero">
<path style=" stroke:none;fill-rule:nonzero;fill:rgb(100%,100%,100%);fill-opacity:1;" d="M 302.398438 356.84375 C 300.976562 356.671875 300.429688 356.824219 300.15625 357.097656 C 299.890625 357.375 299.910156 357.789062 299.652344 358.070312 C 301.183594 357.984375 303.226562 357.945312 302.398438 356.84375 "/>
</g>
</g>
</g>
<g clip-path="url(#clip13)" clip-rule="nonzero">
<g clip-path="url(#clip14)" clip-rule="nonzero">
<g clip-path="url(#clip15)" clip-rule="nonzero">
<path style=" stroke:none;fill-rule:nonzero;fill:rgb(100%,100%,100%);fill-opacity:1;" d="M 274.824219 350.636719 C 275.484375 350.867188 276.1875 351.058594 276.3125 350.699219 C 276.378906 350.511719 275.953125 350.21875 275.5625 350.042969 C 274.808594 349.714844 274.363281 349.6875 274.179688 349.921875 C 274.101562 350.226562 274.417969 350.488281 274.824219 350.636719 "/>
</g>
</g>
</g>
<g clip-path="url(#clip16)" clip-rule="nonzero">
<g clip-path="url(#clip17)" clip-rule="nonzero">
<g clip-path="url(#clip18)" clip-rule="nonzero">
<path style=" stroke:none;fill-rule:nonzero;fill:rgb(100%,100%,100%);fill-opacity:1;" d="M 299.726562 254 C 300.132812 253.988281 300.476562 253.925781 300.59375 253.714844 C 300.707031 253.511719 300.582031 253.277344 300.167969 253.265625 C 299.882812 253.25 299.472656 253.4375 299.304688 253.589844 C 299.089844 253.78125 299.304688 253.945312 299.726562 254 "/>
</g>
</g>
</g>
<g clip-path="url(#clip19)" clip-rule="nonzero">
<g clip-path="url(#clip20)" clip-rule="nonzero">
<g clip-path="url(#clip21)" clip-rule="nonzero">
<path style=" stroke:none;fill-rule:nonzero;fill:rgb(100%,100%,100%);fill-opacity:1;" d="M 280.527344 353.046875 C 280.945312 353.230469 281.277344 353.21875 281.515625 353.058594 C 281.570312 352.765625 281.054688 352.519531 280.539062 352.296875 C 280.152344 352.136719 279.691406 352.015625 279.613281 352.199219 C 279.496094 352.476562 279.984375 352.8125 280.527344 353.046875 "/>
</g>
</g>
</g>
<g clip-path="url(#clip22)" clip-rule="nonzero">
<g clip-path="url(#clip23)" clip-rule="nonzero">
<g clip-path="url(#clip24)" clip-rule="nonzero">
<path style=" stroke:none;fill-rule:nonzero;fill:rgb(100%,100%,100%);fill-opacity:1;" d="M 294.613281 254.585938 C 294.695312 254.5625 294.738281 254.472656 294.796875 254.414062 C 294.742188 254.273438 294.554688 254.226562 294.261719 254.304688 C 294.179688 254.328125 294.078125 254.425781 294.089844 254.472656 C 294.125 254.617188 294.332031 254.660156 294.613281 254.585938 "/>
</g>
</g>
</g>
<g clip-path="url(#clip25)" clip-rule="nonzero">
<g clip-path="url(#clip26)" clip-rule="nonzero">
<g clip-path="url(#clip27)" clip-rule="nonzero">
<path style=" stroke:none;fill-rule:nonzero;fill:rgb(100%,100%,100%);fill-opacity:1;" d="M 308.675781 354.601562 C 308.917969 354.460938 308.816406 354.367188 308.429688 354.410156 C 308.183594 354.425781 307.933594 354.523438 307.648438 354.59375 C 307.875 354.628906 308.066406 354.679688 308.285156 354.6875 C 308.398438 354.699219 308.589844 354.65625 308.675781 354.601562 "/>
</g>
</g>
</g>
<g clip-path="url(#clip28)" clip-rule="nonzero">
<g clip-path="url(#clip29)" clip-rule="nonzero">
<g clip-path="url(#clip30)" clip-rule="nonzero">
<path style=" stroke:none;fill-rule:nonzero;fill:rgb(100%,100%,100%);fill-opacity:1;" d="M 308.082031 356.351562 L 306.230469 356.613281 C 305.609375 356.691406 304.988281 356.742188 304.363281 356.800781 C 305.730469 357.171875 307.167969 357.480469 308.082031 356.351562 "/>
</g>
</g>
</g>
<g clip-path="url(#clip31)" clip-rule="nonzero">
<g clip-path="url(#clip32)" clip-rule="nonzero">
<g clip-path="url(#clip33)" clip-rule="nonzero">
<path style=" stroke:none;fill-rule:nonzero;fill:rgb(100%,100%,100%);fill-opacity:1;" d="M 275.792969 261.546875 C 275.992188 261.742188 276.507812 261.574219 276.957031 261.246094 C 277.902344 260.554688 277.59375 260.34375 276.96875 260.265625 L 276.867188 260.300781 C 276.339844 260.691406 275.3125 261.058594 275.792969 261.546875 "/>
</g>
</g>
</g>
<g clip-path="url(#clip34)" clip-rule="nonzero">
<g clip-path="url(#clip35)" clip-rule="nonzero">
<g clip-path="url(#clip36)" clip-rule="nonzero">
<path style=" stroke:none;fill-rule:nonzero;fill:rgb(100%,100%,100%);fill-opacity:1;" d="M 61.667969 341.925781 C 59.496094 340.898438 57.476562 339.585938 55.628906 338.046875 C 55.164062 337.664062 54.917969 337.363281 54.792969 337.109375 C 56.976562 338.828125 59.289062 340.316406 61.691406 341.582031 C 61.675781 341.691406 61.667969 341.808594 61.667969 341.925781 Z M 49.816406 332.621094 C 49.738281 332.496094 49.640625 332.371094 49.546875 332.25 C 50.355469 333.125 51.191406 333.96875 52.050781 334.765625 C 51.265625 334.335938 50.507812 333.664062 49.816406 332.621094 Z M 37.945312 307.648438 C 38 308.0625 38.054688 308.476562 38.121094 308.886719 C 38.042969 308.585938 37.984375 308.257812 37.964844 307.914062 C 37.957031 307.824219 37.953125 307.734375 37.945312 307.648438 Z M 38.425781 292.289062 C 38.449219 292.289062 38.472656 292.289062 38.5 292.289062 C 38.121094 294.089844 37.855469 295.914062 37.699219 297.75 C 37.804688 295.917969 38.027344 294.085938 38.425781 292.289062 Z M 41.066406 284.046875 C 40.171875 286.175781 39.449219 288.363281 38.890625 290.589844 C 38.863281 290.574219 38.835938 290.558594 38.808594 290.542969 C 39.332031 288.3125 39.859375 286.007812 41.066406 284.046875 Z M 51.835938 268.503906 C 52.167969 268.21875 52.511719 267.953125 52.847656 267.675781 C 48.300781 271.683594 44.742188 276.398438 42.210938 281.523438 C 42.964844 279.390625 44.285156 277.488281 45.503906 275.582031 C 47.246094 272.90625 49.4375 270.5625 51.835938 268.503906 Z M 120.261719 276.339844 C 120.03125 275.824219 119.796875 275.113281 120.109375 274.945312 C 120.523438 274.726562 121.082031 275.28125 121.546875 275.933594 C 122.058594 276.613281 122.222656 277.546875 122.964844 278.03125 C 123.023438 278.644531 123.089844 279.265625 123.203125 279.917969 C 123.320312 280.570312 123.542969 281.222656 123.820312 281.949219 C 123.820312 282.15625 123.800781 282.351562 123.820312 282.5625 C 123.828125 282.667969 123.84375 282.777344 123.855469 282.886719 C 122.890625 280.765625 121.746094 278.699219 120.429688 276.707031 C 120.375 276.585938 120.320312 276.464844 120.261719 276.339844 Z M 43.683594 324.335938 C 43.34375 323.914062 43.050781 323.453125 42.882812 322.910156 C 43.140625 323.386719 43.410156 323.863281 43.683594 324.335938 Z M 40.332031 317.265625 C 40.003906 316.566406 39.777344 315.796875 39.570312 315.019531 C 39.804688 315.773438 40.058594 316.519531 40.332031 317.265625 Z M 128.714844 273.839844 C 128.277344 273.757812 128.292969 274.351562 128.425781 274.996094 C 128.808594 276.816406 129.078125 278.707031 129.882812 280.667969 C 132.644531 287.53125 133.84375 294.917969 133.679688 302.203125 C 133.59375 305.019531 133.15625 307.40625 131.902344 309.207031 C 131.800781 310.277344 131.65625 311.359375 131.40625 312.386719 C 131.183594 313.128906 130.921875 313.847656 130.660156 314.566406 C 130.367188 315.277344 130.066406 315.992188 129.800781 316.738281 C 129.835938 315.839844 130.027344 314.992188 130.222656 314.140625 C 130.394531 313.28125 130.664062 312.445312 130.820312 311.589844 C 131.347656 311.007812 131.488281 310.042969 131.621094 309.144531 C 131.5 308.609375 131.972656 307.308594 131.34375 307.542969 C 131.042969 307.660156 130.082031 307.75 130.554688 309.382812 C 130.75 310.046875 130.402344 310.839844 130.382812 311.558594 C 130.113281 312.324219 129.769531 313.066406 129.464844 313.808594 C 129.253906 314.601562 128.972656 315.375 128.726562 316.152344 C 128.601562 316.621094 128.425781 317.078125 128.277344 317.539062 C 127.738281 318.597656 127.347656 319.804688 126.886719 320.957031 C 126.386719 322.089844 125.804688 323.167969 124.800781 323.820312 C 124.886719 323.109375 125.089844 322.386719 125.308594 321.621094 C 125.542969 320.863281 125.84375 320.089844 126.125 319.285156 C 126.261719 318.90625 126.476562 318.484375 126.582031 318.089844 C 126.679688 317.691406 126.675781 317.328125 126.402344 317.089844 C 125.121094 320.425781 123.230469 323.363281 121.546875 326.550781 C 121.125 327.34375 120.546875 327.96875 119.886719 328.496094 C 119.246094 329.039062 118.566406 329.507812 117.929688 330.019531 C 117.621094 330.277344 117.378906 330.613281 117.160156 330.988281 C 116.925781 331.355469 116.722656 331.765625 116.507812 332.195312 C 116.09375 333.070312 115.5625 333.945312 114.769531 334.632812 C 111.816406 337.078125 108.839844 339.503906 105.488281 341.363281 C 100.367188 344.167969 94.757812 346.085938 89 346.886719 C 79.902344 348.179688 70.394531 346.570312 62.34375 342.238281 C 62.433594 342.179688 62.539062 342.132812 62.644531 342.082031 C 78.453125 349.914062 98.085938 348.042969 112.269531 335.785156 C 123.417969 326.152344 128.703125 312.257812 127.808594 298.605469 C 127.878906 296.84375 127.867188 295.074219 127.765625 293.300781 C 127.726562 292.703125 127.664062 291.925781 127.8125 291.574219 C 128.453125 290.054688 128.117188 287.84375 127.996094 285.914062 C 127.578125 284.726562 127.160156 284.238281 126.796875 284.183594 C 126.4375 284.125 126.132812 284.5 125.855469 285.050781 C 125.542969 284.40625 125.550781 283.734375 125.464844 283.117188 C 125.367188 282.511719 125.160156 281.96875 124.480469 281.621094 C 124.167969 280.945312 124.109375 280.339844 124.03125 279.703125 C 123.949219 279.066406 123.816406 278.417969 123.238281 277.765625 L 122.894531 277.101562 C 122.355469 276.050781 121.144531 274.511719 121.917969 274.246094 C 122.785156 273.960938 123.347656 275.734375 123.816406 276.78125 C 124.117188 277.40625 124.335938 277.875 124.519531 278.214844 C 124.6875 278.558594 124.820312 278.777344 124.957031 278.894531 C 125.234375 279.128906 125.523438 278.960938 126.097656 278.621094 C 125.5625 277.78125 125.160156 276.988281 124.847656 276.179688 C 124.554688 275.359375 124.28125 274.566406 124.003906 273.742188 C 123.617188 272.550781 123.285156 271.949219 122.941406 271.621094 C 122.578125 271.304688 122.148438 271.289062 121.398438 271.375 C 121.019531 271.417969 120.789062 271.589844 120.195312 270.988281 C 119.015625 269.796875 118.753906 270.4375 118.351562 270.921875 C 117.917969 271.445312 117.753906 272.164062 117.644531 272.9375 C 117.398438 272.640625 117.164062 272.335938 116.910156 272.042969 C 114.882812 269.699219 112.667969 267.613281 110.304688 265.789062 C 112.792969 267.214844 115.183594 268.804688 117.367188 270.832031 C 117.476562 270.929688 117.671875 270.859375 118.234375 270.902344 C 115.722656 267.839844 113.707031 264.84375 110.742188 262.328125 C 109.046875 260.910156 107.230469 259.605469 105.316406 258.453125 C 103.417969 257.265625 101.429688 256.230469 99.417969 255.261719 C 93.09375 252.234375 85.867188 250.792969 78.59375 251.023438 C 73.667969 251.160156 68.773438 252.242188 64.09375 253.878906 C 61.101562 254.921875 58.078125 256.15625 55.421875 257.894531 C 51.226562 260.664062 47.25 263.734375 43.921875 267.519531 C 41.007812 270.78125 38.511719 274.429688 36.476562 278.320312 C 34.460938 282.21875 32.988281 286.398438 32.15625 290.6875 C 31.589844 293.609375 31.113281 296.53125 30.90625 299.496094 C 30.703125 302.453125 30.796875 305.460938 31.421875 308.394531 C 31.761719 309.976562 31.8125 311.621094 32.019531 313.292969 C 32.230469 314.960938 32.605469 316.652344 33.574219 318.15625 C 33.914062 318.652344 34.058594 319.757812 34.21875 320.515625 C 34.390625 321.351562 34.664062 322.121094 35.058594 322.875 C 36.308594 325.441406 37.679688 327.933594 39.191406 330.339844 C 40.710938 332.742188 42.394531 335.054688 44.347656 337.125 C 47.238281 340.257812 50.515625 343.046875 54.078125 345.410156 C 57.636719 347.785156 61.503906 349.699219 65.550781 351.074219 C 71.921875 353.257812 78.714844 354.566406 85.488281 353.984375 C 86.054688 353.945312 86.644531 353.941406 87.199219 353.9375 C 89.808594 354.019531 92.429688 353.59375 94.988281 352.972656 C 97.554688 352.355469 100.050781 351.480469 102.539062 350.597656 C 108.636719 348.441406 114.121094 344.613281 118.9375 340.367188 C 121.863281 337.816406 124.460938 334.859375 126.6875 331.644531 C 128.921875 328.4375 130.816406 324.996094 132.46875 321.429688 C 134.964844 316.035156 136.382812 310.089844 136.6875 304.082031 C 136.847656 301.078125 136.746094 298.058594 136.40625 295.0625 C 136.050781 292.066406 135.441406 289.101562 134.621094 286.199219 C 133.542969 282.378906 132.199219 278.558594 130.066406 275.160156 C 129.636719 274.507812 129.113281 273.914062 128.714844 273.839844 "/>
</g>
</g>
</g>
<g clip-path="url(#clip37)" clip-rule="nonzero">
<g clip-path="url(#clip38)" clip-rule="nonzero">
<g clip-path="url(#clip39)" clip-rule="nonzero">
<path style=" stroke:none;fill-rule:nonzero;fill:rgb(100%,100%,100%);fill-opacity:1;" d="M 26.449219 313.875 C 26.144531 312.753906 25.867188 311.542969 25.695312 310.335938 C 25.277344 307.796875 25.898438 307.246094 26.828125 307.585938 C 26.484375 309.558594 27.804688 311.078125 27.804688 312.972656 C 26.53125 313.332031 27.953125 315.582031 27.925781 316.765625 C 27.261719 315.996094 26.820312 314.984375 26.449219 313.875 Z M 123.578125 340.484375 C 121.652344 342.0625 119.644531 343.882812 118.035156 345.871094 C 116.398438 346.457031 114.824219 347.425781 113.152344 348.585938 C 110.785156 350.210938 108.191406 351.421875 105.574219 352.496094 C 102.789062 353.675781 99.492188 354.285156 97.257812 356.113281 C 96.664062 355.792969 95.742188 355.648438 94.71875 355.910156 C 91.601562 356.636719 88.398438 356.351562 85.28125 357.226562 C 84.246094 357.535156 82.921875 357.453125 81.746094 357.273438 C 80.003906 356.980469 78.269531 356.90625 76.449219 356.78125 C 73.035156 356.539062 69.570312 355.902344 66.476562 354.476562 C 65.675781 354.132812 64.933594 353.878906 64.191406 353.734375 C 63.453125 353.59375 62.730469 353.515625 62.011719 353.433594 C 61.453125 353.285156 60.425781 353.054688 60.398438 352.996094 C 59.773438 351.617188 58.039062 351.789062 56.90625 351.113281 C 54.902344 349.738281 53.4375 347.824219 50.792969 347.230469 L 50.046875 346.65625 C 49.496094 345.863281 48.792969 345.335938 47.898438 345.054688 C 47.265625 344.523438 46.699219 344.222656 46.25 344.328125 L 46.179688 344.304688 C 45.105469 343.386719 44.972656 342.609375 44.546875 341.765625 C 44.289062 341.230469 43.664062 340.339844 43.191406 340.386719 C 41.6875 340.535156 40.964844 338.066406 40.636719 338.046875 C 39.5625 337.898438 38.636719 336.84375 37.625 335.863281 C 36.777344 335.019531 36.988281 334.394531 36.300781 333.488281 C 36.398438 334.46875 36.539062 335.300781 36.664062 336.160156 L 35.636719 334.703125 C 35.300781 334.210938 34.984375 333.703125 34.667969 333.203125 C 34.015625 332.207031 33.464844 331.152344 32.988281 330.082031 C 34.289062 329.226562 34.253906 329.25 32.703125 326.316406 C 32.265625 325.390625 31.742188 324.511719 31.296875 323.589844 L 30.292969 323.332031 C 30.289062 323.964844 30.292969 324.601562 30.332031 325.230469 C 29.0625 323.503906 28.585938 321.503906 28.316406 319.566406 C 28.230469 318.976562 28.429688 318.730469 28.839844 319.277344 C 28.945312 319.234375 29.0625 319.25 29.199219 319.324219 C 28.9375 318.417969 28.792969 317.46875 28.269531 316.71875 C 28.445312 315.734375 28.527344 314.671875 28.128906 313.285156 C 28.128906 311.261719 27.761719 309.359375 27.199219 307.429688 C 27.105469 306.332031 26.660156 305.734375 26.378906 304.964844 C 25.984375 305.003906 25.484375 305.199219 25.351562 304.03125 C 25.089844 301.910156 24.859375 299.492188 25.234375 297.597656 C 25.804688 295.003906 25.992188 292.46875 26.628906 289.964844 C 26.609375 289.296875 26.632812 288.632812 26.652344 287.964844 C 27.292969 286.632812 27.785156 284.699219 28.757812 284.015625 C 28.523438 284.894531 28.214844 285.863281 28.402344 286.507812 C 28.539062 286.976562 28.925781 286.570312 29.195312 286.144531 C 30.109375 284.675781 30.59375 282.882812 30.953125 281.253906 C 31.375 279.421875 30.21875 280.386719 29.722656 280.183594 C 29.886719 279.480469 29.933594 278.679688 30.261719 278.085938 C 32.03125 274.628906 33.9375 271.246094 36.167969 268.0625 C 38.390625 264.882812 40.9375 261.910156 43.871094 259.390625 C 44.480469 258.871094 45.070312 258.375 44.667969 257.96875 C 44.097656 258.410156 43.476562 258.847656 42.910156 259.351562 C 36.675781 265.015625 31.632812 272.15625 28.519531 280.0625 C 28.03125 281.214844 27.527344 282.351562 27.023438 283.5 C 26.589844 284.664062 26.171875 285.851562 26.121094 287.136719 C 25.042969 290.753906 24.484375 294.523438 24.304688 298.300781 C 24.121094 302.085938 24.308594 305.875 24.714844 309.648438 C 25.046875 312.765625 25.414062 315.859375 26.351562 318.941406 C 27.25 321.929688 28.382812 324.855469 29.757812 327.667969 C 31.148438 330.46875 32.761719 333.160156 34.574219 335.699219 C 37.542969 339.777344 40.949219 343.511719 44.828125 346.761719 C 48.714844 349.988281 52.984375 352.789062 57.578125 354.910156 C 60.125 356.257812 62.839844 357.25 65.597656 358.019531 C 68.355469 358.800781 71.183594 359.296875 74.023438 359.640625 C 71.210938 359.109375 68.484375 358.296875 65.820312 357.328125 C 63.152344 356.378906 60.519531 355.339844 57.824219 354.28125 C 51.585938 350.917969 46.136719 346.421875 41.257812 341.390625 C 42.023438 341.171875 42.910156 342.011719 43.785156 342.964844 C 44.433594 343.617188 45.023438 344.316406 45.816406 344.8125 C 46.953125 345.867188 48.152344 346.832031 49.507812 347.441406 L 50.320312 348.144531 C 51.308594 348.628906 52.164062 349.25 53.023438 349.875 C 53.898438 350.472656 54.734375 351.140625 55.691406 351.625 C 56.59375 352.292969 57.597656 352.792969 58.640625 353.195312 L 60.195312 353.816406 C 60.714844 354.011719 61.230469 354.222656 61.730469 354.464844 C 70.335938 357.882812 79.738281 359.105469 88.921875 358.128906 C 91.824219 357.808594 94.679688 357.078125 97.5625 356.722656 C 105.148438 354.796875 112.355469 351.242188 118.535156 346.417969 C 120.828125 344.636719 123 342.707031 125.046875 340.621094 C 127.089844 338.539062 128.902344 336.207031 130.402344 333.6875 C 130.714844 333.140625 131.054688 332.625 131.414062 332.144531 C 131.773438 331.660156 132.132812 331.195312 132.535156 330.773438 C 132.804688 330.433594 133.042969 330.082031 133.261719 329.722656 C 133.464844 329.355469 133.644531 328.980469 133.8125 328.597656 C 134.144531 327.835938 134.445312 327.0625 134.71875 326.261719 C 133.859375 327.921875 132.832031 329.363281 131.800781 330.828125 C 129.386719 334.300781 126.816406 337.804688 123.578125 340.484375 "/>
</g>
</g>
</g>
<g clip-path="url(#clip40)" clip-rule="nonzero">
<g clip-path="url(#clip41)" clip-rule="nonzero">
<g clip-path="url(#clip42)" clip-rule="nonzero">
<path style=" stroke:none;fill-rule:nonzero;fill:rgb(100%,100%,100%);fill-opacity:1;" d="M 50.433594 253.753906 C 49.691406 254.140625 49.039062 254.535156 48.433594 254.984375 C 47.835938 255.4375 47.269531 255.921875 46.804688 256.589844 C 47.792969 255.925781 48.328125 255.65625 48.773438 255.289062 C 49.226562 254.941406 49.601562 254.515625 50.433594 253.753906 "/>
</g>
</g>
</g>
<g clip-path="url(#clip43)" clip-rule="nonzero">
<g clip-path="url(#clip44)" clip-rule="nonzero">
<g clip-path="url(#clip45)" clip-rule="nonzero">
<path style=" stroke:none;fill-rule:nonzero;fill:rgb(100%,100%,100%);fill-opacity:1;" d="M 27.363281 296.515625 C 27.679688 295.117188 27.582031 294.554688 27.339844 294.253906 C 27.089844 293.957031 26.675781 293.933594 26.417969 293.640625 C 26.351562 295.179688 26.179688 297.222656 27.363281 296.515625 "/>
</g>
</g>
</g>
<g clip-path="url(#clip46)" clip-rule="nonzero">
<g clip-path="url(#clip47)" clip-rule="nonzero">
<g clip-path="url(#clip48)" clip-rule="nonzero">
<path style=" stroke:none;fill-rule:nonzero;fill:rgb(100%,100%,100%);fill-opacity:1;" d="M 36.375 269.660156 C 36.078125 270.292969 35.8125 270.976562 36.160156 271.136719 C 36.34375 271.222656 36.675781 270.832031 36.890625 270.460938 C 37.296875 269.746094 37.367188 269.304688 37.152344 269.09375 C 36.859375 268.980469 36.5625 269.269531 36.375 269.660156 "/>
</g>
</g>
</g>
<g clip-path="url(#clip49)" clip-rule="nonzero">
<g clip-path="url(#clip50)" clip-rule="nonzero">
<g clip-path="url(#clip51)" clip-rule="nonzero">
<path style=" stroke:none;fill-rule:nonzero;fill:rgb(100%,100%,100%);fill-opacity:1;" d="M 130.277344 304.945312 C 130.246094 305.351562 130.273438 305.703125 130.476562 305.84375 C 130.664062 305.976562 130.910156 305.878906 130.96875 305.46875 C 131.011719 305.183594 130.867188 304.753906 130.730469 304.570312 C 130.5625 304.335938 130.375 304.53125 130.277344 304.945312 "/>
</g>
</g>
</g>
<g clip-path="url(#clip52)" clip-rule="nonzero">
<g clip-path="url(#clip53)" clip-rule="nonzero">
<g clip-path="url(#clip54)" clip-rule="nonzero">
<path style=" stroke:none;fill-rule:nonzero;fill:rgb(100%,100%,100%);fill-opacity:1;" d="M 33.386719 275.09375 C 33.160156 275.492188 33.140625 275.824219 33.273438 276.078125 C 33.558594 276.167969 33.859375 275.675781 34.132812 275.1875 C 34.332031 274.816406 34.503906 274.371094 34.328125 274.273438 C 34.058594 274.125 33.675781 274.578125 33.386719 275.09375 "/>
</g>
</g>
</g>
<g clip-path="url(#clip55)" clip-rule="nonzero">
<g clip-path="url(#clip56)" clip-rule="nonzero">
<g clip-path="url(#clip57)" clip-rule="nonzero">
<path style=" stroke:none;fill-rule:nonzero;fill:rgb(100%,100%,100%);fill-opacity:1;" d="M 130.21875 299.78125 C 130.230469 299.867188 130.316406 299.914062 130.367188 299.980469 C 130.515625 299.941406 130.578125 299.761719 130.53125 299.460938 C 130.515625 299.375 130.429688 299.261719 130.382812 299.269531 C 130.234375 299.289062 130.167969 299.488281 130.21875 299.78125 "/>
</g>
</g>
</g>
<g clip-path="url(#clip58)" clip-rule="nonzero">
<g clip-path="url(#clip59)" clip-rule="nonzero">
<g clip-path="url(#clip60)" clip-rule="nonzero">
<path style=" stroke:none;fill-rule:nonzero;fill:rgb(100%,100%,100%);fill-opacity:1;" d="M 28.957031 303.023438 C 29.074219 303.28125 29.179688 303.191406 29.175781 302.800781 C 29.183594 302.554688 29.113281 302.292969 29.074219 302 C 29.011719 302.222656 28.945312 302.410156 28.914062 302.625 C 28.890625 302.738281 28.914062 302.933594 28.957031 303.023438 "/>
</g>
</g>
</g>
<g clip-path="url(#clip61)" clip-rule="nonzero">
<g clip-path="url(#clip62)" clip-rule="nonzero">
<g clip-path="url(#clip63)" clip-rule="nonzero">
<path style=" stroke:none;fill-rule:nonzero;fill:rgb(100%,100%,100%);fill-opacity:1;" d="M 27.273438 302.246094 L 27.199219 300.367188 C 27.1875 299.738281 27.203125 299.113281 27.203125 298.484375 C 26.695312 299.808594 26.238281 301.207031 27.273438 302.246094 "/>
</g>
</g>
</g>
<g clip-path="url(#clip64)" clip-rule="nonzero">
<g clip-path="url(#clip65)" clip-rule="nonzero">
<g clip-path="url(#clip66)" clip-rule="nonzero">
<path style=" stroke:none;fill-rule:nonzero;fill:rgb(100%,100%,100%);fill-opacity:1;" d="M 125.191406 280.238281 C 124.972656 280.417969 125.09375 280.953125 125.371094 281.4375 C 125.964844 282.453125 126.207031 282.167969 126.347656 281.550781 L 126.324219 281.449219 C 125.992188 280.878906 125.726562 279.8125 125.191406 280.238281 "/>
</g>
</g>
</g>
<g clip-path="url(#clip67)" clip-rule="nonzero">
<g clip-path="url(#clip68)" clip-rule="nonzero">
<g clip-path="url(#clip69)" clip-rule="nonzero">
<path style=" stroke:none;fill-rule:nonzero;fill:rgb(100%,100%,100%);fill-opacity:1;" d="M 286.929688 127.175781 C 284.757812 126.175781 282.738281 124.894531 280.886719 123.386719 C 280.421875 123.011719 280.171875 122.714844 280.046875 122.464844 C 282.234375 124.148438 284.546875 125.601562 286.949219 126.832031 C 286.933594 126.941406 286.925781 127.058594 286.929688 127.175781 Z M 275.054688 118.058594 C 274.976562 117.933594 274.875 117.8125 274.78125 117.691406 C 275.59375 118.554688 276.433594 119.382812 277.300781 120.164062 C 276.511719 119.746094 275.753906 119.085938 275.054688 118.058594 Z M 262.984375 93.382812 C 263.042969 93.792969 263.101562 94.203125 263.171875 94.613281 C 263.089844 94.3125 263.027344 93.988281 263.003906 93.644531 C 262.996094 93.558594 262.992188 93.472656 262.984375 93.382812 Z M 263.285156 78.125 C 263.308594 78.125 263.332031 78.125 263.359375 78.125 C 263.003906 79.917969 262.761719 81.734375 262.628906 83.554688 C 262.710938 81.734375 262.910156 79.914062 263.285156 78.125 Z M 265.8125 69.914062 C 264.949219 72.039062 264.257812 74.21875 263.730469 76.433594 C 263.703125 76.417969 263.675781 76.402344 263.644531 76.386719 C 264.140625 74.167969 264.640625 71.875 265.8125 69.914062 Z M 276.332031 54.363281 C 276.65625 54.078125 276.996094 53.808594 277.328125 53.535156 C 272.859375 57.558594 269.378906 62.28125 266.921875 67.394531 C 267.648438 65.269531 268.933594 63.367188 270.125 61.460938 C 271.824219 58.789062 273.972656 56.433594 276.332031 54.363281 Z M 344.359375 61.433594 C 344.125 60.921875 343.886719 60.21875 344.195312 60.050781 C 344.601562 59.828125 345.164062 60.375 345.632812 61.015625 C 346.148438 61.683594 346.324219 62.613281 347.066406 63.082031 C 347.128906 63.695312 347.207031 64.308594 347.324219 64.957031 C 347.445312 65.601562 347.679688 66.246094 347.960938 66.96875 C 347.960938 67.171875 347.945312 67.363281 347.964844 67.574219 C 347.976562 67.679688 347.992188 67.789062 348.007812 67.898438 C 347.023438 65.800781 345.863281 63.761719 344.535156 61.796875 C 344.476562 61.675781 344.421875 61.554688 344.359375 61.433594 Z M 268.871094 109.898438 C 268.527344 109.480469 268.234375 109.023438 268.058594 108.488281 C 268.320312 108.960938 268.59375 109.429688 268.871094 109.898438 Z M 265.464844 102.90625 C 265.128906 102.21875 264.894531 101.457031 264.683594 100.6875 C 264.921875 101.433594 265.183594 102.171875 265.464844 102.90625 Z M 352.726562 58.859375 C 352.292969 58.785156 352.3125 59.375 352.453125 60.011719 C 352.855469 61.816406 353.144531 63.691406 353.964844 65.628906 C 356.785156 72.417969 358.058594 79.738281 357.976562 86.976562 C 357.925781 89.773438 357.519531 92.148438 356.292969 93.953125 C 356.203125 95.011719 356.074219 96.089844 355.835938 97.109375 C 355.625 97.851562 355.375 98.566406 355.121094 99.285156 C 354.839844 99.996094 354.550781 100.703125 354.292969 101.449219 C 354.320312 100.558594 354.5 99.710938 354.683594 98.863281 C 354.84375 98.011719 355.101562 97.179688 355.246094 96.328125 C 355.761719 95.742188 355.890625 94.785156 356.011719 93.890625 C 355.886719 93.359375 356.339844 92.0625 355.71875 92.304688 C 355.421875 92.421875 354.46875 92.523438 354.957031 94.136719 C 355.15625 94.792969 354.820312 95.585938 354.8125 96.300781 C 354.554688 97.0625 354.21875 97.804688 353.925781 98.546875 C 353.722656 99.332031 353.453125 100.105469 353.21875 100.878906 C 353.097656 101.347656 352.933594 101.800781 352.792969 102.261719 C 352.265625 103.316406 351.894531 104.519531 351.449219 105.671875 C 350.960938 106.800781 350.394531 107.878906 349.410156 108.535156 C 349.488281 107.828125 349.679688 107.105469 349.886719 106.34375 C 350.113281 105.59375 350.402344 104.820312 350.671875 104.015625 C 350.800781 103.640625 351.011719 103.21875 351.113281 102.828125 C 351.203125 102.429688 351.195312 102.070312 350.921875 101.835938 C 349.6875 105.160156 347.84375 108.097656 346.210938 111.28125 C 345.796875 112.070312 345.230469 112.699219 344.582031 113.230469 C 343.953125 113.773438 343.28125 114.246094 342.65625 114.765625 C 342.351562 115.023438 342.117188 115.359375 341.902344 115.734375 C 341.675781 116.101562 341.476562 116.511719 341.269531 116.941406 C 340.867188 117.8125 340.347656 118.6875 339.570312 119.378906 C 336.664062 121.835938 333.738281 124.277344 330.433594 126.15625 C 325.378906 128.996094 319.832031 130.957031 314.125 131.816406 C 305.101562 133.195312 295.644531 131.699219 287.601562 127.476562 C 287.6875 127.421875 287.792969 127.371094 287.898438 127.320312 C 303.6875 134.929688 323.15625 132.867188 337.101562 120.550781 C 348.0625 110.867188 353.152344 97.015625 352.109375 83.464844 C 352.160156 81.714844 352.125 79.957031 352.007812 78.195312 C 351.960938 77.605469 351.886719 76.832031 352.03125 76.480469 C 352.652344 74.964844 352.292969 72.773438 352.148438 70.859375 C 351.722656 69.6875 351.300781 69.203125 350.941406 69.152344 C 350.582031 69.101562 350.285156 69.476562 350.015625 70.023438 C 349.695312 69.386719 349.699219 68.71875 349.605469 68.109375 C 349.503906 67.507812 349.289062 66.972656 348.609375 66.632812 C 348.292969 65.964844 348.226562 65.363281 348.140625 64.730469 C 348.054688 64.101562 347.914062 63.460938 347.332031 62.820312 L 346.984375 62.160156 C 346.4375 61.121094 345.21875 59.609375 345.980469 59.335938 C 346.839844 59.042969 347.421875 60.796875 347.898438 61.832031 C 348.199219 62.449219 348.425781 62.914062 348.609375 63.246094 C 348.78125 63.589844 348.917969 63.804688 349.054688 63.921875 C 349.332031 64.152344 349.617188 63.980469 350.183594 63.636719 C 349.644531 62.808594 349.234375 62.023438 348.914062 61.226562 C 348.613281 60.414062 348.332031 59.632812 348.046875 58.8125 C 347.652344 57.636719 347.316406 57.042969 346.96875 56.71875 C 346.605469 56.40625 346.179688 56.394531 345.433594 56.488281 C 345.058594 56.539062 344.832031 56.710938 344.234375 56.121094 C 343.050781 54.949219 342.796875 55.585938 342.402344 56.070312 C 341.980469 56.59375 341.824219 57.3125 341.726562 58.082031 C 341.480469 57.785156 341.242188 57.488281 340.988281 57.203125 C 338.949219 54.894531 336.726562 52.84375 334.359375 51.058594 C 336.84375 52.449219 339.234375 54.003906 341.425781 55.992188 C 341.535156 56.085938 341.730469 56.019531 342.289062 56.050781 C 339.757812 53.039062 337.726562 50.085938 334.753906 47.617188 C 333.054688 46.226562 331.234375 44.949219 329.320312 43.824219 C 327.421875 42.667969 325.433594 41.660156 323.425781 40.71875 C 317.113281 37.78125 309.917969 36.421875 302.703125 36.726562 C 297.8125 36.914062 292.960938 38.039062 288.335938 39.714844 C 285.378906 40.78125 282.390625 42.039062 279.769531 43.792969 C 275.636719 46.589844 271.726562 49.675781 268.464844 53.472656 C 265.605469 56.742188 263.167969 60.390625 261.191406 64.273438 C 259.238281 68.164062 257.820312 72.335938 257.042969 76.601562 C 256.511719 79.507812 256.070312 82.414062 255.898438 85.359375 C 255.734375 88.300781 255.859375 91.285156 256.515625 94.195312 C 256.871094 95.761719 256.9375 97.394531 257.164062 99.050781 C 257.390625 100.703125 257.785156 102.378906 258.765625 103.863281 C 259.105469 104.351562 259.261719 105.449219 259.429688 106.199219 C 259.609375 107.027344 259.890625 107.789062 260.289062 108.535156 C 261.558594 111.070312 262.949219 113.53125 264.480469 115.90625 C 266.011719 118.277344 267.710938 120.550781 269.675781 122.589844 C 272.582031 125.667969 275.863281 128.40625 279.433594 130.714844 C 282.988281 133.035156 286.851562 134.898438 290.886719 136.21875 C 297.238281 138.320312 303.996094 139.550781 310.71875 138.902344 C 311.277344 138.855469 311.863281 138.84375 312.417969 138.835938 C 315.007812 138.890625 317.605469 138.4375 320.136719 137.796875 C 322.679688 137.160156 325.148438 136.265625 327.609375 135.359375 C 333.636719 133.15625 339.039062 129.296875 343.777344 125.027344 C 346.652344 122.464844 349.199219 119.5 351.371094 116.285156 C 353.554688 113.078125 355.394531 109.640625 356.992188 106.078125 C 359.414062 100.699219 360.75 94.777344 360.984375 88.8125 C 361.113281 85.824219 360.976562 82.828125 360.605469 79.855469 C 360.21875 76.886719 359.582031 73.949219 358.734375 71.074219 C 357.617188 67.292969 356.242188 63.511719 354.082031 60.160156 C 353.652344 59.515625 353.125 58.933594 352.726562 58.859375 "/>
</g>
</g>
</g>
<g clip-path="url(#clip70)" clip-rule="nonzero">
<g clip-path="url(#clip71)" clip-rule="nonzero">
<g clip-path="url(#clip72)" clip-rule="nonzero">
<path style=" stroke:none;fill-rule:nonzero;fill:rgb(100%,100%,100%);fill-opacity:1;" d="M 251.640625 99.6875 C 251.324219 98.578125 251.035156 97.378906 250.847656 96.179688 C 250.40625 93.664062 251.019531 93.109375 251.945312 93.4375 C 251.625 95.402344 252.953125 96.898438 252.972656 98.777344 C 251.714844 99.148438 253.152344 101.363281 253.140625 102.542969 C 252.46875 101.785156 252.019531 100.785156 251.640625 99.6875 Z M 348.382812 125.09375 C 346.488281 126.683594 344.515625 128.511719 342.941406 130.503906 C 341.324219 131.101562 339.769531 132.082031 338.121094 133.25 C 335.789062 134.890625 333.230469 136.117188 330.640625 137.214844 C 327.894531 138.414062 324.621094 139.050781 322.425781 140.894531 C 321.835938 140.582031 320.917969 140.445312 319.90625 140.71875 C 316.816406 141.472656 313.632812 141.21875 310.546875 142.121094 C 309.523438 142.4375 308.207031 142.371094 307.039062 142.207031 C 305.304688 141.933594 303.582031 141.878906 301.773438 141.773438 C 298.378906 141.570312 294.933594 140.96875 291.847656 139.589844 C 291.046875 139.253906 290.304688 139.011719 289.566406 138.875 C 288.832031 138.742188 288.113281 138.675781 287.402344 138.597656 C 286.84375 138.457031 285.820312 138.238281 285.792969 138.183594 C 285.15625 136.820312 283.433594 137.007812 282.300781 136.347656 C 280.296875 135.003906 278.820312 133.117188 276.191406 132.558594 L 275.441406 131.996094 C 274.886719 131.214844 274.183594 130.699219 273.292969 130.425781 C 272.65625 129.90625 272.089844 129.609375 271.644531 129.722656 L 271.574219 129.699219 C 270.5 128.800781 270.355469 128.03125 269.925781 127.195312 C 269.664062 126.667969 269.035156 125.789062 268.5625 125.839844 C 267.070312 126 266.328125 123.558594 266 123.542969 C 264.933594 123.40625 264.003906 122.367188 262.988281 121.402344 C 262.132812 120.574219 262.335938 119.953125 261.644531 119.0625 C 261.75 120.03125 261.902344 120.859375 262.035156 121.710938 L 261 120.273438 C 260.660156 119.789062 260.339844 119.289062 260.019531 118.792969 C 259.359375 117.8125 258.804688 116.769531 258.316406 115.714844 C 259.597656 114.851562 259.5625 114.875 257.992188 111.976562 C 257.546875 111.0625 257.015625 110.195312 256.5625 109.28125 L 255.566406 109.039062 C 255.566406 109.667969 255.578125 110.300781 255.621094 110.925781 C 254.34375 109.222656 253.847656 107.238281 253.558594 105.320312 C 253.464844 104.734375 253.660156 104.488281 254.074219 105.027344 C 254.179688 104.984375 254.296875 105 254.429688 105.070312 C 254.160156 104.171875 254.003906 103.230469 253.480469 102.492188 C 253.644531 101.511719 253.710938 100.457031 253.300781 99.082031 C 253.277344 97.074219 252.894531 95.1875 252.308594 93.28125 C 252.203125 92.1875 251.753906 91.601562 251.46875 90.839844 C 251.078125 90.882812 250.585938 91.082031 250.4375 89.921875 C 250.152344 87.820312 249.894531 85.421875 250.25 83.539062 C 250.785156 80.957031 250.941406 78.433594 251.546875 75.941406 C 251.519531 75.277344 251.535156 74.617188 251.546875 73.953125 C 252.167969 72.625 252.632812 70.703125 253.59375 70.011719 C 253.367188 70.886719 253.074219 71.851562 253.269531 72.492188 C 253.410156 72.957031 253.789062 72.542969 254.050781 72.121094 C 254.941406 70.65625 255.402344 68.867188 255.742188 67.246094 C 256.140625 65.421875 255 66.394531 254.507812 66.195312 C 254.664062 65.496094 254.699219 64.699219 255.015625 64.105469 C 256.738281 60.65625 258.59375 57.277344 260.769531 54.089844 C 262.9375 50.910156 265.4375 47.929688 268.316406 45.402344 C 268.917969 44.878906 269.5 44.378906 269.09375 43.980469 C 268.535156 44.421875 267.921875 44.863281 267.363281 45.371094 C 261.238281 51.058594 256.316406 58.203125 253.3125 66.085938 C 252.839844 67.238281 252.351562 68.371094 251.867188 69.515625 C 251.449219 70.679688 251.042969 71.859375 251.011719 73.136719 C 249.980469 76.742188 249.46875 80.492188 249.332031 84.246094 C 249.191406 88.003906 249.425781 91.761719 249.871094 95.507812 C 250.230469 98.601562 250.636719 101.667969 251.597656 104.71875 C 252.527344 107.679688 253.683594 110.574219 255.082031 113.351562 C 256.492188 116.117188 258.125 118.769531 259.957031 121.273438 C 262.949219 125.292969 266.371094 128.964844 270.261719 132.152344 C 274.15625 135.316406 278.429688 138.050781 283.011719 140.113281 C 285.558594 141.421875 288.265625 142.378906 291.011719 143.113281 C 293.761719 143.863281 296.574219 144.324219 299.398438 144.636719 C 296.597656 144.140625 293.882812 143.359375 291.226562 142.429688 C 288.5625 141.511719 285.941406 140.507812 283.25 139.484375 C 277.019531 136.210938 271.558594 131.800781 266.652344 126.855469 C 267.414062 126.632812 268.300781 127.457031 269.183594 128.394531 C 269.832031 129.035156 270.429688 129.722656 271.21875 130.207031 C 272.363281 131.246094 273.5625 132.1875 274.914062 132.777344 L 275.730469 133.46875 C 276.71875 133.941406 277.574219 134.546875 278.433594 135.160156 C 279.308594 135.742188 280.148438 136.398438 281.105469 136.871094 C 282.007812 137.523438 283.007812 138.011719 284.050781 138.398438 L 285.597656 139 C 286.121094 139.1875 286.632812 139.390625 287.132812 139.628906 C 295.714844 142.929688 305.066406 144.046875 314.171875 142.980469 C 317.050781 142.632812 319.875 141.875 322.734375 141.496094 C 330.246094 139.5 337.363281 135.898438 343.445312 131.039062 C 345.699219 129.25 347.835938 127.308594 349.84375 125.214844 C 351.847656 123.125 353.621094 120.792969 355.082031 118.277344 C 355.386719 117.730469 355.71875 117.214844 356.070312 116.734375 C 356.421875 116.25 356.773438 115.78125 357.167969 115.359375 C 357.429688 115.019531 357.664062 114.667969 357.875 114.308594 C 358.074219 113.941406 358.246094 113.566406 358.410156 113.1875 C 358.734375 112.425781 359.019531 111.652344 359.285156 110.855469 C 358.449219 112.515625 357.445312 113.953125 356.4375 115.421875 C 354.082031 118.898438 351.570312 122.402344 348.382812 125.09375 "/>
</g>
</g>
</g>
<g clip-path="url(#clip73)" clip-rule="nonzero">
<g clip-path="url(#clip74)" clip-rule="nonzero">
<g clip-path="url(#clip75)" clip-rule="nonzero">
<path style=" stroke:none;fill-rule:nonzero;fill:rgb(100%,100%,100%);fill-opacity:1;" d="M 274.769531 39.730469 C 274.039062 40.125 273.394531 40.523438 272.800781 40.976562 C 272.210938 41.429688 271.652344 41.917969 271.203125 42.585938 C 272.175781 41.917969 272.703125 41.644531 273.140625 41.277344 C 273.585938 40.925781 273.953125 40.5 274.769531 39.730469 "/>
</g>
</g>
</g>
<g clip-path="url(#clip76)" clip-rule="nonzero">
<g clip-path="url(#clip77)" clip-rule="nonzero">
<g clip-path="url(#clip78)" clip-rule="nonzero">
<path style=" stroke:none;fill-rule:nonzero;fill:rgb(100%,100%,100%);fill-opacity:1;" d="M 252.347656 82.441406 C 252.648438 81.046875 252.546875 80.488281 252.300781 80.191406 C 252.046875 79.898438 251.636719 79.878906 251.378906 79.59375 C 251.328125 81.121094 251.183594 83.15625 252.347656 82.441406 "/>
</g>
</g>
</g>
<g clip-path="url(#clip79)" clip-rule="nonzero">
<g clip-path="url(#clip80)" clip-rule="nonzero">
<g clip-path="url(#clip81)" clip-rule="nonzero">
<path style=" stroke:none;fill-rule:nonzero;fill:rgb(100%,100%,100%);fill-opacity:1;" d="M 260.992188 55.675781 C 260.707031 56.308594 260.449219 56.988281 260.796875 57.144531 C 260.976562 57.230469 261.304688 56.835938 261.515625 56.46875 C 261.910156 55.75 261.976562 55.3125 261.757812 55.105469 C 261.464844 54.996094 261.175781 55.285156 260.992188 55.675781 "/>
</g>
</g>
</g>
<g clip-path="url(#clip82)" clip-rule="nonzero">
<g clip-path="url(#clip83)" clip-rule="nonzero">
<g clip-path="url(#clip84)" clip-rule="nonzero">
<path style=" stroke:none;fill-rule:nonzero;fill:rgb(100%,100%,100%);fill-opacity:1;" d="M 354.632812 89.734375 C 354.605469 90.140625 354.636719 90.488281 354.839844 90.625 C 355.027344 90.757812 355.273438 90.65625 355.324219 90.246094 C 355.363281 89.964844 355.214844 89.539062 355.078125 89.359375 C 354.910156 89.125 354.726562 89.320312 354.632812 89.734375 "/>
</g>
</g>
</g>
<g clip-path="url(#clip85)" clip-rule="nonzero">
<g clip-path="url(#clip86)" clip-rule="nonzero">
<g clip-path="url(#clip87)" clip-rule="nonzero">
<path style=" stroke:none;fill-rule:nonzero;fill:rgb(100%,100%,100%);fill-opacity:1;" d="M 258.089844 61.105469 C 257.867188 61.5 257.851562 61.832031 257.988281 62.082031 C 258.273438 62.167969 258.5625 61.675781 258.832031 61.1875 C 259.023438 60.816406 259.1875 60.375 259.011719 60.277344 C 258.746094 60.136719 258.367188 60.589844 258.089844 61.105469 "/>
</g>
</g>
</g>
<g clip-path="url(#clip88)" clip-rule="nonzero">
<g clip-path="url(#clip89)" clip-rule="nonzero">
<g clip-path="url(#clip90)" clip-rule="nonzero">
<path style=" stroke:none;fill-rule:nonzero;fill:rgb(100%,100%,100%);fill-opacity:1;" d="M 354.511719 84.605469 C 354.527344 84.691406 354.613281 84.738281 354.664062 84.804688 C 354.808594 84.761719 354.871094 84.582031 354.820312 84.285156 C 354.808594 84.199219 354.71875 84.089844 354.671875 84.097656 C 354.523438 84.117188 354.460938 84.316406 354.511719 84.605469 "/>
</g>
</g>
</g>
<g clip-path="url(#clip91)" clip-rule="nonzero">
<g clip-path="url(#clip92)" clip-rule="nonzero">
<g clip-path="url(#clip93)" clip-rule="nonzero">
<path style=" stroke:none;fill-rule:nonzero;fill:rgb(100%,100%,100%);fill-opacity:1;" d="M 254.007812 88.886719 C 254.125 89.140625 254.230469 89.050781 254.222656 88.664062 C 254.226562 88.417969 254.152344 88.160156 254.109375 87.867188 C 254.050781 88.089844 253.988281 88.277344 253.957031 88.488281 C 253.9375 88.601562 253.964844 88.796875 254.007812 88.886719 "/>
</g>
</g>
</g>
<g clip-path="url(#clip94)" clip-rule="nonzero">
<g clip-path="url(#clip95)" clip-rule="nonzero">
<g clip-path="url(#clip96)" clip-rule="nonzero">
<path style=" stroke:none;fill-rule:nonzero;fill:rgb(100%,100%,100%);fill-opacity:1;" d="M 252.328125 88.128906 L 252.230469 86.265625 C 252.210938 85.640625 252.21875 85.019531 252.214844 84.394531 C 251.726562 85.714844 251.285156 87.109375 252.328125 88.128906 "/>
</g>
</g>
</g>
<g clip-path="url(#clip97)" clip-rule="nonzero">
<g clip-path="url(#clip98)" clip-rule="nonzero">
<g clip-path="url(#clip99)" clip-rule="nonzero">
<path style=" stroke:none;fill-rule:nonzero;fill:rgb(100%,100%,100%);fill-opacity:1;" d="M 349.304688 65.253906 C 349.085938 65.433594 349.210938 65.960938 349.496094 66.441406 C 350.09375 67.445312 350.332031 67.15625 350.464844 66.542969 L 350.441406 66.441406 C 350.101562 65.878906 349.828125 64.824219 349.304688 65.253906 "/>
</g>
</g>
</g>
<g clip-path="url(#clip100)" clip-rule="nonzero">
<g clip-path="url(#clip101)" clip-rule="nonzero">
<g clip-path="url(#clip102)" clip-rule="nonzero">
<path style=" stroke:none;fill-rule:nonzero;fill:rgb(100%,100%,100%);fill-opacity:1;" d="M 47.695312 64.363281 C 49.042969 62.042969 50.695312 59.921875 52.582031 58.011719 C 53.050781 57.527344 53.40625 57.28125 53.699219 57.167969 C 51.582031 59.433594 49.707031 61.867188 48.074219 64.421875 C 47.953125 64.394531 47.828125 64.375 47.695312 64.363281 Z M 59.160156 52.050781 C 59.308594 51.972656 59.457031 51.875 59.601562 51.78125 C 58.550781 52.601562 57.535156 53.453125 56.566406 54.335938 C 57.117188 53.503906 57.9375 52.722656 59.160156 52.050781 Z M 88.042969 41.132812 C 87.578125 41.160156 87.113281 41.183594 86.648438 41.21875 C 86.992188 41.15625 87.363281 41.121094 87.746094 41.132812 C 87.847656 41.132812 87.945312 41.132812 88.042969 41.132812 Z M 105.066406 43.0625 C 105.0625 43.089844 105.0625 43.117188 105.0625 43.144531 C 103.089844 42.5625 101.089844 42.101562 99.066406 41.761719 C 101.09375 42.046875 103.105469 42.457031 105.066406 43.0625 Z M 113.976562 46.742188 C 111.691406 45.554688 109.332031 44.554688 106.910156 43.734375 C 106.929688 43.707031 106.949219 43.675781 106.96875 43.644531 C 109.398438 44.429688 111.910156 45.226562 113.976562 46.742188 Z M 130.222656 60.109375 C 130.507812 60.503906 130.773438 60.910156 131.046875 61.308594 C 127.027344 55.898438 122.125 51.519531 116.671875 48.242188 C 118.96875 49.273438 120.957031 50.910156 122.957031 52.4375 C 125.765625 54.613281 128.164062 57.261719 130.222656 60.109375 Z M 115.007812 135.371094 C 115.605469 135.160156 116.414062 134.964844 116.570312 135.328125 C 116.777344 135.808594 116.105469 136.378906 115.335938 136.835938 C 114.535156 137.339844 113.480469 137.441406 112.871094 138.21875 C 112.183594 138.226562 111.488281 138.246094 110.75 138.3125 C 110.015625 138.382812 109.269531 138.574219 108.433594 138.8125 C 108.207031 138.792969 107.992188 138.753906 107.753906 138.757812 C 107.636719 138.757812 107.511719 138.761719 107.390625 138.769531 C 109.839844 137.886719 112.246094 136.808594 114.582031 135.527344 C 114.722656 135.472656 114.867188 135.425781 115.007812 135.371094 Z M 68.953125 45.992188 C 69.457031 45.652344 69.996094 45.371094 70.613281 45.234375 C 70.058594 45.476562 69.503906 45.730469 68.953125 45.992188 Z M 77.128906 42.914062 C 77.9375 42.613281 78.8125 42.429688 79.695312 42.273438 C 78.835938 42.464844 77.980469 42.675781 77.128906 42.914062 Z M 116.984375 144.984375 C 117.117188 144.507812 116.453125 144.46875 115.726562 144.558594 C 113.667969 144.816406 111.539062 144.945312 109.28125 145.660156 C 101.394531 148.105469 93.074219 148.761719 84.988281 147.917969 C 81.871094 147.570312 79.257812 146.867188 77.375 145.3125 C 76.199219 145.101562 75.007812 144.839844 73.890625 144.472656 C 73.085938 144.160156 72.3125 143.804688 71.539062 143.445312 C 70.773438 143.054688 70.011719 142.660156 69.207031 142.296875 C 70.199219 142.417969 71.128906 142.707031 72.054688 143 C 72.992188 143.269531 73.894531 143.644531 74.832031 143.894531 C 75.429688 144.53125 76.484375 144.777344 77.472656 145.003906 C 78.078125 144.917969 79.480469 145.5625 79.277344 144.839844 C 79.175781 144.496094 79.167969 143.421875 77.308594 143.800781 C 76.554688 143.957031 75.707031 143.496094 74.90625 143.414062 C 74.082031 143.046875 73.292969 142.59375 72.492188 142.1875 C 71.632812 141.878906 70.804688 141.496094 69.960938 141.15625 C 69.449219 140.972656 68.960938 140.738281 68.460938 140.53125 C 67.335938 139.835938 66.035156 139.296875 64.796875 138.679688 C 63.582031 138.019531 62.441406 137.273438 61.8125 136.101562 C 62.59375 136.261719 63.378906 136.554688 64.210938 136.867188 C 65.027344 137.195312 65.859375 137.597656 66.726562 137.980469 C 67.132812 138.167969 67.582031 138.449219 68.007812 138.601562 C 68.445312 138.742188 68.847656 138.773438 69.136719 138.492188 C 65.554688 136.765625 62.46875 134.402344 59.085938 132.242188 C 58.246094 131.699219 57.605469 131 57.085938 130.21875 C 56.542969 129.460938 56.085938 128.660156 55.574219 127.910156 C 55.320312 127.542969 54.96875 127.246094 54.574219 126.964844 C 54.1875 126.675781 53.75 126.410156 53.292969 126.132812 C 52.363281 125.59375 51.4375 124.921875 50.75 123.984375 C 48.3125 120.480469 45.898438 116.957031 44.15625 113.066406 C 41.523438 107.128906 39.925781 100.726562 39.582031 94.261719 C 39.011719 84.039062 41.703125 73.628906 47.285156 65.082031 C 47.339844 65.1875 47.382812 65.308594 47.429688 65.433594 C 37.222656 82.277344 37.433594 104.238281 49.707031 121.101562 C 59.351562 134.355469 74.289062 141.484375 89.546875 141.730469 C 91.496094 141.96875 93.46875 142.113281 95.449219 142.164062 C 96.113281 142.175781 96.984375 142.171875 97.363281 142.371094 C 98.988281 143.21875 101.476562 143.046875 103.632812 143.085938 C 104.992188 142.730469 105.578125 142.3125 105.667969 141.914062 C 105.765625 141.523438 105.382812 141.148438 104.796875 140.792969 C 105.542969 140.5 106.289062 140.570312 106.980469 140.535156 C 107.664062 140.480469 108.285156 140.296875 108.738281 139.574219 C 109.519531 139.289062 110.199219 139.28125 110.914062 139.25 C 111.628906 139.21875 112.359375 139.128906 113.136719 138.546875 L 113.910156 138.226562 C 115.132812 137.71875 116.957031 136.515625 117.179688 137.398438 C 117.410156 138.390625 115.386719 138.855469 114.179688 139.28125 C 113.457031 139.554688 112.917969 139.753906 112.523438 139.929688 C 112.121094 140.082031 111.863281 140.210938 111.722656 140.351562 C 111.4375 140.636719 111.59375 140.972656 111.917969 141.644531 C 112.902344 141.125 113.820312 140.75 114.75 140.480469 C 115.691406 140.226562 116.59375 139.992188 117.539062 139.761719 C 118.898438 139.441406 119.597656 139.128906 119.996094 138.773438 C 120.382812 138.398438 120.445312 137.925781 120.417969 137.082031 C 120.40625 136.660156 120.234375 136.386719 120.960938 135.78125 C 122.394531 134.578125 121.710938 134.230469 121.210938 133.742188 C 120.671875 133.214844 119.886719 132.964844 119.039062 132.773438 C 119.394531 132.53125 119.75 132.296875 120.101562 132.042969 C 122.898438 130.003906 125.429688 127.734375 127.679688 125.277344 C 125.859375 127.90625 123.863281 130.417969 121.40625 132.65625 C 121.285156 132.769531 121.34375 132.992188 121.246094 133.613281 C 124.886719 131.101562 128.40625 129.140625 131.484375 126.074219 C 133.21875 124.320312 134.84375 122.421875 136.308594 120.402344 C 137.808594 118.402344 139.148438 116.285156 140.414062 114.140625 C 144.378906 107.394531 146.667969 99.5 147.105469 91.40625 C 147.421875 85.925781 146.683594 80.390625 145.3125 75.050781 C 144.433594 71.632812 143.351562 68.164062 141.671875 65.054688 C 138.992188 60.144531 135.960938 55.453125 132.066406 51.414062 C 128.722656 47.882812 124.902344 44.78125 120.777344 42.167969 C 116.636719 39.578125 112.128906 37.558594 107.441406 36.246094 C 104.25 35.351562 101.046875 34.558594 97.773438 34.058594 C 94.503906 33.566406 91.15625 33.394531 87.832031 33.828125 C 86.042969 34.058594 84.210938 33.964844 82.332031 34.042969 C 80.460938 34.125 78.546875 34.390625 76.78125 35.332031 C 76.199219 35.660156 74.953125 35.71875 74.101562 35.828125 C 73.152344 35.945312 72.273438 36.179688 71.394531 36.546875 C 68.425781 37.703125 65.527344 39 62.707031 40.460938 C 59.890625 41.925781 57.164062 43.585938 54.675781 45.570312 C 50.921875 48.492188 47.511719 51.878906 44.546875 55.621094 C 41.566406 59.355469 39.070312 63.476562 37.160156 67.84375 C 34.128906 74.71875 32.023438 82.140625 32.027344 89.71875 C 32.019531 90.347656 31.96875 91.003906 31.917969 91.621094 C 31.582031 94.511719 31.804688 97.457031 32.253906 100.355469 C 32.691406 103.261719 33.425781 106.113281 34.171875 108.957031 C 35.988281 115.917969 39.722656 122.355469 43.984375 128.089844 C 46.539062 131.570312 49.578125 134.722656 52.9375 137.484375 C 56.289062 140.257812 59.933594 142.671875 63.742188 144.832031 C 69.496094 148.09375 75.96875 150.207031 82.617188 151.089844 C 85.9375 151.539062 89.304688 151.703125 92.667969 151.59375 C 96.027344 151.476562 99.378906 151.066406 102.683594 150.417969 C 107.03125 149.566406 111.40625 148.425781 115.386719 146.363281 C 116.152344 145.949219 116.859375 145.421875 116.984375 144.984375 "/>
</g>
</g>
</g>
<g clip-path="url(#clip103)" clip-rule="nonzero">
<g clip-path="url(#clip104)" clip-rule="nonzero">
<g clip-path="url(#clip105)" clip-rule="nonzero">
<path style=" stroke:none;fill-rule:nonzero;fill:rgb(100%,100%,100%);fill-opacity:1;" d="M 82.21875 27.808594 C 83.492188 27.566406 84.863281 27.375 86.222656 27.289062 C 89.082031 27.054688 89.636719 27.796875 89.167969 28.800781 C 87.007812 28.238281 85.195312 29.566406 83.089844 29.390625 C 82.8125 27.945312 80.179688 29.320312 78.863281 29.183594 C 79.78125 28.515625 80.949219 28.117188 82.21875 27.808594 Z M 43.410156 133.230469 C 41.835938 130.949219 40.007812 128.554688 37.953125 126.589844 C 37.457031 124.71875 36.527344 122.878906 35.398438 120.917969 C 33.816406 118.144531 32.71875 115.15625 31.773438 112.148438 C 30.726562 108.953125 30.367188 105.234375 28.542969 102.589844 C 28.953125 101.960938 29.203125 100.949219 29.011719 99.789062 C 28.5 96.265625 29.125 92.734375 28.449219 89.191406 C 28.203125 88.015625 28.417969 86.550781 28.730469 85.265625 C 29.21875 83.355469 29.46875 81.4375 29.78125 79.425781 C 30.375 75.65625 31.414062 71.867188 33.289062 68.5625 C 33.75 67.707031 34.101562 66.902344 34.332031 66.09375 C 34.558594 65.285156 34.714844 64.492188 34.875 63.703125 C 35.089844 63.09375 35.449219 61.972656 35.511719 61.949219 C 37.105469 61.378906 37.078125 59.4375 37.9375 58.238281 C 39.65625 56.140625 41.925781 54.691406 42.832031 51.808594 L 43.542969 51.03125 C 44.476562 50.492188 45.128906 49.757812 45.527344 48.792969 C 46.175781 48.136719 46.566406 47.535156 46.492188 47.027344 L 46.523438 46.949219 C 47.644531 45.84375 48.523438 45.761719 49.5 45.367188 C 50.121094 45.132812 51.171875 44.519531 51.164062 43.988281 C 51.140625 42.304688 53.953125 41.726562 54.003906 41.363281 C 54.273438 40.183594 55.535156 39.253906 56.71875 38.222656 C 57.738281 37.355469 58.414062 37.644531 59.484375 36.964844 C 58.386719 36.980469 57.449219 37.066406 56.476562 37.125 L 58.195312 36.117188 C 58.777344 35.789062 59.371094 35.484375 59.957031 35.175781 C 61.125 34.542969 62.351562 34.03125 63.582031 33.59375 C 64.410156 35.117188 64.386719 35.078125 67.796875 33.621094 C 68.863281 33.222656 69.894531 32.71875 70.960938 32.308594 L 71.339844 31.21875 C 70.636719 31.15625 69.929688 31.101562 69.226562 31.085938 C 71.269531 29.832031 73.535156 29.488281 75.714844 29.363281 C 76.378906 29.320312 76.632812 29.566406 75.984375 29.96875 C 76.023438 30.089844 75.992188 30.222656 75.898438 30.363281 C 76.933594 30.15625 78 30.082031 78.882812 29.570312 C 79.960938 29.855469 81.132812 30.039062 82.714844 29.726562 C 84.960938 29.90625 87.113281 29.675781 89.304688 29.222656 C 90.539062 29.21875 91.246094 28.777344 92.125 28.535156 C 92.121094 28.097656 91.949219 27.523438 93.261719 27.480469 C 95.640625 27.382812 98.351562 27.34375 100.417969 27.9375 C 103.246094 28.804688 106.046875 29.242188 108.769531 30.175781 C 109.515625 30.214844 110.25 30.300781 110.992188 30.382812 C 112.410156 31.214844 114.511719 31.9375 115.179688 33.082031 C 114.226562 32.738281 113.175781 32.308594 112.441406 32.457031 C 111.90625 32.570312 112.328125 33.035156 112.773438 33.371094 C 114.316406 34.519531 116.261719 35.222656 118.039062 35.769531 C 120.035156 36.402344 119.074219 35.027344 119.34375 34.5 C 120.109375 34.746094 121 34.871094 121.625 35.285156 C 125.300781 37.566406 128.878906 39.992188 132.203125 42.753906 C 135.527344 45.507812 138.589844 48.609375 141.105469 52.09375 C 141.625 52.820312 142.121094 53.519531 142.609375 53.105469 C 142.175781 52.4375 141.75 51.707031 141.242188 51.03125 C 135.542969 43.59375 128.085938 37.351562 119.597656 33.175781 C 118.359375 32.527344 117.144531 31.863281 115.917969 31.203125 C 114.664062 30.617188 113.386719 30.039062 111.960938 29.871094 C 108.042969 28.34375 103.90625 27.382812 99.726562 26.835938 C 95.539062 26.289062 91.3125 26.15625 87.078125 26.265625 C 83.582031 26.347656 80.109375 26.480469 76.597656 27.238281 C 73.1875 27.964844 69.828125 28.957031 66.574219 30.226562 C 63.328125 31.515625 60.1875 33.0625 57.191406 34.847656 C 52.375 37.769531 47.902344 41.214844 43.925781 45.226562 C 39.964844 49.246094 36.449219 53.738281 33.652344 58.640625 C 31.914062 61.347656 30.554688 64.273438 29.4375 67.265625 C 28.308594 70.257812 27.488281 73.351562 26.832031 76.472656 C 27.691406 73.398438 28.855469 70.445312 30.183594 67.574219 C 31.496094 64.699219 32.898438 61.871094 34.332031 58.972656 C 38.660156 52.355469 44.175781 46.710938 50.230469 41.75 C 50.398438 42.621094 49.386719 43.527344 48.242188 44.414062 C 47.453125 45.074219 46.621094 45.667969 45.996094 46.5 C 44.710938 47.667969 43.53125 48.910156 42.722656 50.359375 L 41.863281 51.199219 C 41.230469 52.253906 40.457031 53.148438 39.683594 54.042969 C 38.9375 54.960938 38.117188 55.828125 37.484375 56.847656 C 36.65625 57.789062 36.003906 58.855469 35.457031 59.976562 L 34.621094 61.648438 C 34.351562 62.210938 34.070312 62.761719 33.753906 63.292969 C 29.140625 72.535156 26.882812 82.867188 27.097656 93.152344 C 27.175781 96.402344 27.71875 99.636719 27.839844 102.871094 C 29.257812 111.46875 32.523438 119.796875 37.296875 127.09375 C 39.054688 129.800781 40.996094 132.386719 43.117188 134.847656 C 45.238281 137.308594 47.65625 139.53125 50.316406 141.425781 C 50.890625 141.824219 51.433594 142.246094 51.933594 142.691406 C 52.4375 143.132812 52.921875 143.574219 53.347656 144.058594 C 53.699219 144.386719 54.066406 144.683594 54.449219 144.957031 C 54.835938 145.21875 55.238281 145.449219 55.644531 145.671875 C 56.460938 146.113281 57.292969 146.511719 58.15625 146.890625 C 56.390625 145.785156 54.890625 144.515625 53.359375 143.238281 C 49.726562 140.242188 46.082031 137.070312 43.410156 133.230469 "/>
</g>
</g>
</g>
<g clip-path="url(#clip106)" clip-rule="nonzero">
<g clip-path="url(#clip107)" clip-rule="nonzero">
<g clip-path="url(#clip108)" clip-rule="nonzero">
<path style=" stroke:none;fill-rule:nonzero;fill:rgb(100%,100%,100%);fill-opacity:1;" d="M 146.75 59.890625 C 146.390625 59.035156 146.011719 58.273438 145.570312 57.5625 C 145.125 56.855469 144.640625 56.179688 143.941406 55.609375 C 144.585938 56.761719 144.835938 57.382812 145.199219 57.910156 C 145.542969 58.445312 145.976562 58.898438 146.75 59.890625 "/>
</g>
</g>
</g>
<g clip-path="url(#clip109)" clip-rule="nonzero">
<g clip-path="url(#clip110)" clip-rule="nonzero">
<g clip-path="url(#clip111)" clip-rule="nonzero">
<path style=" stroke:none;fill-rule:nonzero;fill:rgb(100%,100%,100%);fill-opacity:1;" d="M 101.417969 30.394531 C 102.945312 30.875 103.582031 30.820312 103.9375 30.574219 C 104.292969 30.324219 104.355469 29.867188 104.703125 29.609375 C 103.003906 29.394531 100.746094 29.019531 101.417969 30.394531 "/>
</g>
</g>
</g>
<g clip-path="url(#clip112)" clip-rule="nonzero">
<g clip-path="url(#clip113)" clip-rule="nonzero">
<g clip-path="url(#clip114)" clip-rule="nonzero">
<path style=" stroke:none;fill-rule:nonzero;fill:rgb(100%,100%,100%);fill-opacity:1;" d="M 130.40625 42.839844 C 129.730469 42.453125 128.996094 42.097656 128.785156 42.46875 C 128.671875 42.660156 129.078125 43.070312 129.46875 43.339844 C 130.226562 43.855469 130.710938 43.976562 130.964844 43.753906 C 131.117188 43.4375 130.824219 43.085938 130.40625 42.839844 "/>
</g>
</g>
</g>
<g clip-path="url(#clip115)" clip-rule="nonzero">
<g clip-path="url(#clip116)" clip-rule="nonzero">
<g clip-path="url(#clip117)" clip-rule="nonzero">
<path style=" stroke:none;fill-rule:nonzero;fill:rgb(100%,100%,100%);fill-opacity:1;" d="M 82.265625 143.894531 C 81.816406 143.824219 81.421875 143.824219 81.25 144.03125 C 81.082031 144.230469 81.167969 144.515625 81.621094 144.613281 C 81.933594 144.6875 82.421875 144.566406 82.640625 144.433594 C 82.917969 144.269531 82.71875 144.042969 82.265625 143.894531 "/>
</g>
</g>
</g>
<g clip-path="url(#clip118)" clip-rule="nonzero">
<g clip-path="url(#clip119)" clip-rule="nonzero">
<g clip-path="url(#clip120)" clip-rule="nonzero">
<path style=" stroke:none;fill-rule:nonzero;fill:rgb(100%,100%,100%);fill-opacity:1;" d="M 124.652344 39.03125 C 124.234375 38.742188 123.863281 38.6875 123.570312 38.816406 C 123.445312 39.125 123.960938 39.5 124.480469 39.851562 C 124.875 40.105469 125.351562 40.332031 125.476562 40.148438 C 125.664062 39.863281 125.199219 39.394531 124.652344 39.03125 "/>
</g>
</g>
</g>
<g clip-path="url(#clip121)" clip-rule="nonzero">
<g clip-path="url(#clip122)" clip-rule="nonzero">
<g clip-path="url(#clip123)" clip-rule="nonzero">
<path style=" stroke:none;fill-rule:nonzero;fill:rgb(100%,100%,100%);fill-opacity:1;" d="M 88.011719 144.296875 C 87.917969 144.304688 87.851562 144.394531 87.773438 144.445312 C 87.804688 144.613281 88 144.699219 88.339844 144.675781 C 88.433594 144.667969 88.566406 144.578125 88.566406 144.527344 C 88.554688 144.359375 88.339844 144.269531 88.011719 144.296875 "/>
</g>
</g>
</g>
<g clip-path="url(#clip124)" clip-rule="nonzero">
<g clip-path="url(#clip125)" clip-rule="nonzero">
<g clip-path="url(#clip126)" clip-rule="nonzero">
<path style=" stroke:none;fill-rule:nonzero;fill:rgb(100%,100%,100%);fill-opacity:1;" d="M 94.035156 31.578125 C 93.738281 31.683594 93.828125 31.808594 94.261719 31.839844 C 94.539062 31.871094 94.832031 31.816406 95.164062 31.796875 C 94.921875 31.710938 94.71875 31.617188 94.484375 31.5625 C 94.359375 31.527344 94.140625 31.539062 94.035156 31.578125 "/>
</g>
</g>
</g>
<g clip-path="url(#clip127)" clip-rule="nonzero">
<g clip-path="url(#clip128)" clip-rule="nonzero">
<g clip-path="url(#clip129)" clip-rule="nonzero">
<path style=" stroke:none;fill-rule:nonzero;fill:rgb(100%,100%,100%);fill-opacity:1;" d="M 95.0625 29.777344 L 97.15625 29.867188 C 97.855469 29.910156 98.550781 29.980469 99.25 30.042969 C 97.824219 29.359375 96.3125 28.722656 95.0625 29.777344 "/>
</g>
</g>
</g>
<g clip-path="url(#clip130)" clip-rule="nonzero">
<g clip-path="url(#clip131)" clip-rule="nonzero">
<g clip-path="url(#clip132)" clip-rule="nonzero">
<path style=" stroke:none;fill-rule:nonzero;fill:rgb(100%,100%,100%);fill-opacity:1;" d="M 110.207031 140.492188 C 110.027344 140.234375 109.425781 140.316406 108.859375 140.582031 C 107.671875 141.148438 107.96875 141.445312 108.636719 141.65625 L 108.753906 141.640625 C 109.417969 141.320312 110.628906 141.125 110.207031 140.492188 "/>
</g>
</g>
</g>
</g>
</svg>
