<?xml version="1.0" encoding="UTF-8"?>
<svg xmlns="http://www.w3.org/2000/svg" xmlns:xlink="http://www.w3.org/1999/xlink" width="384pt" height="383.999986pt" viewBox="0 0 384 383.999986" version="1.2">
<g id="surface1">
<path style=" stroke:none;fill-rule:nonzero;fill:rgb(100%,100%,100%);fill-opacity:1;" d="M 380.929688 191.941406 C 380.929688 256.933594 348.128906 314.265625 298.164062 348.273438 C 267.886719 368.886719 231.328125 380.929688 191.941406 380.929688 C 154.40625 380.929688 119.4375 369.992188 90.023438 351.125 C 37.65625 317.523438 2.949219 258.789062 2.949219 191.941406 C 2.949219 87.558594 87.558594 2.949219 191.941406 2.949219 C 296.324219 2.949219 380.933594 87.558594 380.933594 191.941406 "/>
<path style=" stroke:none;fill-rule:nonzero;fill:rgb(98.81897%,21.179199%,23.139954%);fill-opacity:1;" d="M 191.941406 5.957031 C 89.386719 5.957031 5.957031 89.386719 5.957031 191.941406 C 5.957031 255.601562 37.992188 314.167969 91.648438 348.585938 C 121.554688 367.78125 156.234375 377.925781 191.941406 377.925781 C 229.449219 377.925781 265.585938 366.804688 296.464844 345.78125 C 347.476562 311.0625 377.921875 253.554688 377.921875 191.941406 C 377.921875 89.386719 294.492188 5.957031 191.941406 5.957031 Z M 191.941406 383.941406 C 155.082031 383.941406 119.28125 373.472656 88.402344 353.652344 C 33.011719 318.117188 -0.0585938 257.65625 -0.0585938 191.941406 C -0.0585938 86.066406 86.066406 -0.0585938 191.941406 -0.0585938 C 297.804688 -0.0585938 383.941406 86.066406 383.941406 191.941406 C 383.941406 255.550781 352.507812 314.925781 299.859375 350.75 C 267.972656 372.460938 230.652344 383.941406 191.941406 383.941406 "/>
<path style=" stroke:none;fill-rule:nonzero;fill:rgb(98.81897%,21.179199%,23.139954%);fill-opacity:1;" d="M 266.175781 196.632812 C 266.175781 196.632812 263.648438 241.160156 271.375 257.402344 C 271.375 257.402344 258.546875 266.730469 251.433594 257.402344 L 251.433594 255.597656 C 251.433594 255.597656 239.484375 276.828125 218.980469 267.117188 C 198.484375 257.402344 218.980469 201.433594 218.980469 201.433594 L 244.214844 155.117188 L 266.175781 196.632812 "/>
<path style=" stroke:none;fill-rule:nonzero;fill:rgb(98.81897%,21.179199%,23.139954%);fill-opacity:1;" d="M 221.734375 202.6875 C 216.273438 217.691406 205.574219 257.429688 220.265625 264.394531 C 223.433594 265.886719 226.539062 266.644531 229.507812 266.644531 L 229.523438 266.644531 C 241.617188 266.644531 248.738281 254.25 248.8125 254.117188 C 249.484375 252.925781 250.871094 252.335938 252.191406 252.6875 C 253.515625 253.035156 254.445312 254.226562 254.445312 255.597656 L 254.445312 256.308594 C 255.863281 257.8125 257.609375 258.535156 259.761719 258.535156 C 262.699219 258.535156 265.707031 257.222656 267.609375 256.175781 C 261.351562 239.183594 262.820312 203.433594 263.132812 197.308594 L 244.179688 161.480469 Z M 229.507812 272.664062 C 225.648438 272.664062 221.664062 271.710938 217.691406 269.835938 C 195.359375 259.257812 213.960938 206.390625 216.152344 200.398438 C 216.210938 200.265625 216.273438 200.136719 216.34375 200.003906 L 241.566406 153.671875 C 242.109375 152.710938 243.109375 152.109375 244.226562 152.109375 C 245.347656 152.121094 246.355469 152.734375 246.875 153.707031 L 268.835938 195.226562 C 269.089844 195.707031 269.210938 196.261719 269.183594 196.800781 C 269.160156 197.234375 266.777344 240.75 274.09375 256.117188 C 274.71875 257.414062 274.324219 258.992188 273.144531 259.835938 C 272.878906 260.027344 266.574219 264.550781 259.761719 264.550781 C 256.40625 264.550781 253.433594 263.457031 251.027344 261.363281 C 247.222656 265.984375 239.929688 272.664062 229.523438 272.664062 L 229.507812 272.664062 "/>
<path style=" stroke:none;fill-rule:nonzero;fill:rgb(98.81897%,21.179199%,23.139954%);fill-opacity:1;" d="M 298.164062 348.273438 C 267.886719 368.886719 231.328125 380.929688 191.941406 380.929688 C 154.40625 380.929688 119.4375 369.992188 90.023438 351.125 C 97.992188 327.5625 113.707031 307.5625 134.140625 294.15625 C 144.296875 287.488281 155.621094 282.457031 167.738281 279.425781 C 176.34375 277.273438 185.34375 276.140625 194.597656 276.140625 C 198.003906 276.140625 201.375 276.285156 204.695312 276.597656 C 205.273438 276.644531 205.851562 276.707031 206.417969 276.765625 C 206.777344 276.800781 207.136719 276.839844 207.488281 276.886719 C 207.871094 276.933594 208.269531 276.984375 208.667969 277.03125 C 208.90625 277.054688 209.160156 277.089844 209.402344 277.128906 C 209.75 277.164062 210.109375 277.222656 210.472656 277.273438 C 210.75 277.308594 211.027344 277.355469 211.3125 277.390625 L 211.566406 277.429688 C 212.132812 277.523438 212.699219 277.609375 213.25 277.707031 C 214.128906 277.863281 215.007812 278.019531 215.875 278.1875 C 216.753906 278.355469 217.621094 278.535156 218.472656 278.726562 C 218.632812 278.765625 218.800781 278.800781 218.957031 278.835938 C 219.28125 278.910156 219.617188 278.980469 219.953125 279.066406 C 220.0625 279.089844 220.183594 279.113281 220.292969 279.148438 C 220.507812 279.199219 220.726562 279.246094 220.929688 279.304688 C 221.109375 279.339844 221.289062 279.390625 221.472656 279.425781 C 221.507812 279.4375 221.554688 279.449219 221.601562 279.460938 C 221.640625 279.472656 221.675781 279.472656 221.699219 279.484375 C 221.722656 279.5 221.757812 279.5 221.785156 279.511719 C 222.277344 279.628906 222.757812 279.761719 223.238281 279.894531 C 223.515625 279.957031 223.792969 280.027344 224.058594 280.113281 C 224.335938 280.183594 224.601562 280.269531 224.863281 280.339844 C 225.476562 280.507812 226.078125 280.691406 226.695312 280.871094 C 227.164062 281.015625 227.632812 281.160156 228.101562 281.316406 C 228.402344 281.410156 228.714844 281.507812 229.003906 281.605469 C 229.496094 281.761719 229.992188 281.929688 230.472656 282.097656 C 230.75 282.195312 231.027344 282.289062 231.289062 282.386719 C 232.265625 282.722656 233.226562 283.085938 234.191406 283.445312 C 234.636719 283.625 235.09375 283.792969 235.550781 283.988281 C 236.296875 284.277344 237.03125 284.589844 237.765625 284.902344 C 238.714844 285.296875 239.640625 285.707031 240.582031 286.140625 C 241.398438 286.515625 242.21875 286.898438 243.023438 287.296875 C 243.082031 287.320312 243.132812 287.355469 243.191406 287.378906 C 243.539062 287.546875 243.890625 287.71875 244.226562 287.898438 C 244.261719 287.910156 244.285156 287.933594 244.324219 287.945312 C 245.070312 288.320312 245.804688 288.691406 246.523438 289.089844 L 246.539062 289.089844 C 247.210938 289.449219 247.859375 289.8125 248.523438 290.183594 C 248.691406 290.28125 248.871094 290.375 249.039062 290.472656 C 249.269531 290.605469 249.484375 290.726562 249.703125 290.847656 C 250.253906 291.171875 250.808594 291.496094 251.351562 291.832031 L 251.890625 292.15625 C 252.023438 292.230469 252.15625 292.3125 252.289062 292.398438 C 253.226562 292.964844 254.144531 293.554688 255.058594 294.15625 C 268.292969 302.832031 279.546875 314.277344 287.992188 327.667969 C 292.0625 334.121094 295.492188 341.015625 298.164062 348.273438 "/>
<path style=" stroke:none;fill-rule:nonzero;fill:rgb(98.81897%,21.179199%,23.139954%);fill-opacity:1;" d="M 93.660156 349.859375 C 123.105469 368.222656 157.03125 377.921875 191.941406 377.921875 C 228.65625 377.921875 264.058594 367.273438 294.492188 347.105469 C 292.074219 340.941406 289.027344 334.960938 285.441406 329.269531 C 277.285156 316.332031 266.210938 305.058594 253.410156 296.671875 C 252.53125 296.082031 251.640625 295.515625 250.738281 294.972656 C 250.59375 294.890625 250.53125 294.839844 250.460938 294.804688 L 250.351562 294.734375 L 249.796875 294.40625 C 249.246094 294.058594 248.714844 293.746094 248.1875 293.445312 L 247.03125 292.796875 C 246.441406 292.46875 245.863281 292.144531 245.261719 291.820312 C 245.203125 291.785156 245.128906 291.761719 245.070312 291.722656 C 244.382812 291.339844 243.683594 290.992188 242.976562 290.628906 C 242.953125 290.628906 242.925781 290.617188 242.902344 290.605469 C 242.878906 290.582031 242.832031 290.570312 242.808594 290.546875 C 242.507812 290.390625 242.191406 290.246094 241.890625 290.085938 C 241.832031 290.0625 241.773438 290.027344 241.710938 290.003906 C 241.710938 290.003906 241.699219 290.003906 241.699219 289.992188 C 240.917969 289.605469 240.125 289.234375 239.328125 288.871094 C 238.414062 288.453125 237.523438 288.054688 236.597656 287.679688 C 235.875 287.367188 235.175781 287.066406 234.46875 286.789062 C 234.140625 286.660156 233.902344 286.5625 233.660156 286.464844 L 233.058594 286.226562 C 232.191406 285.910156 231.253906 285.550781 230.304688 285.226562 L 229.484375 284.9375 C 229.027344 284.78125 228.558594 284.613281 228.089844 284.46875 L 227.1875 284.179688 C 226.707031 284.023438 226.261719 283.878906 225.804688 283.746094 L 225.585938 283.6875 C 225.082031 283.53125 224.574219 283.386719 224.070312 283.242188 L 223.300781 283.023438 C 223.253906 283.011719 223.191406 283 223.144531 282.976562 C 222.964844 282.914062 222.78125 282.867188 222.589844 282.832031 L 222.445312 282.796875 C 221.917969 282.652344 221.496094 282.542969 221.074219 282.433594 L 220.929688 282.398438 C 220.917969 282.398438 220.917969 282.386719 220.90625 282.386719 L 220.894531 282.386719 C 220.832031 282.375 220.773438 282.351562 220.710938 282.339844 L 220.351562 282.253906 C 220.253906 282.242188 220.160156 282.21875 220.0625 282.183594 C 219.941406 282.144531 219.808594 282.121094 219.679688 282.097656 C 219.570312 282.074219 219.4375 282.039062 219.328125 282 C 218.992188 281.929688 218.761719 281.867188 218.535156 281.820312 L 217.789062 281.652344 C 216.980469 281.472656 216.152344 281.304688 215.308594 281.132812 C 214.457031 280.976562 213.589844 280.820312 212.722656 280.664062 L 210.90625 280.375 C 210.761719 280.351562 210.582031 280.328125 210.410156 280.304688 L 209.652344 280.195312 C 209.460938 280.160156 209.28125 280.136719 209.089844 280.125 C 209.050781 280.113281 209.003906 280.113281 208.96875 280.101562 C 208.761719 280.074219 208.558594 280.039062 208.367188 280.027344 L 207.113281 279.871094 C 206.789062 279.824219 206.5 279.800781 206.199219 279.761719 C 205.550781 279.703125 204.996094 279.640625 204.441406 279.59375 C 201.300781 279.292969 197.992188 279.148438 194.597656 279.148438 C 185.730469 279.148438 176.933594 280.21875 168.472656 282.339844 C 156.835938 285.25 145.839844 290.074219 135.789062 296.671875 C 116.414062 309.378906 101.519531 328.210938 93.660156 349.859375 Z M 191.941406 383.941406 C 155.082031 383.941406 119.28125 373.46875 88.402344 353.652344 C 87.234375 352.90625 86.738281 351.460938 87.171875 350.160156 C 95.246094 326.296875 111.335938 305.515625 132.492188 291.640625 C 143.105469 284.671875 154.707031 279.582031 167.003906 276.511719 C 175.957031 274.261719 185.238281 273.132812 194.597656 273.132812 C 198.183594 273.132812 201.675781 273.289062 204.972656 273.601562 C 205.550781 273.648438 206.152344 273.710938 206.730469 273.769531 C 207.175781 273.816406 207.535156 273.855469 207.898438 273.902344 L 208.96875 274.035156 C 209.234375 274.058594 209.507812 274.105469 209.785156 274.144531 C 210.027344 274.167969 210.28125 274.203125 210.519531 274.238281 L 212.832031 274.589844 C 213.144531 274.636719 213.457031 274.683594 213.769531 274.746094 C 214.671875 274.902344 215.5625 275.058594 216.441406 275.226562 C 217.355469 275.40625 218.246094 275.585938 219.136719 275.792969 L 219.835938 275.949219 C 220.109375 276.007812 220.398438 276.082031 220.6875 276.140625 C 220.785156 276.164062 220.917969 276.199219 221.050781 276.238281 C 221.265625 276.285156 221.457031 276.332031 221.652344 276.382812 C 221.734375 276.40625 221.820312 276.417969 221.890625 276.441406 L 222.074219 276.476562 C 222.15625 276.488281 222.242188 276.511719 222.324219 276.539062 C 222.398438 276.550781 222.457031 276.574219 222.53125 276.597656 L 222.554688 276.597656 L 223.925781 276.957031 C 224.226562 277.03125 224.5625 277.117188 224.886719 277.222656 C 225.046875 277.257812 225.203125 277.308594 225.359375 277.34375 L 225.648438 277.429688 C 226.210938 277.585938 226.742188 277.753906 227.296875 277.910156 L 227.546875 277.980469 C 228.066406 278.136719 228.558594 278.292969 229.050781 278.464844 L 229.953125 278.75 C 230.4375 278.894531 230.953125 279.078125 231.472656 279.257812 C 231.746094 279.355469 232.035156 279.449219 232.3125 279.558594 C 233.277344 279.882812 234.261719 280.257812 235.25 280.628906 L 235.851562 280.871094 C 236.128906 280.976562 236.429688 281.085938 236.71875 281.21875 C 237.414062 281.484375 238.175781 281.808594 238.945312 282.132812 C 239.90625 282.53125 240.871094 282.953125 241.84375 283.410156 C 242.675781 283.792969 243.515625 284.179688 244.359375 284.601562 L 244.347656 284.601562 C 244.40625 284.625 244.457031 284.648438 244.492188 284.671875 C 244.875 284.851562 245.25 285.035156 245.609375 285.226562 C 245.621094 285.226562 245.621094 285.226562 245.636719 285.238281 C 245.648438 285.238281 245.660156 285.25 245.671875 285.25 C 246.394531 285.625 247.113281 285.984375 247.8125 286.371094 C 247.859375 286.394531 247.910156 286.417969 247.957031 286.429688 C 248.65625 286.800781 249.316406 287.175781 250.003906 287.5625 L 251.171875 288.222656 C 251.796875 288.582031 252.375 288.933594 252.9375 289.28125 L 253.398438 289.546875 C 253.566406 289.640625 253.734375 289.75 253.914062 289.859375 C 254.816406 290.414062 255.765625 291.015625 256.707031 291.640625 C 270.21875 300.496094 281.929688 312.398438 290.546875 326.058594 C 294.769531 332.773438 298.28125 339.894531 300.976562 347.222656 C 301.460938 348.523438 301.003906 349.980469 299.859375 350.75 C 267.96875 372.460938 230.652344 383.941406 191.941406 383.941406 "/>
<path style=" stroke:none;fill-rule:nonzero;fill:rgb(100%,100%,100%);fill-opacity:1;" d="M 255.058594 294.15625 C 253.371094 306.898438 247.753906 318.414062 239.4375 327.417969 C 228.292969 339.488281 212.335938 347.054688 194.597656 347.054688 C 166.1875 347.054688 142.3125 327.621094 135.539062 301.316406 C 134.933594 298.980469 134.464844 296.585938 134.140625 294.15625 C 151.507812 282.757812 172.277344 276.140625 194.597656 276.140625 C 198.003906 276.140625 201.375 276.285156 204.695312 276.597656 C 205.273438 276.644531 205.851562 276.707031 206.417969 276.765625 C 206.777344 276.800781 207.136719 276.839844 207.488281 276.886719 C 207.882812 276.921875 208.28125 276.984375 208.667969 277.03125 C 208.90625 277.054688 209.160156 277.089844 209.402344 277.128906 C 209.75 277.164062 210.109375 277.222656 210.472656 277.273438 C 210.75 277.308594 211.027344 277.355469 211.3125 277.390625 C 211.554688 277.429688 211.796875 277.464844 212.035156 277.511719 C 212.445312 277.574219 212.84375 277.644531 213.25 277.703125 C 215.007812 278.007812 216.753906 278.34375 218.472656 278.726562 L 219.628906 278.980469 C 219.847656 279.039062 220.074219 279.089844 220.292969 279.148438 C 220.699219 279.246094 221.121094 279.339844 221.519531 279.449219 C 221.589844 279.460938 221.652344 279.472656 221.699219 279.484375 C 222.21875 279.617188 222.734375 279.75 223.238281 279.894531 C 223.792969 280.027344 224.335938 280.183594 224.863281 280.339844 C 225.476562 280.507812 226.078125 280.6875 226.695312 280.871094 C 227.164062 281.015625 227.632812 281.160156 228.101562 281.316406 C 228.402344 281.410156 228.714844 281.507812 229.003906 281.605469 C 229.496094 281.761719 229.992188 281.929688 230.472656 282.097656 C 231.074219 282.300781 231.664062 282.507812 232.253906 282.722656 C 232.300781 282.746094 232.335938 282.757812 232.375 282.769531 C 232.988281 282.988281 233.589844 283.214844 234.191406 283.445312 C 234.636719 283.625 235.09375 283.792969 235.550781 283.988281 C 236.742188 284.457031 237.910156 284.949219 239.0625 285.453125 L 240.582031 286.140625 C 241.039062 286.34375 241.496094 286.5625 241.953125 286.777344 C 242.375 286.984375 242.78125 287.175781 243.191406 287.378906 C 243.578125 287.5625 243.949219 287.753906 244.324219 287.945312 C 244.5625 288.066406 244.816406 288.1875 245.058594 288.320312 C 246.054688 288.824219 247.03125 289.355469 247.992188 289.882812 C 248.34375 290.074219 248.703125 290.28125 249.039062 290.472656 C 249.269531 290.605469 249.484375 290.726562 249.703125 290.847656 L 250.519531 291.328125 L 251.351562 291.832031 L 251.890625 292.15625 C 252.410156 292.457031 252.914062 292.769531 253.421875 293.097656 C 253.972656 293.445312 254.515625 293.792969 255.058594 294.15625 "/>
<path style=" stroke:none;fill-rule:nonzero;fill:rgb(98.81897%,21.179199%,23.139954%);fill-opacity:1;" d="M 137.402344 295.636719 C 137.679688 297.285156 138.027344 298.945312 138.449219 300.570312 C 145.042969 326.164062 168.136719 344.046875 194.597656 344.046875 C 210.738281 344.046875 226.273438 337.238281 237.222656 325.371094 C 244.9375 317.019531 249.953125 306.765625 251.796875 295.636719 C 251.316406 295.324219 250.84375 295.035156 250.375 294.757812 L 247.535156 293.085938 C 247.222656 292.902344 246.875 292.710938 246.539062 292.519531 C 245.609375 292 244.660156 291.496094 243.699219 291.003906 C 243.46875 290.882812 243.324219 290.808594 243.179688 290.738281 L 242.988281 290.640625 C 242.601562 290.449219 242.265625 290.269531 241.917969 290.101562 C 241.589844 289.945312 241.339844 289.824219 241.074219 289.703125 L 240.496094 289.414062 C 240.113281 289.234375 239.738281 289.054688 239.367188 288.882812 L 237.824219 288.199219 C 236.730469 287.71875 235.597656 287.246094 234.445312 286.777344 C 234.128906 286.644531 233.878906 286.5625 233.636719 286.453125 L 233.058594 286.238281 C 232.542969 286.03125 231.964844 285.816406 231.375 285.609375 C 231.316406 285.585938 231.230469 285.550781 231.097656 285.503906 C 230.570312 285.308594 230.050781 285.128906 229.507812 284.949219 C 229.027344 284.78125 228.558594 284.625 228.089844 284.46875 L 227.1875 284.179688 C 226.707031 284.023438 226.261719 283.878906 225.816406 283.746094 L 225.597656 283.6875 C 225.09375 283.53125 224.585938 283.386719 224.070312 283.242188 C 223.527344 283.085938 223.046875 282.941406 222.542969 282.820312 C 222.492188 282.808594 222.457031 282.808594 222.421875 282.785156 C 221.941406 282.652344 221.445312 282.53125 220.953125 282.398438 C 220.84375 282.386719 220.832031 282.386719 220.726562 282.351562 C 220.425781 282.265625 220.097656 282.195312 219.773438 282.121094 L 219.605469 282.074219 C 219.558594 282.074219 219.519531 282.050781 219.472656 282.050781 L 219.246094 281.988281 C 219.136719 281.964844 219.027344 281.929688 218.917969 281.90625 L 217.835938 281.664062 C 216.222656 281.304688 214.5625 280.976562 212.746094 280.675781 L 211.601562 280.484375 C 211.542969 280.484375 211.496094 280.472656 211.445312 280.460938 C 211.289062 280.425781 211.121094 280.402344 210.964844 280.375 C 210.761719 280.351562 210.582031 280.328125 210.398438 280.304688 L 209.640625 280.195312 C 209.460938 280.160156 209.28125 280.136719 209.101562 280.125 C 209.039062 280.125 208.992188 280.113281 208.933594 280.101562 C 208.75 280.074219 208.558594 280.039062 208.378906 280.027344 L 207.957031 279.96875 C 207.703125 279.945312 207.453125 279.90625 207.210938 279.882812 C 206.777344 279.824219 206.453125 279.800781 206.128906 279.761719 C 205.550781 279.703125 204.996094 279.640625 204.441406 279.59375 C 201.300781 279.304688 197.992188 279.148438 194.597656 279.148438 C 174.238281 279.148438 154.503906 284.839844 137.402344 295.636719 Z M 194.597656 350.066406 C 165.394531 350.066406 139.90625 330.328125 132.625 302.0625 C 131.988281 299.59375 131.492188 297.066406 131.15625 294.550781 C 131 293.410156 131.519531 292.277344 132.492188 291.640625 C 150.941406 279.535156 172.421875 273.132812 194.597656 273.132812 C 198.183594 273.132812 201.675781 273.289062 204.972656 273.601562 C 205.550781 273.648438 206.152344 273.710938 206.730469 273.78125 C 207.113281 273.816406 207.511719 273.855469 207.898438 273.902344 C 208.101562 273.925781 208.425781 273.960938 208.75 274.011719 L 209.050781 274.046875 C 209.246094 274.058594 209.519531 274.105469 209.785156 274.144531 C 210.027344 274.167969 210.265625 274.203125 210.507812 274.238281 L 211.675781 274.40625 C 211.710938 274.40625 211.84375 274.433594 211.878906 274.433594 C 212.109375 274.46875 212.324219 274.503906 212.542969 274.550781 C 212.746094 274.574219 212.9375 274.613281 213.132812 274.636719 L 213.683594 274.71875 C 215.683594 275.070312 217.441406 275.40625 219.136719 275.792969 L 220.28125 276.042969 C 220.328125 276.054688 220.386719 276.070312 220.449219 276.082031 L 220.664062 276.140625 C 220.785156 276.164062 220.917969 276.199219 221.039062 276.238281 L 221.144531 276.261719 C 221.496094 276.332031 221.84375 276.417969 222.167969 276.511719 C 222.265625 276.527344 222.335938 276.550781 222.410156 276.5625 C 222.964844 276.707031 223.492188 276.839844 223.996094 276.984375 C 224.585938 277.128906 225.164062 277.285156 225.71875 277.453125 C 226.210938 277.585938 226.753906 277.753906 227.308594 277.910156 L 227.546875 277.980469 C 228.066406 278.148438 228.558594 278.292969 229.050781 278.464844 L 229.953125 278.75 C 230.4375 278.894531 230.953125 279.078125 231.460938 279.257812 C 232.074219 279.460938 232.675781 279.679688 233.289062 279.90625 C 233.335938 279.917969 233.382812 279.941406 233.433594 279.957031 C 234.09375 280.183594 234.671875 280.414062 235.261719 280.628906 L 235.816406 280.847656 C 236.117188 280.964844 236.417969 281.085938 236.71875 281.21875 C 237.886719 281.664062 239.078125 282.179688 240.269531 282.699219 L 241.832031 283.410156 C 242.21875 283.578125 242.636719 283.769531 243.058594 283.976562 L 243.683594 284.277344 C 243.972656 284.40625 244.25 284.550781 244.539062 284.695312 C 244.890625 284.851562 245.296875 285.058594 245.707031 285.273438 L 245.828125 285.335938 C 246.054688 285.441406 246.285156 285.550781 246.5 285.683594 C 247.453125 286.152344 248.449219 286.707031 249.449219 287.246094 C 249.8125 287.453125 250.183594 287.65625 250.53125 287.863281 L 253.445312 289.582031 C 253.960938 289.882812 254.503906 290.21875 255.046875 290.558594 C 255.597656 290.917969 256.164062 291.277344 256.730469 291.652344 C 257.679688 292.289062 258.1875 293.410156 258.042969 294.550781 C 256.308594 307.65625 250.640625 319.726562 241.652344 329.460938 C 229.558594 342.554688 212.410156 350.066406 194.597656 350.066406 "/>
<path style=" stroke:none;fill-rule:nonzero;fill:rgb(100%,100%,100%);fill-opacity:1;" d="M 167.738281 298.738281 L 167.738281 245.875 C 167.738281 232.507812 178.667969 221.578125 192.035156 221.578125 L 197.164062 221.578125 C 210.53125 221.578125 221.472656 232.507812 221.472656 245.875 L 221.472656 298.738281 C 221.472656 312.109375 210.53125 323.0625 197.164062 323.0625 "/>
<path style=" stroke:none;fill-rule:nonzero;fill:rgb(98.81897%,21.179199%,23.139954%);fill-opacity:1;" d="M 197.164062 326.070312 C 195.5 326.070312 194.152344 324.722656 194.152344 323.0625 C 194.152344 321.398438 195.5 320.050781 197.164062 320.050781 C 208.90625 320.050781 218.460938 310.484375 218.460938 298.738281 L 218.460938 245.875 C 218.460938 234.128906 208.90625 224.585938 197.164062 224.585938 L 192.035156 224.585938 C 180.304688 224.585938 170.75 234.128906 170.75 245.875 L 170.75 298.738281 C 170.75 300.402344 169.402344 301.75 167.738281 301.75 C 166.078125 301.75 164.730469 300.402344 164.730469 298.738281 L 164.730469 245.875 C 164.730469 230.820312 176.980469 218.570312 192.035156 218.570312 L 197.164062 218.570312 C 212.230469 218.570312 224.480469 230.820312 224.480469 245.875 L 224.480469 298.738281 C 224.480469 313.804688 212.230469 326.070312 197.164062 326.070312 "/>
<path style=" stroke:none;fill-rule:nonzero;fill:rgb(100%,100%,100%);fill-opacity:1;" d="M 260.125 225.488281 C 260.125 225.488281 272.710938 221.207031 280.75 207.175781 C 289.5 191.941406 284.011719 182.445312 282.277344 180.386719 C 277.535156 174.78125 270.242188 178.378906 269.039062 180.386719 C 267.835938 182.398438 250.398438 214.046875 260.125 225.488281 "/>
<path style=" stroke:none;fill-rule:nonzero;fill:rgb(98.81897%,21.179199%,23.139954%);fill-opacity:1;" d="M 275.972656 180.386719 C 273.832031 180.386719 271.929688 181.566406 271.566406 182.011719 C 268.765625 186.679688 256.417969 211.300781 261.253906 221.722656 C 264.949219 219.894531 272.699219 215.164062 278.136719 205.683594 C 286.753906 190.664062 280.257812 182.660156 279.96875 182.324219 C 278.871094 181.023438 277.5625 180.386719 275.972656 180.386719 Z M 260.125 228.5 C 259.257812 228.5 258.414062 228.125 257.824219 227.441406 C 246.128906 213.660156 266.25 179.183594 266.453125 178.835938 C 267.777344 176.644531 271.6875 174.371094 275.972656 174.371094 C 279.355469 174.371094 282.324219 175.789062 284.578125 178.449219 C 288.136719 182.671875 291.894531 193.804688 283.359375 208.679688 C 274.851562 223.515625 261.652344 228.148438 261.085938 228.34375 C 260.773438 228.449219 260.449219 228.5 260.125 228.5 "/>
<path style=" stroke:none;fill-rule:nonzero;fill:rgb(100%,100%,100%);fill-opacity:1;" d="M 132.347656 225.488281 C 132.347656 225.488281 119.761719 221.207031 111.722656 207.175781 C 102.984375 191.941406 108.460938 182.445312 110.207031 180.386719 C 114.933594 174.78125 122.238281 178.378906 123.441406 180.386719 C 124.648438 182.398438 142.070312 214.046875 132.347656 225.488281 "/>
<path style=" stroke:none;fill-rule:nonzero;fill:rgb(98.81897%,21.179199%,23.139954%);fill-opacity:1;" d="M 116.5 180.386719 C 114.910156 180.386719 113.597656 181.023438 112.503906 182.324219 C 112.214844 182.660156 105.71875 190.664062 114.332031 205.683594 C 119.808594 215.238281 127.523438 219.929688 131.21875 221.734375 C 136.054688 211.3125 123.707031 186.679688 120.855469 181.941406 C 120.542969 181.566406 118.640625 180.386719 116.5 180.386719 Z M 132.347656 228.5 C 132.023438 228.5 131.699219 228.449219 131.375 228.34375 C 130.820312 228.148438 117.617188 223.515625 109.109375 208.679688 C 100.578125 193.792969 104.332031 182.671875 107.894531 178.449219 C 110.144531 175.789062 113.117188 174.371094 116.5 174.371094 C 120.785156 174.371094 124.695312 176.644531 126.019531 178.835938 C 126.222656 179.183594 146.34375 213.660156 134.648438 227.441406 C 134.058594 228.125 133.214844 228.5 132.347656 228.5 "/>
<path style=" stroke:none;fill-rule:nonzero;fill:rgb(100%,100%,100%);fill-opacity:1;" d="M 272.46875 177.957031 C 272.46875 131.84375 238.414062 94.441406 196.40625 94.441406 C 154.40625 94.441406 120.351562 131.84375 120.351562 177.957031 C 120.351562 224.09375 154.40625 272.3125 196.40625 272.3125 C 235.875 272.3125 272.46875 223.710938 272.46875 177.957031 "/>
<path style=" stroke:none;fill-rule:nonzero;fill:rgb(98.81897%,21.179199%,23.139954%);fill-opacity:1;" d="M 196.40625 97.449219 C 156.128906 97.449219 123.359375 133.574219 123.359375 177.957031 C 123.359375 199.953125 131.242188 222.78125 145.007812 240.605469 C 159.304688 259.113281 177.558594 269.304688 196.40625 269.304688 C 214.023438 269.304688 232.410156 258.777344 246.875 240.425781 C 261.230469 222.21875 269.460938 199.449219 269.460938 177.957031 C 269.460938 133.574219 236.695312 97.449219 196.40625 97.449219 Z M 196.40625 275.324219 C 151.15625 275.324219 117.34375 223.925781 117.34375 177.957031 C 117.34375 130.253906 152.804688 91.433594 196.40625 91.433594 C 240.003906 91.433594 275.480469 130.253906 275.480469 177.957031 C 275.480469 227.101562 236.308594 275.324219 196.40625 275.324219 "/>
<path style=" stroke:none;fill-rule:nonzero;fill:rgb(98.81897%,21.179199%,23.139954%);fill-opacity:1;" d="M 253.46875 176.546875 C 252.914062 176.546875 252.363281 176.390625 251.855469 176.078125 C 230.386719 162.398438 211.542969 173.734375 210.761719 174.226562 C 209.339844 175.09375 207.488281 174.660156 206.621094 173.25 C 205.742188 171.84375 206.175781 169.988281 207.570312 169.113281 C 208.5 168.546875 230.339844 155.238281 255.09375 171 C 256.488281 171.890625 256.898438 173.757812 256.007812 175.152344 C 255.429688 176.054688 254.46875 176.546875 253.46875 176.546875 "/>
<path style=" stroke:none;fill-rule:nonzero;fill:rgb(98.81897%,21.179199%,23.139954%);fill-opacity:1;" d="M 244.285156 189.882812 C 243.746094 189.882812 243.203125 189.738281 242.710938 189.4375 C 229.894531 181.542969 219.941406 189.171875 219.847656 189.246094 C 218.535156 190.265625 216.644531 190.039062 215.609375 188.738281 C 214.585938 187.4375 214.816406 185.539062 216.128906 184.515625 C 216.65625 184.09375 229.523438 174.238281 245.863281 184.324219 C 247.285156 185.1875 247.714844 187.042969 246.851562 188.460938 C 246.273438 189.375 245.296875 189.882812 244.285156 189.882812 "/>
<path style=" stroke:none;fill-rule:nonzero;fill:rgb(98.81897%,21.179199%,23.139954%);fill-opacity:1;" d="M 139.785156 189.882812 C 138.773438 189.882812 137.789062 189.375 137.222656 188.460938 C 136.34375 187.042969 136.789062 185.1875 138.207031 184.324219 C 154.539062 174.238281 167.402344 184.082031 167.945312 184.515625 C 169.257812 185.539062 169.472656 187.4375 168.449219 188.738281 C 167.425781 190.039062 165.539062 190.265625 164.238281 189.257812 C 163.816406 188.929688 154.035156 181.625 141.363281 189.4375 C 140.867188 189.738281 140.328125 189.882812 139.785156 189.882812 "/>
<path style=" stroke:none;fill-rule:nonzero;fill:rgb(98.81897%,21.179199%,23.139954%);fill-opacity:1;" d="M 174.492188 175.984375 C 173.863281 175.984375 173.226562 175.789062 172.699219 175.394531 C 171.941406 174.839844 154.105469 161.988281 131.589844 173.828125 C 130.121094 174.609375 128.292969 174.046875 127.523438 172.578125 C 126.753906 171.109375 127.304688 169.28125 128.785156 168.511719 C 154.753906 154.851562 175.429688 169.917969 176.296875 170.566406 C 177.621094 171.566406 177.894531 173.445312 176.898438 174.78125 C 176.308594 175.574219 175.40625 175.984375 174.492188 175.984375 "/>
<path style=" stroke:none;fill-rule:nonzero;fill:rgb(98.81897%,21.179199%,23.139954%);fill-opacity:1;" d="M 193.105469 224.671875 C 189.847656 224.671875 187.390625 223.515625 187.246094 223.445312 C 185.753906 222.722656 185.128906 220.917969 185.851562 219.425781 C 186.574219 217.933594 188.355469 217.308594 189.847656 218.015625 C 189.953125 218.066406 193.058594 219.4375 195.972656 218.027344 C 197.464844 217.308594 199.257812 217.933594 199.992188 219.425781 C 200.710938 220.917969 200.085938 222.722656 198.582031 223.445312 C 196.679688 224.371094 194.78125 224.671875 193.105469 224.671875 "/>
<path style=" stroke:none;fill-rule:nonzero;fill:rgb(98.81897%,21.179199%,23.139954%);fill-opacity:1;" d="M 191.84375 238.582031 C 183.550781 238.582031 178.003906 236.105469 177.667969 235.949219 C 176.152344 235.261719 175.488281 233.46875 176.1875 231.964844 C 176.875 230.460938 178.65625 229.785156 180.160156 230.472656 C 180.351562 230.554688 190.941406 235.152344 204.203125 230.386719 C 205.765625 229.824219 207.488281 230.640625 208.054688 232.191406 C 208.617188 233.769531 207.800781 235.492188 206.234375 236.042969 C 200.953125 237.945312 196.042969 238.582031 191.84375 238.582031 "/>
<path style=" stroke:none;fill-rule:nonzero;fill:rgb(98.81897%,21.179199%,23.139954%);fill-opacity:1;" d="M 234.636719 194.058594 C 234.636719 199.652344 231.398438 204.203125 227.390625 204.203125 C 223.382812 204.203125 220.148438 199.652344 220.148438 194.058594 C 220.148438 188.4375 223.382812 183.890625 227.390625 183.890625 C 231.398438 183.890625 234.636719 188.4375 234.636719 194.058594 "/>
<path style=" stroke:none;fill-rule:nonzero;fill:rgb(98.81897%,21.179199%,23.139954%);fill-opacity:1;" d="M 164.273438 194.058594 C 164.273438 199.652344 161.023438 204.203125 157.03125 204.203125 C 153.023438 204.203125 149.773438 199.652344 149.773438 194.058594 C 149.773438 188.4375 153.023438 183.890625 157.03125 183.890625 C 161.023438 183.890625 164.273438 188.4375 164.273438 194.058594 "/>
<path style=" stroke:none;fill-rule:nonzero;fill:rgb(98.81897%,21.179199%,23.139954%);fill-opacity:1;" d="M 203.25 144.285156 C 203.25 144.285156 217.558594 190.328125 271.375 185.753906 C 271.375 185.753906 280.773438 172.167969 277.597656 142.625 C 274.011719 109.328125 244.515625 81.300781 196.40625 91.335938 C 196.40625 91.335938 192.011719 114.996094 203.25 144.285156 "/>
<path style=" stroke:none;fill-rule:nonzero;fill:rgb(98.81897%,21.179199%,23.139954%);fill-opacity:1;" d="M 199.089844 93.875 C 198.390625 100.050781 197.113281 119.894531 206.066406 143.214844 C 206.089844 143.273438 206.105469 143.335938 206.128906 143.394531 C 206.632812 145.007812 219.113281 183.058594 264.011719 183.070312 L 264.023438 183.070312 C 265.828125 183.070312 267.691406 183 269.570312 182.878906 C 271.554688 179.101562 277.101562 166.113281 274.601562 142.949219 C 271.894531 117.726562 252.566406 92.289062 215.527344 92.289062 C 210.253906 92.289062 204.742188 92.816406 199.089844 93.875 Z M 264.023438 189.085938 L 264.011719 189.085938 C 215.886719 189.074219 201.277344 147.847656 200.410156 145.296875 C 189.050781 115.597656 193.261719 91.792969 193.457031 90.785156 C 193.671875 89.59375 194.597656 88.640625 195.789062 88.386719 C 202.566406 86.980469 209.207031 86.269531 215.527344 86.269531 C 256.296875 86.269531 277.585938 114.40625 280.59375 142.3125 C 283.855469 172.613281 274.261719 186.875 273.855469 187.464844 C 273.347656 188.210938 272.53125 188.679688 271.628906 188.75 C 269.050781 188.96875 266.488281 189.085938 264.023438 189.085938 "/>
<path style=" stroke:none;fill-rule:nonzero;fill:rgb(98.81897%,21.179199%,23.139954%);fill-opacity:1;" d="M 205.660156 94.441406 C 205.660156 94.441406 207.65625 85.730469 200.4375 78.90625 C 193.214844 72.082031 97.617188 86.089844 120.351562 177.957031 C 120.351562 177.957031 142.625 123.035156 201.640625 118.21875 L 205.660156 94.441406 "/>
<path style=" stroke:none;fill-rule:nonzero;fill:rgb(98.81897%,21.179199%,23.139954%);fill-opacity:1;" d="M 192.976562 80.421875 C 178.773438 80.421875 150.050781 88.339844 133.429688 109.566406 C 121.253906 125.128906 117.257812 145.066406 121.492188 168.929688 C 124.5625 163.457031 129.496094 155.777344 136.632812 147.871094 C 148.507812 134.730469 168.882812 118.605469 199.0625 115.429688 L 202.699219 93.949219 C 202.699219 93.886719 202.710938 93.828125 202.722656 93.769531 C 202.78125 93.503906 204.191406 86.582031 198.378906 81.085938 C 198.148438 80.953125 196.5625 80.421875 192.976562 80.421875 Z M 120.351562 180.964844 L 120.132812 180.964844 C 118.835938 180.867188 117.738281 179.953125 117.425781 178.691406 C 110.132812 149.230469 113.925781 124.730469 128.703125 105.863281 C 146.753906 82.78125 177.03125 74.40625 192.976562 74.40625 C 200.074219 74.40625 201.902344 76.148438 202.503906 76.714844 C 210.519531 84.273438 208.859375 93.804688 208.617188 95.007812 L 204.613281 118.714844 C 204.382812 120.074219 203.265625 121.097656 201.890625 121.203125 C 145.476562 125.8125 123.359375 178.558594 123.140625 179.101562 C 122.671875 180.242188 121.566406 180.964844 120.351562 180.964844 "/>
<path style=" stroke:none;fill-rule:nonzero;fill:rgb(98.81897%,21.179199%,23.139954%);fill-opacity:1;" d="M 164.875 113.585938 C 164.875 113.585938 164.480469 113.972656 163.816406 114.71875 C 158.835938 120.339844 138.738281 146.285156 158.726562 179.21875 C 158.726562 179.21875 178.472656 137.234375 201.722656 128.652344 C 224.972656 120.074219 191.085938 106.03125 191.085938 106.03125 "/>
<path style=" stroke:none;fill-rule:nonzero;fill:rgb(98.81897%,21.179199%,23.139954%);fill-opacity:1;" d="M 158.726562 182.226562 C 157.679688 182.226562 156.703125 181.6875 156.164062 180.785156 C 134.921875 145.789062 156.933594 117.945312 161.566406 112.722656 C 162.3125 111.878906 162.757812 111.445312 162.757812 111.445312 C 163.949219 110.277344 165.851562 110.289062 167.019531 111.480469 C 168.171875 112.660156 168.160156 114.5625 166.980469 115.730469 C 166.945312 115.765625 166.609375 116.089844 166.066406 116.714844 C 160.566406 122.925781 144.585938 144.550781 158.617188 172.78125 C 164.828125 161.035156 181.339844 132.960938 200.675781 125.824219 C 204.527344 124.40625 206.835938 122.734375 206.863281 121.359375 C 206.921875 118.074219 198.160156 112.214844 189.941406 108.808594 C 188.402344 108.171875 187.679688 106.414062 188.316406 104.875 C 188.945312 103.347656 190.699219 102.613281 192.242188 103.25 C 195.71875 104.695312 213.058594 112.347656 212.878906 121.480469 C 212.792969 125.65625 209.402344 129.027344 202.769531 131.46875 C 180.953125 139.519531 161.652344 180.085938 161.457031 180.496094 C 160.988281 181.507812 159.988281 182.167969 158.894531 182.226562 L 158.726562 182.226562 "/>
</g>
</svg>
