<?xml version="1.0" encoding="UTF-8"?>
<svg xmlns="http://www.w3.org/2000/svg" xmlns:xlink="http://www.w3.org/1999/xlink" width="384pt" height="383.999986pt" viewBox="0 0 384 383.999986" version="1.2">
<defs>
<clipPath id="clip1">
  <path d="M 82.09375 31 L 301.785156 31 L 301.785156 352.984375 L 82.09375 352.984375 Z M 82.09375 31 "/>
</clipPath>
</defs>
<g id="surface1">
<path style=" stroke:none;fill-rule:nonzero;fill:black;fill-opacity:1;" d="M 299.96875 140.8125 C 299.96875 244.832031 191.898438 350.84375 191.898438 350.84375 C 191.898438 350.84375 83.824219 236.828125 83.824219 140.8125 C 83.824219 81.164062 132.210938 32.800781 191.898438 32.800781 C 251.585938 32.800781 299.96875 81.164062 299.96875 140.8125 "/>
<g clip-path="url(#clip1)" clip-rule="nonzero">
<path style=" stroke:none;fill-rule:nonzero;fill:rgb(100%,100%,100%);fill-opacity:1;" d="M 299.96875 140.8125 L 298.214844 140.8125 C 298.21875 166.515625 291.53125 192.429688 281.460938 216.84375 C 266.359375 253.46875 243.644531 286.691406 224.714844 310.726562 C 215.246094 322.75 206.722656 332.472656 200.574219 339.191406 C 197.5 342.542969 195.019531 345.152344 193.308594 346.914062 C 192.453125 347.796875 191.789062 348.464844 191.34375 348.917969 C 191.121094 349.140625 190.949219 349.3125 190.835938 349.425781 C 190.722656 349.535156 190.667969 349.589844 190.667969 349.589844 L 191.898438 350.84375 L 193.171875 349.632812 C 193.171875 349.632812 193.070312 349.53125 192.867188 349.316406 C 189.742188 345.972656 162.859375 316.859375 136.796875 277.039062 C 123.765625 257.136719 110.941406 234.550781 101.394531 211.203125 C 91.84375 187.855469 85.574219 163.75 85.578125 140.8125 C 85.578125 111.46875 97.476562 84.914062 116.714844 65.675781 C 135.964844 46.449219 162.53125 34.558594 191.898438 34.554688 C 221.261719 34.558594 247.828125 46.449219 267.078125 65.675781 C 286.316406 84.914062 298.214844 111.46875 298.214844 140.8125 L 301.726562 140.8125 C 301.726562 80.191406 252.554688 31.046875 191.898438 31.042969 C 131.238281 31.046875 82.066406 80.191406 82.066406 140.8125 C 82.070312 165.148438 88.902344 190.484375 99.089844 214.816406 C 114.378906 251.3125 137.25 285.582031 156.304688 310.761719 C 175.351562 335.9375 190.589844 352.015625 190.621094 352.050781 C 190.945312 352.390625 191.394531 352.589844 191.863281 352.59375 C 192.332031 352.605469 192.789062 352.421875 193.125 352.09375 C 193.175781 352.042969 220.261719 325.476562 247.382812 285.824219 C 260.941406 265.996094 274.511719 242.898438 284.707031 218.179688 C 294.898438 193.46875 301.726562 167.125 301.726562 140.8125 L 299.96875 140.8125 "/>
</g>
<path style=" stroke:none;fill-rule:nonzero;fill:rgb(100%,100%,100%);fill-opacity:1;" d="M 274.957031 145.816406 C 274.957031 191.660156 237.769531 228.828125 191.898438 228.828125 C 146.027344 228.828125 108.839844 191.660156 108.839844 145.816406 C 108.839844 99.972656 146.027344 62.804688 191.898438 62.804688 C 237.769531 62.804688 274.957031 99.972656 274.957031 145.816406 "/>
</g>
</svg>
