<?xml version="1.0" encoding="UTF-8"?>
<svg xmlns="http://www.w3.org/2000/svg" xmlns:xlink="http://www.w3.org/1999/xlink" width="384pt" height="383.999986pt" viewBox="0 0 384 383.999986" version="1.2">
<g id="surface1">
<path style=" stroke:none;fill-rule:nonzero;fill:rgb(32.159424%,44.309998%,100%);fill-opacity:1;" d="M 214.378906 29.089844 C 214.296875 30.394531 214.46875 31.667969 214.886719 32.90625 C 215.304688 34.148438 215.941406 35.261719 216.792969 36.25 C 217.683594 37.234375 218.722656 38.011719 219.914062 38.585938 C 221.109375 39.15625 222.367188 39.484375 223.6875 39.5625 L 312.035156 44.128906 L 197.996094 158.164062 C 151.898438 125.402344 87.363281 129.523438 46.097656 170.875 C 0 216.882812 0 291.894531 46.097656 337.902344 C 92.195312 383.910156 167.117188 384 213.125 337.902344 C 254.476562 296.636719 258.597656 232.101562 225.835938 186.003906 L 339.871094 71.964844 L 344.4375 160.3125 C 344.496094 161.640625 344.8125 162.902344 345.390625 164.097656 C 345.964844 165.292969 346.75 166.328125 347.75 167.207031 C 348.738281 168.058594 349.851562 168.695312 351.09375 169.113281 C 352.332031 169.53125 353.605469 169.703125 354.910156 169.621094 L 374.601562 168.28125 C 375.238281 168.238281 375.867188 168.136719 376.484375 167.976562 C 377.101562 167.8125 377.695312 167.589844 378.269531 167.3125 C 378.84375 167.03125 379.382812 166.699219 379.890625 166.3125 C 380.398438 165.925781 380.867188 165.492188 381.289062 165.015625 C 381.714844 164.539062 382.085938 164.023438 382.410156 163.472656 C 382.730469 162.921875 382.996094 162.347656 383.207031 161.742188 C 383.417969 161.140625 383.566406 160.523438 383.652344 159.890625 C 383.742188 159.257812 383.769531 158.625 383.730469 157.984375 L 376.210938 17.097656 C 376.179688 16.496094 376.09375 15.902344 375.953125 15.316406 C 375.8125 14.730469 375.617188 14.160156 375.375 13.609375 C 375.128906 13.0625 374.835938 12.539062 374.492188 12.042969 C 374.152344 11.542969 373.769531 11.082031 373.34375 10.65625 C 372.917969 10.230469 372.457031 9.847656 371.957031 9.507812 C 371.460938 9.164062 370.9375 8.871094 370.390625 8.625 C 369.839844 8.382812 369.269531 8.1875 368.683594 8.046875 C 368.097656 7.90625 367.503906 7.820312 366.902344 7.789062 L 226.015625 0.269531 C 225.375 0.230469 224.742188 0.257812 224.109375 0.347656 C 223.476562 0.433594 222.859375 0.582031 222.257812 0.792969 C 221.652344 1.003906 221.078125 1.269531 220.527344 1.589844 C 219.976562 1.914062 219.460938 2.285156 218.984375 2.710938 C 218.507812 3.132812 218.074219 3.601562 217.6875 4.109375 C 217.300781 4.617188 216.96875 5.15625 216.6875 5.730469 C 216.410156 6.304688 216.1875 6.898438 216.023438 7.515625 C 215.863281 8.132812 215.761719 8.761719 215.71875 9.398438 Z M 185.285156 198.714844 C 186.199219 199.625 187.089844 200.558594 187.953125 201.511719 C 188.820312 202.46875 189.664062 203.445312 190.480469 204.441406 C 191.300781 205.4375 192.09375 206.453125 192.859375 207.488281 C 193.628906 208.523438 194.371094 209.574219 195.089844 210.648438 C 195.804688 211.71875 196.496094 212.808594 197.160156 213.914062 C 197.820312 215.019531 198.457031 216.140625 199.066406 217.277344 C 199.675781 218.414062 200.253906 219.566406 200.804688 220.730469 C 201.359375 221.898438 201.878906 223.074219 202.375 224.265625 C 202.867188 225.457031 203.332031 226.660156 203.765625 227.875 C 204.203125 229.085938 204.605469 230.3125 204.980469 231.542969 C 205.355469 232.777344 205.699219 234.019531 206.015625 235.269531 C 206.328125 236.519531 206.609375 237.777344 206.863281 239.042969 C 207.113281 240.308594 207.335938 241.578125 207.523438 242.851562 C 207.714844 244.128906 207.871094 245.40625 208 246.691406 C 208.125 247.972656 208.222656 249.257812 208.285156 250.546875 C 208.347656 251.835938 208.378906 253.125 208.378906 254.414062 C 208.378906 255.703125 208.347656 256.992188 208.285156 258.277344 C 208.222656 259.566406 208.128906 260.851562 208.003906 262.136719 C 207.878906 263.417969 207.71875 264.699219 207.53125 265.972656 C 207.339844 267.25 207.121094 268.519531 206.871094 269.78125 C 206.621094 271.046875 206.335938 272.304688 206.023438 273.554688 C 205.710938 274.808594 205.367188 276.050781 204.992188 277.28125 C 204.621094 278.515625 204.214844 279.742188 203.78125 280.953125 C 203.347656 282.167969 202.882812 283.371094 202.390625 284.5625 C 201.898438 285.753906 201.375 286.933594 200.824219 288.097656 C 200.273438 289.265625 199.695312 290.414062 199.085938 291.554688 C 198.480469 292.691406 197.84375 293.8125 197.179688 294.917969 C 196.519531 296.023438 195.828125 297.113281 195.113281 298.183594 C 194.398438 299.257812 193.65625 300.3125 192.886719 301.347656 C 192.117188 302.382812 191.324219 303.398438 190.507812 304.394531 C 189.691406 305.390625 188.847656 306.367188 187.984375 307.324219 C 187.117188 308.28125 186.230469 309.214844 185.316406 310.125 C 184.40625 311.035156 183.472656 311.925781 182.515625 312.792969 C 181.5625 313.65625 180.585938 314.5 179.589844 315.316406 C 178.59375 316.136719 177.578125 316.929688 176.539062 317.695312 C 175.503906 318.464844 174.453125 319.207031 173.378906 319.925781 C 172.308594 320.640625 171.21875 321.332031 170.113281 321.992188 C 169.007812 322.65625 167.886719 323.292969 166.75 323.898438 C 165.613281 324.507812 164.460938 325.085938 163.292969 325.636719 C 162.128906 326.191406 160.949219 326.710938 159.757812 327.207031 C 158.570312 327.699219 157.367188 328.164062 156.152344 328.597656 C 154.9375 329.03125 153.714844 329.4375 152.480469 329.808594 C 151.246094 330.183594 150.003906 330.527344 148.753906 330.84375 C 147.503906 331.15625 146.246094 331.4375 144.980469 331.6875 C 143.714844 331.941406 142.445312 332.160156 141.171875 332.351562 C 139.894531 332.539062 138.617188 332.699219 137.332031 332.824219 C 136.050781 332.949219 134.765625 333.046875 133.476562 333.109375 C 132.1875 333.171875 130.902344 333.203125 129.609375 333.203125 C 128.320312 333.203125 127.035156 333.171875 125.746094 333.109375 C 124.457031 333.046875 123.171875 332.949219 121.890625 332.824219 C 120.605469 332.699219 119.328125 332.539062 118.050781 332.351562 C 116.777344 332.160156 115.507812 331.941406 114.242188 331.6875 C 112.976562 331.4375 111.71875 331.15625 110.46875 330.84375 C 109.21875 330.527344 107.976562 330.183594 106.742188 329.808594 C 105.507812 329.4375 104.285156 329.03125 103.070312 328.597656 C 101.855469 328.164062 100.652344 327.699219 99.460938 327.207031 C 98.269531 326.710938 97.09375 326.191406 95.925781 325.636719 C 94.761719 325.085938 93.609375 324.507812 92.472656 323.898438 C 91.335938 323.292969 90.214844 322.65625 89.109375 321.992188 C 88.003906 321.332031 86.914062 320.640625 85.84375 319.925781 C 84.769531 319.207031 83.71875 318.464844 82.679688 317.695312 C 81.644531 316.929688 80.628906 316.136719 79.632812 315.316406 C 78.636719 314.5 77.660156 313.65625 76.707031 312.792969 C 75.75 311.925781 74.816406 311.035156 73.90625 310.125 C 72.992188 309.214844 72.105469 308.28125 71.238281 307.324219 C 70.375 306.367188 69.53125 305.390625 68.714844 304.394531 C 67.894531 303.398438 67.101562 302.382812 66.335938 301.347656 C 65.566406 300.3125 64.824219 299.257812 64.109375 298.183594 C 63.394531 297.113281 62.703125 296.023438 62.042969 294.917969 C 61.378906 293.8125 60.742188 292.691406 60.136719 291.554688 C 59.527344 290.414062 58.949219 289.265625 58.398438 288.097656 C 57.847656 286.933594 57.324219 285.753906 56.832031 284.5625 C 56.339844 283.371094 55.875 282.167969 55.441406 280.953125 C 55.007812 279.742188 54.601562 278.515625 54.230469 277.28125 C 53.855469 276.050781 53.511719 274.808594 53.199219 273.554688 C 52.886719 272.304688 52.601562 271.046875 52.351562 269.78125 C 52.101562 268.519531 51.878906 267.25 51.691406 265.972656 C 51.503906 264.699219 51.34375 263.417969 51.21875 262.136719 C 51.09375 260.851562 51 259.566406 50.9375 258.277344 C 50.871094 256.992188 50.839844 255.703125 50.84375 254.414062 C 50.84375 253.125 50.875 251.835938 50.9375 250.546875 C 51 249.257812 51.097656 247.972656 51.222656 246.691406 C 51.351562 245.40625 51.507812 244.128906 51.699219 242.851562 C 51.886719 241.578125 52.109375 240.308594 52.359375 239.042969 C 52.613281 237.777344 52.894531 236.519531 53.207031 235.269531 C 53.523438 234.019531 53.867188 232.777344 54.242188 231.542969 C 54.617188 230.3125 55.019531 229.085938 55.457031 227.875 C 55.890625 226.660156 56.355469 225.457031 56.847656 224.265625 C 57.34375 223.074219 57.863281 221.898438 58.417969 220.730469 C 58.96875 219.566406 59.546875 218.414062 60.15625 217.277344 C 60.765625 216.140625 61.398438 215.019531 62.0625 213.914062 C 62.726562 212.808594 63.417969 211.71875 64.132812 210.648438 C 64.851562 209.574219 65.59375 208.523438 66.359375 207.488281 C 67.128906 206.453125 67.921875 205.4375 68.742188 204.441406 C 69.558594 203.445312 70.402344 202.46875 71.269531 201.511719 C 72.132812 200.558594 73.023438 199.625 73.9375 198.714844 C 74.847656 197.800781 75.777344 196.914062 76.734375 196.046875 C 77.6875 195.179688 78.664062 194.335938 79.660156 193.519531 C 80.652344 192.699219 81.667969 191.90625 82.703125 191.140625 C 83.738281 190.371094 84.792969 189.628906 85.863281 188.910156 C 86.933594 188.195312 88.023438 187.503906 89.128906 186.84375 C 90.234375 186.179688 91.355469 185.542969 92.488281 184.933594 C 93.625 184.328125 94.777344 183.746094 95.941406 183.195312 C 97.105469 182.644531 98.285156 182.121094 99.476562 181.628906 C 100.664062 181.132812 101.867188 180.671875 103.082031 180.234375 C 104.292969 179.800781 105.519531 179.398438 106.75 179.023438 C 107.984375 178.648438 109.226562 178.304688 110.476562 177.988281 C 111.726562 177.675781 112.984375 177.394531 114.246094 177.140625 C 115.511719 176.890625 116.78125 176.671875 118.054688 176.480469 C 119.332031 176.292969 120.609375 176.132812 121.890625 176.007812 C 123.175781 175.882812 124.460938 175.785156 125.746094 175.722656 C 127.035156 175.660156 128.324219 175.628906 129.609375 175.628906 C 130.898438 175.628906 132.1875 175.660156 133.476562 175.722656 C 134.761719 175.785156 136.046875 175.882812 137.332031 176.007812 C 138.613281 176.132812 139.890625 176.292969 141.167969 176.480469 C 142.441406 176.671875 143.710938 176.890625 144.976562 177.140625 C 146.238281 177.394531 147.496094 177.675781 148.746094 177.988281 C 149.996094 178.304688 151.238281 178.648438 152.472656 179.023438 C 153.703125 179.398438 154.929688 179.800781 156.140625 180.234375 C 157.355469 180.671875 158.554688 181.132812 159.746094 181.628906 C 160.9375 182.121094 162.117188 182.644531 163.28125 183.195312 C 164.445312 183.746094 165.597656 184.328125 166.730469 184.933594 C 167.867188 185.542969 168.988281 186.179688 170.09375 186.84375 C 171.199219 187.503906 172.289062 188.195312 173.359375 188.910156 C 174.429688 189.628906 175.484375 190.371094 176.519531 191.140625 C 177.554688 191.90625 178.566406 192.699219 179.5625 193.519531 C 180.558594 194.335938 181.535156 195.179688 182.488281 196.046875 C 183.445312 196.914062 184.375 197.800781 185.285156 198.714844 Z M 185.285156 198.714844 "/>
</g>
</svg>
