<?xml version="1.0" encoding="UTF-8"?>
<svg xmlns="http://www.w3.org/2000/svg" xmlns:xlink="http://www.w3.org/1999/xlink" width="384pt" height="383.999986pt" viewBox="0 0 384 383.999986" version="1.2">
<defs>
<clipPath id="clip1">
  <path d="M 22.183594 76 L 361.933594 76 L 361.933594 322 L 22.183594 322 Z M 22.183594 76 "/>
</clipPath>
<clipPath id="clip2">
  <path d="M 22.183594 47 L 88 47 L 88 258 L 22.183594 258 Z M 22.183594 47 "/>
</clipPath>
</defs>
<g id="surface1">
<g clip-path="url(#clip1)" clip-rule="nonzero">
<path style=" stroke:none;fill-rule:nonzero;fill:rgb(11.759949%,45.878601%,85.099792%);fill-opacity:1;" d="M 276.308594 158.300781 L 273.398438 161.195312 C 271.21875 163.605469 268.144531 165.035156 264.921875 165.035156 C 262.941406 165.035156 260.980469 164.464844 259.125 163.445312 L 165.824219 163.070312 C 154.820312 163.191406 149.527344 170.414062 149.296875 177.082031 C 149.089844 183.152344 153.339844 190.597656 165.992188 191.597656 L 271.898438 191.5625 C 291.921875 191.953125 300.816406 209.566406 300.652344 225.765625 C 300.488281 242.53125 290.554688 259.503906 271.898438 259.503906 L 179.367188 259.503906 C 176.6875 269.109375 167.6875 276.230469 156.917969 276.230469 C 144.050781 276.230469 133.589844 266.105469 133.589844 253.667969 C 133.589844 241.222656 144.054688 231.09375 156.917969 231.09375 C 167.6875 231.09375 176.6875 238.222656 179.367188 247.824219 L 271.902344 247.824219 C 283.484375 247.824219 288.867188 236.328125 288.976562 225.652344 C 289.054688 217.453125 285.527344 203.511719 271.789062 203.242188 L 165.539062 203.265625 C 145.648438 201.710938 137.226562 188.40625 137.621094 176.6875 C 138.042969 164.269531 147.851562 151.589844 165.785156 151.390625 L 247.511719 151.726562 C 229.179688 131.554688 203.484375 103.0625 195.351562 76.070312 L 99.136719 76.070312 L 99.34375 272.175781 C 99.34375 275.082031 97.210938 277.546875 94.332031 277.964844 C 91.4375 278.375 88.710938 276.613281 87.894531 273.824219 C 84.152344 261.050781 72.265625 252.796875 57.609375 252.796875 C 40.996094 252.796875 23.710938 264.367188 22.507812 290.203125 L 22.507812 295.53125 C 28.300781 319.351562 61 322.902344 79.546875 321.1875 C 142.550781 319.535156 207.738281 320.121094 270.773438 320.691406 C 300.703125 320.964844 331.578125 321.238281 361.683594 321.269531 L 361.683594 76.066406 L 334.234375 76.066406 C 325.0625 110.089844 290.535156 144.25 276.308594 158.300781 Z M 276.308594 158.300781 "/>
</g>
<path style=" stroke:none;fill-rule:nonzero;fill:rgb(11.759949%,45.878601%,85.099792%);fill-opacity:1;" d="M 256.691406 144.453125 C 259.109375 147.109375 261.300781 149.53125 263.308594 151.785156 L 264.921875 151.792969 C 265.324219 151.792969 265.671875 151.945312 266.050781 152.019531 L 268.097656 149.988281 C 282.132812 136.117188 324.871094 93.90625 324.871094 60.023438 C 324.871094 26.824219 297.851562 -0.195312 264.640625 -0.195312 C 231.433594 -0.195312 204.40625 26.816406 204.40625 60.023438 C 204.414062 86.960938 237.136719 122.949219 256.691406 144.453125 Z M 265.5625 24.949219 C 280.917969 24.949219 293.414062 37.429688 293.414062 52.765625 C 293.414062 68.125 280.917969 80.609375 265.5625 80.609375 C 250.21875 80.609375 237.738281 68.117188 237.738281 52.765625 C 237.738281 37.429688 250.21875 24.949219 265.5625 24.949219 Z M 265.5625 24.949219 "/>
<g clip-path="url(#clip2)" clip-rule="nonzero">
<path style=" stroke:none;fill-rule:nonzero;fill:rgb(11.759949%,45.878601%,85.099792%);fill-opacity:1;" d="M 22.503906 70.097656 L 22.503906 257.292969 C 31.726562 246.316406 45.0625 241.113281 57.601562 241.113281 C 69.253906 241.113281 79.859375 245.265625 87.636719 252.304688 L 87.46875 70.230469 C 85.957031 54.464844 69.464844 47.164062 53.804688 47.164062 C 43.148438 47.164062 33.449219 50.578125 27.863281 56.289062 C 24.1875 60.054688 22.382812 64.695312 22.503906 70.097656 Z M 22.503906 70.097656 "/>
</g>
<path style=" stroke:none;fill-rule:nonzero;fill:rgb(11.759949%,45.878601%,85.099792%);fill-opacity:1;" d="M 145.269531 253.660156 C 145.269531 259.660156 150.496094 264.546875 156.910156 264.546875 C 163.339844 264.546875 168.570312 259.660156 168.570312 253.660156 C 168.570312 247.65625 163.339844 242.773438 156.910156 242.773438 C 150.496094 242.773438 145.269531 247.65625 145.269531 253.660156 Z M 145.269531 253.660156 "/>
</g>
</svg>
