<?xml version="1.0" encoding="UTF-8"?>
<svg xmlns="http://www.w3.org/2000/svg" xmlns:xlink="http://www.w3.org/1999/xlink" width="75pt" height="74.999997pt" viewBox="0 0 75 74.999997" version="1.2">
<defs>
<clipPath id="clip1">
  <path d="M 0 28 L 49 28 L 49 66.523438 L 0 66.523438 Z M 0 28 "/>
</clipPath>
<clipPath id="clip2">
  <path d="M 25 15.566406 L 74.25 15.566406 L 74.25 54 L 25 54 Z M 25 15.566406 "/>
</clipPath>
</defs>
<g id="surface1">
<g clip-path="url(#clip1)" clip-rule="nonzero">
<path style=" stroke:none;fill-rule:nonzero;fill:rgb(0%,0%,0%);fill-opacity:1;" d="M 40.078125 30.222656 L 40.078125 28.816406 L 8.59375 28.816406 C 6.230469 28.816406 4.074219 29.785156 2.527344 31.339844 C 0.976562 32.898438 0.0117188 35.066406 0.015625 37.441406 L 0.015625 50.621094 C 0.015625 52.617188 0.695312 54.46875 1.832031 55.929688 C 2.96875 57.394531 4.566406 58.476562 6.40625 58.964844 L 6.761719 57.601562 L 5.546875 58.304688 L 9.359375 64.941406 C 9.652344 65.449219 10.070312 65.855469 10.542969 66.117188 C 11.015625 66.382812 11.535156 66.507812 12.054688 66.507812 C 12.574219 66.507812 13.097656 66.378906 13.566406 66.117188 C 14.039062 65.855469 14.460938 65.453125 14.75 64.941406 L 18.019531 59.246094 L 40.078125 59.246094 C 42.441406 59.246094 44.59375 58.277344 46.144531 56.71875 C 47.695312 55.160156 48.65625 52.996094 48.65625 50.617188 L 48.65625 37.445312 C 48.65625 35.066406 47.691406 32.902344 46.144531 31.34375 C 44.59375 29.785156 42.441406 28.816406 40.078125 28.816406 L 40.078125 31.632812 C 41.675781 31.632812 43.113281 32.28125 44.164062 33.332031 C 45.210938 34.390625 45.855469 35.832031 45.855469 37.441406 L 45.855469 50.621094 C 45.855469 52.230469 45.210938 53.675781 44.164062 54.730469 C 43.113281 55.785156 41.675781 56.433594 40.078125 56.433594 L 16.402344 56.433594 L 12.324219 63.542969 C 12.285156 63.605469 12.25 63.632812 12.207031 63.660156 C 12.167969 63.683594 12.109375 63.699219 12.050781 63.699219 C 11.992188 63.699219 11.941406 63.683594 11.894531 63.660156 C 11.851562 63.632812 11.820312 63.605469 11.78125 63.542969 L 7.675781 56.394531 L 7.109375 56.246094 C 5.875 55.917969 4.796875 55.191406 4.03125 54.203125 C 3.261719 53.214844 2.808594 51.980469 2.804688 50.628906 L 2.804688 37.445312 C 2.804688 35.835938 3.449219 34.390625 4.5 33.335938 C 5.546875 32.28125 6.984375 31.632812 8.585938 31.632812 L 40.070312 31.632812 L 40.070312 30.222656 "/>
</g>
<g clip-path="url(#clip2)" clip-rule="nonzero">
<path style=" stroke:none;fill-rule:nonzero;fill:rgb(11.759949%,45.878601%,85.099792%);fill-opacity:1;" d="M 65.691406 15.527344 C 65.691406 15.527344 65.6875 15.527344 65.6875 15.527344 L 34.199219 15.527344 C 31.835938 15.527344 29.679688 16.496094 28.132812 18.054688 C 26.582031 19.613281 25.621094 21.777344 25.621094 24.15625 L 25.621094 28.816406 L 28.421875 28.816406 L 28.421875 24.15625 C 28.421875 22.546875 29.066406 21.101562 30.113281 20.046875 C 31.164062 18.992188 32.601562 18.34375 34.199219 18.34375 L 65.6875 18.34375 C 67.289062 18.34375 68.722656 18.992188 69.773438 20.046875 C 70.820312 21.101562 71.464844 22.546875 71.464844 24.15625 L 71.464844 37.339844 C 71.464844 38.691406 71.007812 39.921875 70.242188 40.914062 C 69.472656 41.902344 68.394531 42.628906 67.160156 42.957031 L 66.597656 43.105469 L 62.496094 50.253906 C 62.457031 50.316406 62.421875 50.34375 62.378906 50.371094 C 62.339844 50.394531 62.28125 50.410156 62.222656 50.410156 C 62.164062 50.410156 62.109375 50.394531 62.066406 50.371094 C 62.023438 50.34375 61.992188 50.316406 61.953125 50.253906 L 57.875 43.148438 L 48.65625 43.148438 L 48.65625 45.964844 L 56.253906 45.964844 L 59.523438 51.660156 C 59.816406 52.167969 60.234375 52.574219 60.707031 52.835938 C 61.179688 53.097656 61.699219 53.226562 62.21875 53.226562 C 62.734375 53.226562 63.257812 53.097656 63.730469 52.835938 C 64.203125 52.574219 64.625 52.171875 64.910156 51.660156 L 68.445312 45.507812 C 70.042969 44.960938 71.425781 43.953125 72.441406 42.648438 C 73.578125 41.1875 74.257812 39.335938 74.257812 37.339844 L 74.257812 24.15625 C 74.257812 21.777344 73.292969 19.613281 71.746094 18.054688 C 70.207031 16.496094 68.050781 15.527344 65.691406 15.527344 "/>
</g>
<path style=" stroke:none;fill-rule:nonzero;fill:rgb(98.81897%,21.179199%,23.139954%);fill-opacity:1;" d="M 48.660156 43.152344 L 47.257812 43.152344 C 46.484375 43.152344 45.859375 43.78125 45.859375 44.558594 C 45.859375 45.335938 46.484375 45.96875 47.257812 45.96875 L 48.660156 45.96875 L 48.660156 43.152344 M 28.421875 28.816406 L 25.621094 28.816406 L 25.621094 30.226562 C 25.621094 31.003906 26.246094 31.632812 27.019531 31.632812 C 27.792969 31.632812 28.421875 31.003906 28.421875 30.226562 L 28.421875 28.816406 "/>
</g>
</svg>
