<?xml version="1.0" encoding="UTF-8"?>
<svg xmlns="http://www.w3.org/2000/svg" xmlns:xlink="http://www.w3.org/1999/xlink" width="384pt" height="383.999986pt" viewBox="0 0 384 383.999986" version="1.2">
<defs>
<clipPath id="clip1">
  <path d="M 0 63.535156 L 384 63.535156 L 384 320.609375 L 0 320.609375 Z M 0 63.535156 "/>
</clipPath>
</defs>
<g id="surface1">
<g clip-path="url(#clip1)" clip-rule="nonzero">
<path style=" stroke:none;fill-rule:nonzero;fill:rgb(11.759949%,45.878601%,85.099792%);fill-opacity:1;" d="M 365.03125 63.804688 C 369.628906 63.804688 374.804688 65.53125 378.25 69.554688 C 381.699219 73 384 78.179688 384 82.773438 L 384 301.195312 C 384 305.796875 382.277344 310.96875 378.25 314.417969 C 374.804688 317.863281 369.625 320.164062 365.03125 320.164062 L 18.96875 320.164062 C 14.371094 320.164062 9.195312 318.441406 5.75 314.417969 C 2.300781 310.96875 0 305.796875 0 301.195312 L 0 82.773438 C 0 78.175781 1.722656 73 5.75 69.554688 C 9.195312 66.105469 14.375 63.804688 18.96875 63.804688 Z M 365.03125 63.804688 "/>
</g>
<path style=" stroke:none;fill-rule:nonzero;fill:rgb(96.859741%,96.859741%,96.859741%);fill-opacity:1;" d="M 32.191406 198.308594 L 103.472656 198.308594 L 103.472656 214.40625 L 32.191406 214.40625 Z M 32.191406 198.308594 "/>
<path style=" stroke:none;fill-rule:nonzero;fill:rgb(96.859741%,96.859741%,96.859741%);fill-opacity:1;" d="M 114.96875 198.308594 L 186.25 198.308594 L 186.25 214.40625 L 114.96875 214.40625 Z M 114.96875 198.308594 "/>
<path style=" stroke:none;fill-rule:nonzero;fill:rgb(96.859741%,96.859741%,96.859741%);fill-opacity:1;" d="M 197.75 198.308594 L 269.03125 198.308594 L 269.03125 214.40625 L 197.75 214.40625 Z M 197.75 198.308594 "/>
<path style=" stroke:none;fill-rule:nonzero;fill:rgb(96.859741%,96.859741%,96.859741%);fill-opacity:1;" d="M 281.101562 198.308594 L 352.386719 198.308594 L 352.386719 214.40625 L 281.101562 214.40625 Z M 281.101562 198.308594 "/>
<path style=" stroke:none;fill-rule:nonzero;fill:rgb(96.859741%,96.859741%,96.859741%);fill-opacity:1;" d="M 31.867188 243.855469 L 185.929688 243.855469 L 185.929688 259.949219 L 31.867188 259.949219 Z M 31.867188 243.855469 "/>
<path style=" stroke:none;fill-rule:nonzero;fill:rgb(0%,0%,0%);fill-opacity:1;" d="M 0 110.367188 L 384 110.367188 L 384 168.992188 L 0 168.992188 Z M 0 110.367188 "/>
</g>
</svg>
