<?xml version="1.0" encoding="UTF-8"?>
<svg xmlns="http://www.w3.org/2000/svg" xmlns:xlink="http://www.w3.org/1999/xlink" width="384pt" height="383.999986pt" viewBox="0 0 384 383.999986" version="1.2">
<g id="surface1">
<path style=" stroke:none;fill-rule:nonzero;fill:rgb(100%,82.348633%,18.818665%);fill-opacity:1;" d="M 192 0 C 86.398438 0 0 86.398438 0 192 C 0 297.601562 86.398438 384 192 384 C 297.601562 384 384 297.601562 384 192 C 384 86.398438 297.601562 0 192 0 Z M 211.199219 278.398438 C 211.199219 284.160156 207.359375 288 201.601562 288 L 182.398438 288 C 176.640625 288 172.800781 284.160156 172.800781 278.398438 L 172.800781 259.199219 C 172.800781 253.441406 176.640625 249.601562 182.398438 249.601562 L 201.601562 249.601562 C 207.359375 249.601562 211.199219 253.441406 211.199219 259.199219 Z M 211.199219 192 C 211.199219 203.519531 203.519531 211.199219 192 211.199219 C 180.480469 211.199219 172.800781 203.519531 172.800781 192 L 172.800781 115.199219 C 172.800781 103.679688 180.480469 96 192 96 C 203.519531 96 211.199219 103.679688 211.199219 115.199219 Z M 211.199219 192 "/>
</g>
</svg>
