<?xml version="1.0" encoding="UTF-8"?>
<svg xmlns="http://www.w3.org/2000/svg" xmlns:xlink="http://www.w3.org/1999/xlink" width="384pt" height="383.999986pt" viewBox="0 0 384 383.999986" version="1.2">
<defs>
<clipPath id="clip1">
  <path d="M 197 203 L 322.339844 203 L 322.339844 328.433594 L 197 328.433594 Z M 197 203 "/>
</clipPath>
<clipPath id="clip2">
  <path d="M 83.089844 55.648438 L 289 55.648438 L 289 328.433594 L 83.089844 328.433594 Z M 83.089844 55.648438 "/>
</clipPath>
</defs>
<g id="surface1">
<g clip-path="url(#clip1)" clip-rule="nonzero">
<path style=" stroke:none;fill-rule:nonzero;fill:rgb(11.759949%,45.878601%,85.099792%);fill-opacity:1;" d="M 320.664062 227.71875 L 297.878906 204.96875 C 295.65625 202.753906 292.042969 202.753906 289.824219 204.96875 L 198.679688 295.96875 C 197.621094 297.035156 197.015625 298.480469 197.015625 299.992188 L 197.015625 322.742188 C 197.015625 325.882812 199.570312 328.429688 202.714844 328.429688 L 225.5 328.429688 C 227.015625 328.429688 228.460938 327.828125 229.519531 326.757812 L 297.84375 258.542969 C 297.855469 258.535156 297.867188 258.535156 297.878906 258.523438 C 297.890625 258.511719 297.890625 258.5 297.902344 258.488281 L 320.664062 235.761719 C 322.886719 233.542969 322.886719 229.9375 320.664062 227.71875 Z M 223.140625 317.054688 L 208.410156 317.054688 L 208.410156 302.347656 L 271.070312 239.789062 L 285.800781 254.496094 Z M 293.855469 246.453125 L 279.125 231.746094 L 293.855469 217.039062 L 308.585938 231.746094 Z M 293.855469 246.453125 "/>
</g>
<g clip-path="url(#clip2)" clip-rule="nonzero">
<path style=" stroke:none;fill-rule:nonzero;fill:rgb(11.759949%,45.878601%,85.099792%);fill-opacity:1;" d="M 179.925781 317.054688 L 100.175781 317.054688 C 97.03125 317.054688 94.480469 314.507812 94.480469 311.367188 L 94.480469 95.25 C 94.480469 92.109375 97.03125 89.5625 100.175781 89.5625 L 128.660156 89.5625 L 128.660156 95.25 C 128.660156 98.390625 131.210938 100.9375 134.355469 100.9375 L 236.890625 100.9375 C 240.035156 100.9375 242.589844 98.390625 242.589844 95.25 L 242.589844 89.5625 L 271.070312 89.5625 C 274.214844 89.5625 276.765625 92.109375 276.765625 95.25 L 276.765625 191.933594 C 276.765625 195.074219 279.320312 197.621094 282.464844 197.621094 C 285.609375 197.621094 288.160156 195.074219 288.160156 191.933594 L 288.160156 95.25 C 288.160156 85.84375 280.492188 78.1875 271.070312 78.1875 L 241.539062 78.1875 C 239.183594 71.578125 232.914062 66.8125 225.5 66.8125 L 205.289062 66.8125 C 201.265625 59.875 193.804688 55.4375 185.625 55.4375 C 177.445312 55.4375 169.980469 59.875 165.960938 66.8125 L 145.75 66.8125 C 138.34375 66.8125 132.078125 71.578125 129.71875 78.1875 L 100.175781 78.1875 C 90.753906 78.1875 83.089844 85.84375 83.089844 95.25 L 83.089844 311.367188 C 83.089844 320.777344 90.753906 328.429688 100.175781 328.429688 L 179.925781 328.429688 C 183.070312 328.429688 185.625 325.882812 185.625 322.742188 C 185.625 319.605469 183.070312 317.054688 179.925781 317.054688 Z M 145.75 78.1875 L 169.582031 78.1875 C 171.988281 78.1875 174.140625 76.664062 174.949219 74.402344 C 176.566406 69.863281 180.863281 66.8125 185.625 66.8125 C 190.386719 66.8125 194.679688 69.863281 196.300781 74.402344 C 197.109375 76.675781 199.261719 78.1875 201.664062 78.1875 L 225.5 78.1875 C 228.644531 78.1875 231.195312 80.734375 231.195312 83.875 L 231.195312 89.5625 L 140.050781 89.5625 L 140.050781 83.875 C 140.050781 80.734375 142.605469 78.1875 145.75 78.1875 Z M 145.75 78.1875 "/>
</g>
</g>
</svg>
