<?xml version="1.0" encoding="UTF-8"?>
<svg xmlns="http://www.w3.org/2000/svg" xmlns:xlink="http://www.w3.org/1999/xlink" width="37.5pt" height="37.499999pt" viewBox="0 0 37.5 37.499999" version="1.2">
<defs>
<clipPath id="clip1">
  <path d="M 17 19 L 20 19 L 20 22 L 17 22 Z M 17 19 "/>
</clipPath>
<clipPath id="clip2">
  <path d="M 25.933594 10.671875 L 28.980469 23.050781 L 14.414062 26.632812 L 11.367188 14.253906 Z M 25.933594 10.671875 "/>
</clipPath>
<clipPath id="clip3">
  <path d="M 25.941406 10.667969 L 28.984375 23.050781 L 14.421875 26.632812 L 11.375 14.25 Z M 25.941406 10.667969 "/>
</clipPath>
<clipPath id="clip4">
  <path d="M 18 12 L 27 12 L 27 22 L 18 22 Z M 18 12 "/>
</clipPath>
<clipPath id="clip5">
  <path d="M 25.933594 10.671875 L 28.980469 23.050781 L 14.414062 26.632812 L 11.367188 14.253906 Z M 25.933594 10.671875 "/>
</clipPath>
<clipPath id="clip6">
  <path d="M 25.941406 10.667969 L 28.984375 23.050781 L 14.421875 26.632812 L 11.375 14.25 Z M 25.941406 10.667969 "/>
</clipPath>
<clipPath id="clip7">
  <path d="M 14 20 L 20 20 L 20 27 L 14 27 Z M 14 20 "/>
</clipPath>
<clipPath id="clip8">
  <path d="M 25.933594 10.671875 L 28.980469 23.050781 L 14.414062 26.632812 L 11.367188 14.253906 Z M 25.933594 10.671875 "/>
</clipPath>
<clipPath id="clip9">
  <path d="M 25.941406 10.667969 L 28.984375 23.050781 L 14.421875 26.632812 L 11.375 14.25 Z M 25.941406 10.667969 "/>
</clipPath>
</defs>
<g id="surface1">
<g clip-path="url(#clip1)" clip-rule="nonzero">
<g clip-path="url(#clip2)" clip-rule="nonzero">
<g clip-path="url(#clip3)" clip-rule="nonzero">
<path style=" stroke:none;fill-rule:nonzero;fill:rgb(9.01947%,35.289001%,65.489197%);fill-opacity:1;" d="M 18.699219 21.976562 L 17.847656 21.265625 L 18.996094 19.859375 L 19.847656 20.570312 Z M 18.699219 21.976562 "/>
</g>
</g>
</g>
<g clip-path="url(#clip4)" clip-rule="nonzero">
<g clip-path="url(#clip5)" clip-rule="nonzero">
<g clip-path="url(#clip6)" clip-rule="nonzero">
<path style=" stroke:none;fill-rule:nonzero;fill:rgb(11.759949%,45.878601%,85.099792%);fill-opacity:1;" d="M 25.695312 19.417969 C 27.214844 17.566406 26.945312 14.816406 25.101562 13.277344 C 23.253906 11.742188 20.527344 12 19.007812 13.855469 C 17.722656 15.425781 17.71875 17.636719 18.867188 19.210938 L 18.332031 19.863281 L 19.972656 21.226562 L 20.503906 20.574219 C 22.257812 21.414062 24.410156 20.992188 25.695312 19.417969 Z M 20.214844 19.25 C 18.777344 18.054688 18.570312 15.914062 19.75 14.472656 C 20.929688 13.03125 23.054688 12.828125 24.488281 14.023438 C 25.925781 15.21875 26.132812 17.359375 24.953125 18.800781 C 23.773438 20.242188 21.648438 20.445312 20.214844 19.25 Z M 20.214844 19.25 "/>
</g>
</g>
</g>
<g clip-path="url(#clip7)" clip-rule="nonzero">
<g clip-path="url(#clip8)" clip-rule="nonzero">
<g clip-path="url(#clip9)" clip-rule="nonzero">
<path style=" stroke:none;fill-rule:nonzero;fill:rgb(11.759949%,45.878601%,85.099792%);fill-opacity:1;" d="M 14.429688 25.148438 C 14.15625 25.480469 15.304688 26.414062 15.566406 26.09375 C 15.828125 25.777344 19.003906 21.894531 19.003906 21.894531 L 17.867188 20.949219 C 17.867188 20.949219 14.699219 24.816406 14.429688 25.148438 Z M 14.429688 25.148438 "/>
</g>
</g>
</g>
</g>
</svg>
