<?xml version="1.0" encoding="UTF-8"?>
<svg xmlns="http://www.w3.org/2000/svg" xmlns:xlink="http://www.w3.org/1999/xlink" width="384pt" height="383.999986pt" viewBox="0 0 384 383.999986" version="1.2">
<defs>
<clipPath id="clip1">
  <path d="M 12 5.933594 L 383 5.933594 L 383 377 L 12 377 Z M 12 5.933594 "/>
</clipPath>
</defs>
<g id="surface1">
<g clip-path="url(#clip1)" clip-rule="nonzero">
<path style=" stroke:none;fill-rule:nonzero;fill:rgb(11.759949%,45.878601%,85.099792%);fill-opacity:1;" d="M 378.617188 337.078125 L 268.1875 226.542969 C 265.367188 229.371094 261.660156 230.789062 257.960938 230.789062 C 254.257812 230.789062 250.558594 229.371094 247.738281 226.542969 L 247.558594 226.363281 C 237.664062 216.460938 235.738281 201.238281 242.53125 189.003906 C 252.101562 171.800781 257.222656 152.777344 257.921875 133.613281 L 236.210938 133.613281 C 235.132812 158.058594 225.28125 182.1875 206.675781 200.816406 C 167.164062 240.367188 102.871094 240.371094 63.351562 200.816406 C 23.835938 161.257812 23.84375 96.910156 63.355469 57.351562 C 82.726562 37.960938 108.054688 28.082031 133.5 27.714844 L 133.5 13.660156 C 133.5 10.921875 134.085938 8.316406 135.152344 5.96875 C 103.589844 5.941406 72.027344 17.941406 48.007812 41.988281 C 0.03125 90.011719 0.0234375 168.15625 48 216.179688 C 87.722656 255.9375 148.0625 262.777344 194.875 236.707031 C 207.105469 229.898438 222.316406 231.828125 232.207031 241.726562 L 232.386719 241.910156 C 238.035156 247.566406 238.035156 256.726562 232.386719 262.378906 L 232.382812 262.386719 L 342.8125 372.921875 C 348.238281 378.351562 357.039062 378.359375 362.460938 372.921875 L 378.617188 356.746094 C 384.054688 351.3125 384.054688 342.511719 378.617188 337.078125 "/>
</g>
<path style=" stroke:none;fill-rule:nonzero;fill:rgb(11.759949%,45.878601%,85.099792%);fill-opacity:1;" d="M 159.550781 28.148438 L 221.960938 75.078125 C 223.25 76.039062 224.777344 76.527344 226.3125 76.527344 C 227.839844 76.527344 229.367188 76.039062 230.652344 75.078125 L 293.054688 28.15625 L 293.054688 107.535156 L 159.550781 107.535156 Z M 152.316406 122.023438 L 300.289062 122.023438 C 304.285156 122.023438 307.527344 118.769531 307.527344 114.777344 L 307.527344 13.660156 C 307.527344 9.65625 304.285156 6.417969 300.289062 6.417969 L 152.316406 6.417969 C 148.320312 6.417969 145.078125 9.65625 145.078125 13.660156 L 145.078125 114.777344 C 145.078125 118.769531 148.320312 122.023438 152.316406 122.023438 "/>
</g>
</svg>
