<?xml version="1.0" encoding="UTF-8"?>
<svg xmlns="http://www.w3.org/2000/svg" xmlns:xlink="http://www.w3.org/1999/xlink" width="75pt" height="74.999997pt" viewBox="0 0 75 74.999997" version="1.2">
<defs>
<clipPath id="clip1">
  <path d="M 28 44 L 38 44 L 38 52.25 L 28 52.25 Z M 28 44 "/>
</clipPath>
<clipPath id="clip2">
  <path d="M 22.617188 22.425781 L 52.617188 22.425781 L 52.617188 52.25 L 22.617188 52.25 Z M 22.617188 22.425781 "/>
</clipPath>
</defs>
<g id="surface1">
<path style=" stroke:none;fill-rule:evenodd;fill:rgb(16.079712%,70.979309%,96.078491%);fill-opacity:1;" d="M 37.730469 46.265625 L 51.484375 23.976562 L 29.851562 44.816406 L 31.433594 48.308594 L 37.730469 46.265625 "/>
<g clip-path="url(#clip1)" clip-rule="nonzero">
<path style=" stroke:none;fill-rule:evenodd;fill:rgb(16.079712%,70.979309%,96.078491%);fill-opacity:1;" d="M 28.222656 44.039062 L 28.367188 44.335938 L 31.621094 51.050781 C 31.863281 51.554688 32.328125 51.941406 32.859375 52.097656 C 33.390625 52.246094 33.921875 52.136719 34.269531 51.808594 C 35.675781 50.476562 37.820312 48.390625 37.730469 48.308594 L 28.222656 44.039062 "/>
</g>
<g clip-path="url(#clip2)" clip-rule="nonzero">
<path style=" stroke:none;fill-rule:evenodd;fill:rgb(30.979919%,76.078796%,97.24884%);fill-opacity:1;" d="M 23.660156 38.292969 C 23.011719 38.65625 22.617188 39.339844 22.640625 40.070312 C 22.660156 40.800781 23.085938 41.464844 23.757812 41.792969 L 31.078125 45.425781 L 51.484375 23.976562 L 34.089844 46.925781 L 44.101562 51.886719 C 44.738281 52.203125 45.492188 52.214844 46.140625 51.910156 C 46.785156 51.601562 47.242188 51.019531 47.382812 50.335938 L 52.808594 23.289062 C 52.863281 23.011719 52.75 22.730469 52.515625 22.570312 C 52.359375 22.464844 52.175781 22.421875 51.996094 22.445312 L 51.957031 22.449219 C 51.878906 22.464844 51.796875 22.492188 51.722656 22.535156 L 23.660156 38.292969 "/>
</g>
</g>
</svg>
