<?xml version="1.0" encoding="UTF-8"?>
<svg xmlns="http://www.w3.org/2000/svg" xmlns:xlink="http://www.w3.org/1999/xlink" width="384pt" height="383.999986pt" viewBox="0 0 384 383.999986" version="1.2">
<g id="surface1">
<path style=" stroke:none;fill-rule:nonzero;fill:rgb(11.759949%,45.878601%,85.099792%);fill-opacity:1;" d="M 192 0 C 86.101562 0 0 86.101562 0 192 C 0 297.898438 86.101562 384 192 384 C 297.898438 384 384 297.898438 384 192 C 384 86.101562 297.898438 0 192 0 Z M 309.601562 154.199219 L 157.199219 309.300781 C 150 316.800781 138.300781 316.800781 131.101562 309.300781 L 62.101562 239.101562 C 51 227.699219 51 209.398438 62.101562 198 C 72.898438 186.898438 90.601562 186.898438 101.398438 198 L 144.300781 241.5 L 270.300781 113.101562 C 281.101562 102 298.800781 102 309.601562 113.101562 C 320.699219 124.5 320.699219 143.101562 309.601562 154.199219 Z M 309.601562 154.199219 "/>
</g>
</svg>
