<?xml version="1.0" encoding="UTF-8"?>
<svg xmlns="http://www.w3.org/2000/svg" xmlns:xlink="http://www.w3.org/1999/xlink" width="30pt" height="30.000001pt" viewBox="0 0 30 30.000001" version="1.2">
<defs>
<clipPath id="clip1">
  <path d="M 5.671875 14 L 24.535156 14 L 24.535156 25.253906 L 5.671875 25.253906 Z M 5.671875 14 "/>
</clipPath>
<clipPath id="clip2">
  <path d="M 9 3.480469 L 22 3.480469 L 22 16 L 9 16 Z M 9 3.480469 "/>
</clipPath>
</defs>
<g id="surface1">
<g clip-path="url(#clip1)" clip-rule="nonzero">
<path style=" stroke:none;fill-rule:nonzero;fill:rgb(11.759949%,45.878601%,85.099792%);fill-opacity:1;" d="M 21.734375 14.519531 C 21.578125 14.363281 21.359375 14.277344 21.132812 14.277344 C 20.660156 14.277344 20.273438 14.652344 20.273438 15.113281 C 20.273438 15.335938 20.367188 15.550781 20.53125 15.710938 C 21.992188 17.121094 22.816406 19.054688 22.816406 21.066406 C 22.816406 22.085938 19.804688 23.578125 15.097656 23.578125 C 10.390625 23.578125 7.378906 22.085938 7.378906 21.066406 C 7.375 19.066406 8.1875 17.148438 9.632812 15.730469 C 9.964844 15.410156 9.964844 14.875 9.632812 14.550781 C 9.300781 14.230469 8.753906 14.230469 8.425781 14.550781 C 6.652344 16.273438 5.652344 18.621094 5.664062 21.066406 C 5.664062 23.785156 10.523438 25.25 15.097656 25.25 C 19.671875 25.25 24.535156 23.785156 24.535156 21.066406 C 24.539062 18.605469 23.53125 16.246094 21.734375 14.519531 "/>
</g>
<g clip-path="url(#clip2)" clip-rule="nonzero">
<path style=" stroke:none;fill-rule:nonzero;fill:rgb(11.759949%,45.878601%,85.099792%);fill-opacity:1;" d="M 15.097656 15.207031 C 18.390625 15.207031 21.101562 12.558594 21.101562 9.34375 C 21.101562 6.132812 18.390625 3.484375 15.097656 3.484375 C 11.804688 3.484375 9.09375 6.132812 9.09375 9.34375 C 9.09375 12.558594 11.804688 15.207031 15.097656 15.207031 Z M 15.097656 5.160156 C 17.449219 5.160156 19.386719 7.050781 19.386719 9.34375 C 19.386719 11.640625 17.449219 13.53125 15.097656 13.53125 C 12.746094 13.53125 10.808594 11.640625 10.808594 9.34375 C 10.808594 7.050781 12.746094 5.160156 15.097656 5.160156 "/>
</g>
</g>
</svg>
