<?xml version="1.0" encoding="UTF-8"?>
<svg xmlns="http://www.w3.org/2000/svg" xmlns:xlink="http://www.w3.org/1999/xlink" width="37.5pt" height="37.499999pt" viewBox="0 0 37.5 37.499999" version="1.2">
<defs>
<clipPath id="clip1">
  <path d="M 6.339844 6.203125 L 31.089844 6.203125 L 31.089844 30.949219 L 6.339844 30.949219 Z M 6.339844 6.203125 "/>
</clipPath>
</defs>
<g id="surface1">
<g clip-path="url(#clip1)" clip-rule="nonzero">
<path style=" stroke:none;fill-rule:nonzero;fill:rgb(32.939148%,32.939148%,32.939148%);fill-opacity:1;" d="M 29.003906 20.734375 C 29.003906 22.90625 28.148438 24.941406 26.597656 26.476562 C 25.046875 28.007812 22.984375 28.855469 20.792969 28.859375 L 16.632812 28.859375 C 14.441406 28.855469 12.378906 28.007812 10.828125 26.476562 C 9.28125 24.941406 8.425781 22.90625 8.421875 20.734375 L 8.421875 16.410156 C 8.425781 14.242188 9.28125 12.203125 10.828125 10.667969 C 12.378906 9.136719 14.441406 8.289062 16.632812 8.289062 L 20.792969 8.289062 C 22.984375 8.289062 25.046875 9.136719 26.597656 10.667969 C 28.148438 12.203125 29.003906 14.242188 29.003906 16.410156 Z M 20.792969 6.226562 L 16.632812 6.226562 C 10.949219 6.234375 6.34375 10.785156 6.335938 16.40625 L 6.335938 20.738281 C 6.34375 26.359375 10.949219 30.914062 16.632812 30.921875 L 20.792969 30.921875 C 26.476562 30.914062 31.082031 26.359375 31.089844 20.738281 L 31.089844 16.40625 C 31.082031 10.785156 26.476562 6.234375 20.792969 6.226562 "/>
</g>
<path style=" stroke:none;fill-rule:nonzero;fill:rgb(11.759949%,45.878601%,85.099792%);fill-opacity:1;" d="M 24.488281 17.5625 L 24.378906 17.566406 L 20.269531 17.566406 C 20.128906 17.351562 19.945312 17.167969 19.726562 17.03125 L 19.726562 12.238281 C 19.726562 11.683594 19.269531 11.230469 18.707031 11.230469 C 18.144531 11.230469 17.6875 11.683594 17.6875 12.238281 L 17.6875 17.023438 C 16.878906 17.539062 16.597656 18.574219 17.046875 19.425781 C 17.277344 19.863281 17.667969 20.1875 18.144531 20.335938 C 18.328125 20.394531 18.515625 20.421875 18.707031 20.421875 C 19.003906 20.421875 19.300781 20.347656 19.566406 20.210938 C 19.855469 20.0625 20.097656 19.847656 20.269531 19.582031 L 24.488281 19.582031 C 25.050781 19.582031 25.507812 19.128906 25.507812 18.570312 C 25.507812 18.015625 25.050781 17.5625 24.488281 17.5625 "/>
</g>
</svg>
